<?xml version="1.0" standalone="no"?>
<!DOCTYPE svg PUBLIC "-//W3C//DTD SVG 1.1//EN" "http://www.w3.org/Graphics/SVG/1.1/DTD/svg11.dtd" >
<svg>
<metadata>
Created by FontForge 20090914 at Thu Feb 17 08:18:16 2022
 By www-data
Copyright (c) 2016 by S-Core Co., Ltd.. All rights reserved.
</metadata>
<defs>
<font id="CoreSansC-55Medium" horiz-adv-x="800" >
  <font-face 
    font-family="Core Sans C 55 Medium"
    font-weight="500"
    font-stretch="normal"
    units-per-em="2000"
    panose-1="2 11 6 3 3 3 2 2 2 4"
    ascent="1600"
    descent="-400"
    x-height="1036"
    cap-height="1400"
    bbox="-790 -520 2508 1950"
    underline-thickness="48"
    underline-position="-462"
    unicode-range="U+0009-U+FB04"
  />
<missing-glyph horiz-adv-x="1000" 
d="M880 0h-760v1500h760v-1500zM310 182h380v1136h-380v-1136z" />
    <glyph glyph-name="ff" unicode="ff" horiz-adv-x="1434" 
d="M1390 1452v-196.002c-26.667 2.66699 -56.667 4 -90 4c-66.667 0 -114 -13.167 -142 -39.5s-42 -69.166 -42 -128.499v-56h274v-200h-274v-836h-228v836h-452v-836h-228v836h-164v200h164v58c0 127.333 32 220.166 96 278.499s166 87.5 306 87.5
c58 0 108.333 -4.66699 151 -14l-26 -196c-38 6.66699 -76.333 10 -115 10c-66.667 0 -114 -13.167 -142 -39.5s-42 -69.166 -42 -128.499v-56h452v58c0 126.667 31.5 219.334 94.5 278.001s162.167 88 297.5 88c44 0 80.667 -2.66699 110 -8z" />
    <glyph glyph-name="fi" unicode="fi" horiz-adv-x="1266" 
d="M208 1036v57.998c0 126.667 31.5 219.334 94.5 278.001s162.167 88 297.5 88c44 0 80.667 -2.66699 110 -8v-196c-26.667 2.66699 -56.667 4 -90 4c-66.667 0 -114 -13.167 -142 -39.5s-42 -69.166 -42 -128.499v-56h680v-1036h-228v836h-452v-836h-228v836h-164v200h164
zM860 1318c0 40 13.667 73.667 41 101s61 41 101 41s73.667 -13.667 101 -41s41 -61 41 -101s-13.667 -73.667 -41 -101s-61 -41 -101 -41s-73.667 13.667 -101 41s-41 61 -41 101z" />
    <glyph glyph-name="fl" unicode="fl" horiz-adv-x="1266" 
d="M710 1452v-196.002c-26.667 2.66699 -56.667 4 -90 4c-66.667 0 -114 -13.167 -142 -39.5s-42 -69.166 -42 -128.499v-56h274v-200h-274v-836h-228v836h-164v200h164v58c0 126.667 31.5 219.334 94.5 278.001s162.167 88 297.5 88c44 0 80.667 -2.66699 110 -8z
M888 -0.00195312v1460h228v-1460h-228z" />
    <glyph glyph-name="ffi" unicode="ffi" horiz-adv-x="1946" 
d="M1540 1318c0 40 13.667 73.667 41 101s61 41 101 41s73.667 -13.667 101 -41s41 -61 41 -101s-13.667 -73.667 -41 -101s-61 -41 -101 -41s-73.667 13.667 -101 41s-41 61 -41 101zM436 1092v-56.002h452v58c0 126.667 31.5 219.334 94.5 278.001s162.167 88 297.5 88
c44 0 80.667 -2.66699 110 -8v-196c-26.667 2.66699 -56.667 4 -90 4c-66.667 0 -114 -13.167 -142 -39.5s-42 -69.166 -42 -128.499v-56h680v-1036h-228v836h-452v-836h-228v836h-452v-836h-228v836h-164v200h164v58c0 127.333 32 220.166 96 278.499s166 87.5 306 87.5
c58 0 108.333 -4.66699 151 -14l-26 -196c-38 6.66699 -76.333 10 -115 10c-66.667 0 -114 -13.167 -142 -39.5s-42 -69.166 -42 -128.499z" />
    <glyph glyph-name="ffl" unicode="ffl" horiz-adv-x="1946" 
d="M1568 0v1460h228v-1460h-228zM1390 1452v-196.002c-26.667 2.66699 -56.667 4 -90 4c-66.667 0 -114 -13.167 -142 -39.5s-42 -69.166 -42 -128.499v-56h274v-200h-274v-836h-228v836h-452v-836h-228v836h-164v200h164v58c0 127.333 32 220.166 96 278.499
s166 87.5 306 87.5c58 0 108.333 -4.66699 151 -14l-26 -196c-38 6.66699 -76.333 10 -115 10c-66.667 0 -114 -13.167 -142 -39.5s-42 -69.166 -42 -128.499v-56h452v58c0 126.667 31.5 219.334 94.5 278.001s162.167 88 297.5 88c44 0 80.667 -2.66699 110 -8z" />
    <glyph glyph-name=".notdef" horiz-adv-x="1000" 
d="M880 0h-760v1500h760v-1500zM310 182h380v1136h-380v-1136z" />
    <glyph glyph-name=".null" horiz-adv-x="0" 
 />
    <glyph glyph-name=".null" horiz-adv-x="0" 
 />
    <glyph glyph-name="CR" unicode="&#x9;" horiz-adv-x="0" 
 />
    <glyph glyph-name="space" unicode=" " horiz-adv-x="600" 
 />
    <glyph glyph-name="exclam" unicode="!" horiz-adv-x="624" 
d="M194 404v996h236v-996h-236zM164 124c0 42 14.167 77.167 42.5 105.5s63.5 42.5 105.5 42.5s77.167 -14.167 105.5 -42.5s42.5 -63.5 42.5 -105.5s-14.167 -77.167 -42.5 -105.5s-63.5 -42.5 -105.5 -42.5s-77.167 14.167 -105.5 42.5s-42.5 63.5 -42.5 105.5z" />
    <glyph glyph-name="quotedbl" unicode="&#x22;" horiz-adv-x="982" 
d="M550 834v566h228v-566h-228zM204 834v566h228v-566h-228z" />
    <glyph glyph-name="numbersign" unicode="#" horiz-adv-x="1380" 
d="M892 1052l60 348h222l-60 -348h196v-190h-228l-58 -332h212v-190h-244l-58 -340h-222l58 340h-282l-58 -340h-222l58 340h-196v190h228l58 332h-212v190h244l60 348h222l-60 -348h282zM578 862l-58 -332h282l58 332h-282z" />
    <glyph glyph-name="dollar" unicode="$" horiz-adv-x="1188" 
d="M98 202l145.998 157.999c91.333 -100 189.333 -158.667 294 -176v448c-136.667 32 -239.167 82.333 -307.5 151s-102.5 153 -102.5 253c0 108 37.667 197.167 113 267.5s174.333 109.833 297 118.5v182h152v-188c138 -19.333 253.333 -76 346 -170l-138 -166
c-72 65.333 -141.333 107.333 -208 126v-394c148.667 -38 255.5 -91.833 320.5 -161.5s97.5 -158.5 97.5 -266.5c0 -110 -37 -201.333 -111 -274s-176.333 -115.667 -307 -129v-185h-152v184c-87.333 8 -169.666 31.333 -246.999 70s-141.666 89.334 -192.999 152.001z
M871.998 383.999c0 93.333 -60.667 162.333 -182 207v-401c56 13.333 100.333 37 133 71s49 75 49 123zM363.998 1052c0 -44 14 -82.167 42 -114.5s72 -59.833 132 -82.5v360c-52 -8 -94 -26.667 -126 -56s-48 -65 -48 -107z" />
    <glyph glyph-name="percent" unicode="%" horiz-adv-x="1830" 
d="M436 0l722 1400h236l-720 -1400h-238zM86 1058c0 100 35.833 184.333 107.5 253s161.167 103 268.5 103s196.833 -34.333 268.5 -103s107.5 -153 107.5 -253s-35.833 -184.333 -107.5 -253s-161.167 -103 -268.5 -103s-196.833 34.333 -268.5 103s-107.5 153 -107.5 253z
M308 1058c0 -44.667 14.5 -83.167 43.5 -115.5s65.833 -48.5 110.5 -48.5s81.5 16.167 110.5 48.5s43.5 70.833 43.5 115.5s-14.5 83.167 -43.5 115.5s-65.833 48.5 -110.5 48.5s-81.5 -16.167 -110.5 -48.5s-43.5 -70.833 -43.5 -115.5zM992 342
c0 100 35.833 184.333 107.5 253s161.167 103 268.5 103s196.833 -34.333 268.5 -103s107.5 -153 107.5 -253s-35.833 -184.333 -107.5 -253s-161.167 -103 -268.5 -103s-196.833 34.333 -268.5 103s-107.5 153 -107.5 253zM1214 342c0 -44.667 14.5 -83.167 43.5 -115.5
s65.833 -48.5 110.5 -48.5s81.5 16.167 110.5 48.5s43.5 70.833 43.5 115.5s-14.5 83.167 -43.5 115.5s-65.833 48.5 -110.5 48.5s-81.5 -16.167 -110.5 -48.5s-43.5 -70.833 -43.5 -115.5z" />
    <glyph glyph-name="ampersand" unicode="&#x26;" horiz-adv-x="1480" 
d="M1006 1180l-205.998 -78.001c-11.333 40.667 -33 73.167 -65 97.5s-71 36.5 -117 36.5c-47.333 0 -87.5 -15.333 -120.5 -46s-49.5 -66.667 -49.5 -108c0 -38 14.167 -78.333 42.5 -121s78.833 -97.667 151.5 -165l361 -335c36 77.333 58.333 166.333 67 267l220 -32
c-10 -145.333 -50 -275.666 -120 -390.999l330 -305h-318l-150 139c-122.667 -108.667 -266 -163 -430 -163c-140.667 0 -257.167 38.5 -349.5 115.5s-138.5 173.167 -138.5 288.5c0 82 20.167 154.5 60.5 217.5s102.166 121.167 185.499 174.5
c-50.667 56.667 -86 108.5 -106 155.5s-30 97.833 -30 152.5c0 98 38.667 179.833 116 245.5s170 98.5 278 98.5c96.667 0 179.167 -21.833 247.5 -65.5s115.166 -103.167 140.499 -178.5zM602.002 175.999c99.333 0 190.333 36.334 273 109.001l-372 347
c-107.333 -68.667 -161 -147.334 -161 -236.001c0 -62.667 24.167 -115 72.5 -157s110.833 -63 187.5 -63z" />
    <glyph glyph-name="quotesingle" unicode="'" horiz-adv-x="636" 
d="M204 834v566h228v-566h-228z" />
    <glyph glyph-name="parenleft" unicode="(" horiz-adv-x="840" 
d="M230 610c0 176.667 32 345.832 96 507.499s154.667 302.5 272 422.5l162 -122c-95.333 -110 -168.166 -235 -218.499 -375s-75.5 -284.333 -75.5 -433s25.167 -293 75.5 -433s123.166 -265 218.499 -375l-162 -122c-117.333 120 -208 260.833 -272 422.5
s-96 330.834 -96 507.501z" />
    <glyph glyph-name="parenright" unicode=")" horiz-adv-x="840" 
d="M610 610c0 -176.667 -32 -345.832 -96 -507.499s-154.667 -302.5 -272 -422.5l-162 122c95.333 110 168.166 235 218.499 375s75.5 284.333 75.5 433s-25.167 293 -75.5 433s-123.166 265 -218.499 375l162 122c117.333 -120 208 -260.833 272 -422.5
s96 -330.834 96 -507.501z" />
    <glyph glyph-name="asterisk" unicode="*" horiz-adv-x="1120" 
d="M226 970l242 -146l-4 282h192l-4 -282l242 146l96 -166l-248 -140l248 -140l-96 -166l-242 144l4 -280h-192l4 280l-242 -144l-96 166l248 140l-248 140z" />
    <glyph glyph-name="plus" unicode="+" horiz-adv-x="1160" 
d="M466 210v356h-346v196h346v356h228v-356h346v-196h-346v-356h-228z" />
    <glyph glyph-name="comma" unicode="," horiz-adv-x="600" 
d="M152 124c0 42 14.167 77.167 42.5 105.5s63.5 42.5 105.5 42.5s77.167 -14.167 105.5 -42.5s42.5 -63.5 42.5 -105.5c0 -24 -5.33301 -46.667 -16 -68l-142 -306h-146l106 234c-29.333 10 -53 27.667 -71 53s-27 54.333 -27 87z" />
    <glyph glyph-name="hyphen" unicode="-" horiz-adv-x="812" 
d="M692 556h-572v216h572v-216z" />
    <glyph glyph-name="period" unicode="." horiz-adv-x="600" 
d="M152 124c0 42 14.167 77.167 42.5 105.5s63.5 42.5 105.5 42.5s77.167 -14.167 105.5 -42.5s42.5 -63.5 42.5 -105.5s-14.167 -77.167 -42.5 -105.5s-63.5 -42.5 -105.5 -42.5s-77.167 14.167 -105.5 42.5s-42.5 63.5 -42.5 105.5z" />
    <glyph glyph-name="slash" unicode="/" horiz-adv-x="924" 
d="M924 1500l-682 -1780h-242l686 1780h238z" />
    <glyph glyph-name="zero" unicode="0" horiz-adv-x="1200" 
d="M120 700c0 138.667 17 261.5 51 368.5s87.667 193 161 258s162.666 97.5 267.999 97.5c78.667 0 149 -18.5 211 -55.5s112.333 -88.5 151 -154.5s68 -142.5 88 -229.5s30 -181.833 30 -284.5s-10 -197.5 -30 -284.5s-49.333 -163.5 -88 -229.5s-89 -117.5 -151 -154.5
s-132.333 -55.5 -211 -55.5c-105.333 0 -194.666 32.5 -267.999 97.5s-127 151 -161 258s-51 229.833 -51 368.5zM352 700c0 -160.667 20.167 -286.167 60.5 -376.5s102.833 -135.5 187.5 -135.5s147.167 45.167 187.5 135.5s60.5 215.833 60.5 376.5
s-20.167 286.167 -60.5 376.5s-102.833 135.5 -187.5 135.5s-147.167 -45.167 -187.5 -135.5s-60.5 -215.833 -60.5 -376.5z" />
    <glyph glyph-name="one" unicode="1" horiz-adv-x="1200" 
d="M570 1400h212v-1400h-232v1168l-234 -124l-98 170z" />
    <glyph glyph-name="two" unicode="2" horiz-adv-x="1200" 
d="M838 576l-346 -376h542v-200h-846v190l470 510c57.333 62 98 116.333 122 163s36 95 36 145c0 65.333 -20.167 117.666 -60.5 156.999s-92.833 59 -157.5 59c-57.333 0 -105.5 -15.5 -144.5 -46.5s-71.833 -78.5 -98.5 -142.5l-193 83
c32 94.667 85.167 169.334 159.5 224.001s166.5 82 276.5 82c131.333 0 239.166 -37.5 323.499 -112.5s126.5 -175.5 126.5 -301.5c0 -78.667 -16.167 -150 -48.5 -214s-86.166 -137.333 -161.499 -220z" />
    <glyph glyph-name="three" unicode="3" horiz-adv-x="1200" 
d="M810 444c0 74 -26.167 137.167 -78.5 189.5s-117.5 78.5 -195.5 78.5c-19.333 0 -41.333 -3.33301 -66 -10l-90 114l312 380h-514v204h796v-204l-284 -336c108.667 -16.667 194.5 -65.667 257.5 -147s94.5 -178.333 94.5 -291c0 -54.667 -11.667 -108.5 -35 -161.5
s-55.666 -100.667 -96.999 -143s-94 -76.5 -158 -102.5s-133.333 -39 -208 -39c-94 0 -179.333 20.5 -256 61.5s-140.334 99.5 -191.001 175.5l160 132c77.333 -112.667 170.333 -169 279 -169c78 0 143.167 26.167 195.5 78.5s78.5 115.5 78.5 189.5z" />
    <glyph glyph-name="four" unicode="4" horiz-adv-x="1200" 
d="M78 264v210l622 926h232v-924h150v-212h-150v-264h-232v264h-622zM332 474h368v546z" />
    <glyph glyph-name="five" unicode="5" horiz-adv-x="1200" 
d="M562 -24c-94 0 -179.665 19.8311 -256.998 59.498s-140.333 97.834 -189 174.501l167 134c74 -112 164.333 -168 271 -168c78.667 0 144 25.5 196 76.5s78 114.167 78 189.5s-26 138.5 -78 189.5s-117.333 76.5 -196 76.5c-42 0 -81 -8.5 -117 -25.5
s-63.667 -39.167 -83 -66.5l-164 20l84 764h734v-204h-528l-40 -338c44 30.667 101.333 46 172 46c60 0 116.833 -10.5 170.5 -31.5s101.167 -50.5 142.5 -88.5s74.166 -86.167 98.499 -144.5s36.5 -122.166 36.5 -191.499c0 -140 -44.833 -253.667 -134.5 -341
s-210.834 -131 -363.501 -131z" />
    <glyph glyph-name="six" unicode="6" horiz-adv-x="1200" 
d="M876 1400l-328.002 -504c24 8 51.333 12 82 12c81.333 0 157.333 -19.167 228 -57.5s128 -93.333 172 -165s66 -152.167 66 -241.5s-23.5 -170.166 -70.5 -242.499s-108.167 -128 -183.5 -167s-155.333 -58.5 -240 -58.5c-87.333 0 -169.166 19.5 -245.499 58.5
s-138.166 94.667 -185.499 167s-71 153.166 -71 242.499c0 92.667 23.333 174.667 70 246l460 710h246zM863.998 444c0 75.333 -26 138.833 -78 190.5s-114.667 77.5 -188 77.5s-136 -25.833 -188 -77.5s-78 -115.167 -78 -190.5s26 -138.833 78 -190.5
s114.667 -77.5 188 -77.5s136 25.833 188 77.5s78 115.167 78 190.5z" />
    <glyph glyph-name="seven" unicode="7" horiz-adv-x="1200" 
d="M168 1400h872v-194l-500 -1206h-260l500 1196h-612v204z" />
    <glyph glyph-name="eight" unicode="8" horiz-adv-x="1200" 
d="M600 -24c-137.333 0 -253 42.333 -347 127s-141 189.667 -141 315c0 81.333 21.667 153.666 65 216.999s103 109 179 137c-49.333 24.667 -90.333 62.5 -123 113.5s-49 105.833 -49 164.5c0 104.667 39.333 193.167 118 265.5s178 108.5 298 108.5
s219.333 -36.167 298 -108.5s118 -160.833 118 -265.5c0 -58.667 -16.333 -113.5 -49 -164.5s-73.667 -88.833 -123 -113.5c76 -28 135.667 -73.667 179 -137s65 -135.666 65 -216.999c0 -125.333 -47 -230.333 -141 -315s-209.667 -127 -347 -127zM600 668
c-72 0 -132.667 -24 -182 -72s-74 -106 -74 -174s24.667 -126 74 -174s110 -72 182 -72s132.667 24 182 72s74 106 74 174s-24.667 126 -74 174s-110 72 -182 72zM600 860c53.333 0 98.666 18.5 135.999 55.5s56 79.833 56 128.5c0 49.333 -18.667 91.666 -56 126.999
s-82.666 53 -135.999 53s-98.666 -17.667 -135.999 -53s-56 -77.666 -56 -126.999c0 -48.667 18.667 -91.5 56 -128.5s82.666 -55.5 135.999 -55.5z" />
    <glyph glyph-name="nine" unicode="9" horiz-adv-x="1200" 
d="M324 0l328.002 504c-24 -8 -51.333 -12 -82 -12c-81.333 0 -157.333 19.167 -228 57.5s-128 93.333 -172 165s-66 152.167 -66 241.5s23.5 170.166 70.5 242.499s108.167 128 183.5 167s155.333 58.5 240 58.5c87.333 0 169.166 -19.5 245.499 -58.5
s138.166 -94.667 185.499 -167s71 -153.166 71 -242.499c0 -92.667 -23.333 -174.667 -70 -246l-460 -710h-246zM336.002 956c0 -75.333 26 -138.833 78 -190.5s114.667 -77.5 188 -77.5s136 25.833 188 77.5s78 115.167 78 190.5s-26 138.833 -78 190.5
s-114.667 77.5 -188 77.5s-136 -25.833 -188 -77.5s-78 -115.167 -78 -190.5z" />
    <glyph glyph-name="colon" unicode=":" horiz-adv-x="600" 
d="M152 124c0 42 14.167 77.167 42.5 105.5s63.5 42.5 105.5 42.5s77.167 -14.167 105.5 -42.5s42.5 -63.5 42.5 -105.5s-14.167 -77.167 -42.5 -105.5s-63.5 -42.5 -105.5 -42.5s-77.167 14.167 -105.5 42.5s-42.5 63.5 -42.5 105.5zM152 912
c0 42 14.167 77.167 42.5 105.5s63.5 42.5 105.5 42.5s77.167 -14.167 105.5 -42.5s42.5 -63.5 42.5 -105.5s-14.167 -77.167 -42.5 -105.5s-63.5 -42.5 -105.5 -42.5s-77.167 14.167 -105.5 42.5s-42.5 63.5 -42.5 105.5z" />
    <glyph glyph-name="semicolon" unicode=";" horiz-adv-x="600" 
d="M152 912c0 42 14.167 77.167 42.5 105.5s63.5 42.5 105.5 42.5s77.167 -14.167 105.5 -42.5s42.5 -63.5 42.5 -105.5s-14.167 -77.167 -42.5 -105.5s-63.5 -42.5 -105.5 -42.5s-77.167 14.167 -105.5 42.5s-42.5 63.5 -42.5 105.5zM152 124
c0 42 14.167 77.167 42.5 105.5s63.5 42.5 105.5 42.5s77.167 -14.167 105.5 -42.5s42.5 -63.5 42.5 -105.5c0 -24 -5.33301 -46.667 -16 -68l-142 -306h-146l106 234c-29.333 10 -53 27.667 -71 53s-27 54.333 -27 87z" />
    <glyph glyph-name="less" unicode="&#x3c;" horiz-adv-x="1160" 
d="M124 582v164l880 482v-257l-590 -307l590 -307v-257z" />
    <glyph glyph-name="equal" unicode="=" horiz-adv-x="1160" 
d="M1040 788h-920v196h920v-196zM1040 344h-920v196h920v-196z" />
    <glyph glyph-name="greater" unicode="&#x3e;" horiz-adv-x="1160" 
d="M1036 746v-164l-880 -482v257l590 307l-590 307v257z" />
    <glyph glyph-name="question" unicode="?" horiz-adv-x="1104" 
d="M364 404v362c118 0 210.833 23.833 278.5 71.5s101.5 108.5 101.5 182.5c0 56.667 -25 103.5 -75 140.5s-115.667 55.5 -197 55.5c-90 0 -180.667 -38.667 -272 -116l-124 169c122.667 103.333 264 155 424 155c142.667 0 259 -40.333 349 -121s135 -175.667 135 -285
c0 -96 -34.5 -180.667 -103.5 -254s-162.5 -121.333 -280.5 -144v-216h-236zM334 124c0 42 14.167 77.167 42.5 105.5s63.5 42.5 105.5 42.5s77.167 -14.167 105.5 -42.5s42.5 -63.5 42.5 -105.5s-14.167 -77.167 -42.5 -105.5s-63.5 -42.5 -105.5 -42.5
s-77.167 14.167 -105.5 42.5s-42.5 63.5 -42.5 105.5z" />
    <glyph glyph-name="at" unicode="@" horiz-adv-x="1940" 
d="M964 284c48 0 91.167 12.833 129.5 38.5s67.833 59.5 88.5 101.5v228c-20.667 42 -50.167 75.833 -88.5 101.5s-81.5 38.5 -129.5 38.5c-68.667 0 -126.5 -24.5 -173.5 -73.5s-70.5 -109.167 -70.5 -180.5s23.5 -131.5 70.5 -180.5s104.833 -73.5 173.5 -73.5zM1440 112
c-46.667 0 -92.665 11.499 -137.998 34.499s-81.333 52.167 -108 87.5c-72.667 -81.333 -160 -122 -262 -122c-115.333 0 -211.833 41.833 -289.5 125.5s-116.5 183.834 -116.5 300.501s38.833 216.834 116.5 300.501s174.167 125.5 289.5 125.5
c95.333 0 178.666 -36.667 249.999 -110v90h190v-614c9.33301 -13.333 22.833 -24.333 40.5 -33s35.5 -13 53.5 -13c58.667 0 108 26 148 78s60 127.333 60 226c0 92 -19.167 179.333 -57.5 262s-89.5 153.167 -153.5 211.5s-139.333 104.666 -226 138.999
s-177 51.5 -271 51.5c-126.667 0 -243.5 -30.833 -350.5 -92.5s-192 -146.5 -255 -254.5s-94.5 -226.333 -94.5 -355c0 -130 31.5 -248.5 94.5 -355.5s150 -191.5 261 -253.5s234.5 -93 370.5 -93c176 0 334.667 50 476 150l76 -160
c-88 -53.333 -176.333 -93.666 -265 -120.999s-184.334 -41 -287.001 -41c-128.667 0 -249.667 22.167 -363 66.5s-210.666 105 -291.999 182s-145.5 169.667 -192.5 278s-70.5 224.166 -70.5 347.499c0 122.667 23.667 238.5 71 347.5s111 201.833 191 278.5
s174.833 137.167 284.5 181.5s224.834 66.5 345.501 66.5c126.667 0 245.667 -21.167 357 -63.5s206.666 -100.166 285.999 -173.499s142 -161.833 188 -265.5s69 -214.834 69 -333.501c0 -146 -39.333 -261.833 -118 -347.5s-181.334 -128.5 -308.001 -128.5z" />
    <glyph glyph-name="A" unicode="A" horiz-adv-x="1376" 
d="M820 1400l516 -1400h-256l-116 338h-552l-116 -338h-256l516 1400h264zM688 1142l-206 -600h412z" />
    <glyph glyph-name="B" unicode="B" horiz-adv-x="1246" 
d="M746 0l-586 0.00195312v1400h512c128 0 227.333 -33.5 298 -100.5s106 -159.5 106 -277.5c0 -132.667 -54.667 -224 -164 -274c69.333 -18.667 127.333 -58.334 174 -119.001s70 -134.334 70 -221.001c0 -122 -36.833 -220.5 -110.5 -295.5s-173.5 -112.5 -299.5 -112.5z
M836 1010c0 60 -16.333 106 -49 138s-76.334 48 -131.001 48h-260v-372h260c54.667 0 98.334 16 131.001 48s49 78 49 138zM916 416.002c0 65.333 -17.5 117 -52.5 155s-80.833 57 -137.5 57h-330v-424h330c56.667 0 102.5 19.167 137.5 57.5s52.5 89.833 52.5 154.5z" />
    <glyph glyph-name="C" unicode="C" horiz-adv-x="1382" 
d="M1188 320l123.999 -176.003c-137.333 -112 -299.333 -168 -486 -168c-138.667 0 -265 31.833 -379 95.5s-203.667 150.834 -269 261.501s-98 233 -98 367s32.667 256.333 98 367s155 197.834 269 261.501s240.333 95.5 379 95.5c176 0 332.667 -52 470 -156l-118 -178
c-62.667 41.333 -120.667 72.666 -174 93.999s-112.666 32 -177.999 32c-141.333 0 -261 -49.667 -359 -149s-147 -221.666 -147 -366.999s49 -267.666 147 -366.999s217.667 -149 359 -149c127.333 0 248 45.333 362 136z" />
    <glyph glyph-name="D" unicode="D" horiz-adv-x="1434" 
d="M160 1400h492c215.333 0 386.166 -62.5 512.499 -187.5s189.5 -295.833 189.5 -512.5s-63.167 -387.5 -189.5 -512.5s-297.166 -187.5 -512.499 -187.5h-492v1400zM652 1192h-256v-984h256c141.333 0 253.666 41 336.999 123s125 205 125 369s-41.667 287 -125 369
s-195.666 123 -336.999 123z" />
    <glyph glyph-name="E" unicode="E" horiz-adv-x="1140" 
d="M160 0v1400h852v-204h-616v-390h568v-204h-568v-398h634v-204h-870z" />
    <glyph glyph-name="F" unicode="F" horiz-adv-x="1072" 
d="M160 0v1400h832v-204h-596v-390h548v-204h-548v-602h-236z" />
    <glyph glyph-name="G" unicode="G" horiz-adv-x="1450" 
d="M826 1216c-141.333 0 -261.001 -49.6699 -359.001 -149.003s-147 -221.666 -147 -366.999s49 -267.666 147 -366.999s217.667 -149 359 -149c44.667 0 90.167 6.16699 136.5 18.5s86.833 29.5 121.5 51.5v302h-340v204h576v-608
c-64 -55.333 -138.833 -98.5 -224.5 -129.5s-175.5 -46.5 -269.5 -46.5c-138.667 0 -265 31.833 -379 95.5s-203.667 150.834 -269 261.501s-98 233 -98 367s32.667 256.333 98 367s155 197.834 269 261.501s240.333 95.5 379 95.5c176 0 332.667 -52 470 -156l-118 -178
c-62.667 41.333 -120.667 72.666 -174 93.999s-112.666 32 -177.999 32z" />
    <glyph glyph-name="H" unicode="H" horiz-adv-x="1408" 
d="M160 0v1400h236v-594h616v594h236v-1400h-236v602h-616v-602h-236z" />
    <glyph glyph-name="I" unicode="I" horiz-adv-x="576" 
d="M170 1400h236v-1400h-236v1400z" />
    <glyph glyph-name="J" unicode="J" horiz-adv-x="924" 
d="M538 446v954h236v-954c0 -162 -38 -280.833 -114 -356.5s-189.333 -113.5 -340 -113.5c-48.667 0 -98.667 6.16699 -150 18.5s-94.666 28.833 -129.999 49.5l76 198c65.333 -38.667 132 -58 200 -58c73.333 0 128.666 20.667 165.999 62s56 108 56 200z" />
    <glyph glyph-name="K" unicode="K" horiz-adv-x="1216" 
d="M396 1400v-594h85l397 594h268l-466 -692l546 -708h-276l-462 602h-92v-602h-236v1400h236z" />
    <glyph glyph-name="L" unicode="L" horiz-adv-x="1030" 
d="M160 0v1400h236v-1196h594v-204h-830z" />
    <glyph glyph-name="M" unicode="M" horiz-adv-x="1712" 
d="M930 428h-148l-394 586v-1014h-228v1400h220l476 -712l476 712h220v-1400h-228v1014z" />
    <glyph glyph-name="N" unicode="N" horiz-adv-x="1408" 
d="M160 0v1400h228l632 -992v992h228v-1400h-228l-632 992v-992h-228z" />
    <glyph glyph-name="O" unicode="O" horiz-adv-x="1652" 
d="M826 184c141.333 0 261 49.667 359 149s147 221.666 147 366.999s-49 267.666 -147 366.999s-217.667 149 -359 149s-261 -49.667 -359 -149s-147 -221.666 -147 -366.999s49 -267.666 147 -366.999s217.667 -149 359 -149zM826 1424c138.667 0 265 -31.833 379 -95.5
s203.667 -150.834 269 -261.501s98 -233 98 -367s-32.667 -256.333 -98 -367s-155 -197.834 -269 -261.501s-240.333 -95.5 -379 -95.5s-265 31.833 -379 95.5s-203.667 150.834 -269 261.501s-98 233 -98 367s32.667 256.333 98 367s155 197.834 269 261.501
s240.333 95.5 379 95.5z" />
    <glyph glyph-name="P" unicode="P" horiz-adv-x="1186" 
d="M632 508h-236v-508h-236v1400h472c150 0 268.167 -40.333 354.5 -121s129.5 -189 129.5 -325s-43.167 -244.333 -129.5 -325s-204.5 -121 -354.5 -121zM876 954c0 75.333 -21.833 134.5 -65.5 177.5s-106.5 64.5 -188.5 64.5h-226v-484h226c82 0 144.833 21.5 188.5 64.5
s65.5 102.167 65.5 177.5z" />
    <glyph glyph-name="Q" unicode="Q" horiz-adv-x="1652" 
d="M1426 -142l-206 221.999c-120 -69.333 -251.333 -104 -394 -104c-138.667 0 -265 31.833 -379 95.5s-203.667 150.834 -269 261.501s-98 233 -98 367s32.667 256.333 98 367s155 197.834 269 261.501s240.333 95.5 379 95.5s265 -31.833 379 -95.5
s203.667 -150.834 269 -261.501s98 -233 98 -367c0 -94.667 -16.833 -184 -50.5 -268s-81.167 -158.667 -142.5 -224l197 -212zM826 183.999c86 0 166.667 20.332 242 60.999l-216 233l150 138l221 -240c72.667 94 109 202 109 324c0 145.333 -49 267.666 -147 366.999
s-217.667 149 -359 149s-261 -49.667 -359 -149s-147 -221.666 -147 -366.999s49 -267.666 147 -366.999s217.667 -149 359 -149z" />
    <glyph glyph-name="R" unicode="R" horiz-adv-x="1214" 
d="M160 1400l472 -0.000976562c150 0 268.167 -40.333 354.5 -121s129.5 -189 129.5 -325c0 -110.667 -29.333 -203.667 -88 -279s-140.667 -125.666 -246 -150.999l362 -524h-260l-349 508h-139v-508h-236v1400zM622 1196h-226v-484h226c82 0 144.833 21.5 188.5 64.5
s65.5 102.167 65.5 177.5s-21.833 134.5 -65.5 177.5s-106.5 64.5 -188.5 64.5z" />
    <glyph glyph-name="S" unicode="S" horiz-adv-x="1188" 
d="M98 202l147.997 160.001c48.667 -53.333 103 -96.333 163 -129s121.667 -49 185 -49c82 0 148.167 18 198.5 54s75.5 84.667 75.5 146c0 57.333 -22.667 106.166 -68 146.499s-124.666 72.166 -237.999 95.499c-145.333 30.667 -254 80.834 -326 150.501
s-108 156.167 -108 259.5c0 115.333 42.333 208.833 127 280.5s194.334 107.5 329.001 107.5c184.667 0 335.334 -59.333 452.001 -178l-140 -168c-101.333 92 -202 138 -302 138c-66 0 -120.167 -15 -162.5 -45s-63.5 -69.667 -63.5 -119c0 -56.667 23 -103.5 69 -140.5
s121 -67.5 225 -91.5c159.333 -36.667 273.5 -90.5 342.5 -161.5s103.5 -162.5 103.5 -274.5c0 -122 -45 -220.5 -135 -295.5s-213 -112.5 -369 -112.5c-98.667 0 -193 20 -283 60s-164.333 95.333 -223 166z" />
    <glyph glyph-name="T" unicode="T" horiz-adv-x="1108" 
d="M436 0v1196h-376v204h988v-204h-376v-1196h-236z" />
    <glyph glyph-name="U" unicode="U" horiz-adv-x="1336" 
d="M1186 1400l-0.00195312 -904c0 -102.667 -23.333 -193.834 -70 -273.501s-109.167 -140.334 -187.5 -182.001s-165.166 -62.5 -260.499 -62.5s-182.166 20.833 -260.499 62.5s-140.833 102.334 -187.5 182.001s-70 170.834 -70 273.501v904h236v-932
c0 -84 27 -152 81 -204s121 -78 201 -78s147 26 201 78s81 120 81 204v932h236z" />
    <glyph glyph-name="V" unicode="V" horiz-adv-x="1376" 
d="M292 1400l396 -1102l396 1102h252l-516 -1400h-264l-516 1400h252z" />
    <glyph glyph-name="W" unicode="W" horiz-adv-x="1960" 
d="M864 1400h232l302 -1054l274 1054h248l-398 -1400h-232l-310 1076l-310 -1076h-232l-398 1400h248l274 -1054z" />
    <glyph glyph-name="X" unicode="X" horiz-adv-x="1272" 
d="M986 0l-350 542l-350 -542h-256l466 712l-448 688h256l332 -518l332 518h256l-448 -688l466 -712h-256z" />
    <glyph glyph-name="Y" unicode="Y" horiz-adv-x="1292" 
d="M292 1400l354 -596l354 596h252l-488 -826v-574h-236v574l-488 826h252z" />
    <glyph glyph-name="Z" unicode="Z" horiz-adv-x="1214" 
d="M120 204l680 992h-650v204h934v-204l-680 -992h700v-204h-984v204z" />
    <glyph glyph-name="bracketleft" unicode="[" horiz-adv-x="840" 
d="M228 -280v1780h572v-204h-336v-1372h336v-204h-572z" />
    <glyph glyph-name="backslash" unicode="\" horiz-adv-x="924" 
d="M682 -280l-682 1780h238l686 -1780h-242z" />
    <glyph glyph-name="bracketright" unicode="]" horiz-adv-x="840" 
d="M612 1500v-1780h-572v204h336v1372h-336v204h572z" />
    <glyph glyph-name="asciicircum" unicode="^" horiz-adv-x="1240" 
d="M500 1400h240l400 -622h-252l-268 422l-268 -422h-252z" />
    <glyph glyph-name="underscore" unicode="_" horiz-adv-x="1000" 
d="M0 -360v176h1000v-176h-1000z" />
    <glyph glyph-name="grave" unicode="`" horiz-adv-x="840" 
d="M339 1460l272 -342h-222l-279 342h229z" />
    <glyph glyph-name="a" unicode="a" horiz-adv-x="1312" 
d="M640 180c66.667 0 127.168 16.832 181.501 50.499s95.166 78.834 122.499 135.501v302c-27.333 56.667 -68.333 102.167 -123 136.5s-115 51.5 -181 51.5c-94.667 0 -174.667 -32.667 -240 -98s-98 -145.333 -98 -240s32.667 -174.667 98 -240s145.333 -98 240 -98z
M600.001 1060c138.667 0 253.334 -45.333 344.001 -136v112h228v-1036h-228v112c-90.667 -90.667 -205.334 -136 -344.001 -136c-100 0 -190.833 24.667 -272.5 74s-145 115.333 -190 198s-67.5 172.667 -67.5 270s22.5 187.333 67.5 270s108.333 148.667 190 198
s172.5 74 272.5 74z" />
    <glyph glyph-name="b" unicode="b" horiz-adv-x="1312" 
d="M672 180c94.667 0 174.668 32.668 240.001 98.001s98 145.333 98 240s-32.667 174.667 -98 240s-145.333 98 -240 98c-66 0 -126.333 -17.167 -181 -51.5s-95.667 -79.833 -123 -136.5v-302c27.333 -56.667 68.166 -101.834 122.499 -135.501s114.833 -50.5 181.5 -50.5z
M712.001 1060c100 0 190.833 -24.667 272.5 -74s145 -115.333 190 -198s67.5 -172.667 67.5 -270s-22.5 -187.333 -67.5 -270s-108.333 -148.667 -190 -198s-172.5 -74 -272.5 -74c-138.667 0 -253.334 45.333 -344.001 136v-112h-228v1460h228v-536
c90.667 90.667 205.334 136 344.001 136z" />
    <glyph glyph-name="c" unicode="c" horiz-adv-x="1104" 
d="M640 -24c-107.333 0 -204.667 24 -292 72s-155.5 113.5 -204.5 196.5s-73.5 174.167 -73.5 273.5s24.5 190.5 73.5 273.5s117.167 148.5 204.5 196.5s184.666 72 291.999 72c146 0 272.667 -44 380 -132l-118 -178c-87.333 70.667 -174.666 106 -261.999 106
c-94.667 0 -174.667 -32.667 -240 -98s-98 -145.333 -98 -240s32.667 -174.667 98 -240s145.333 -98 240 -98c96 0 184.667 37.333 266 112l134 -166c-108.667 -100 -242 -150 -400 -150z" />
    <glyph glyph-name="d" unicode="d" horiz-adv-x="1312" 
d="M640 180c66.667 0 127.168 16.832 181.501 50.499s95.166 78.834 122.499 135.501v302c-27.333 56.667 -68.333 102.167 -123 136.5s-115 51.5 -181 51.5c-94.667 0 -174.667 -32.667 -240 -98s-98 -145.333 -98 -240s32.667 -174.667 98 -240s145.333 -98 240 -98z
M600.001 1060c138.667 0 253.334 -45.333 344.001 -136v536h228v-1460h-228v112c-90.667 -90.667 -205.334 -136 -344.001 -136c-100 0 -190.833 24.667 -272.5 74s-145 115.333 -190 198s-67.5 172.667 -67.5 270s22.5 187.333 67.5 270s108.333 148.667 190 198
s172.5 74 272.5 74z" />
    <glyph glyph-name="e" unicode="e" horiz-adv-x="1236" 
d="M1156 444l-853 -0.000976562c13.333 -79.333 51.166 -144.5 113.499 -195.5s136.166 -76.5 221.499 -76.5c116.667 0 219.334 45.333 308.001 136l156 -144c-115.333 -125.333 -268 -188 -458 -188c-84 0 -162 14.167 -234 42.5s-132.667 66.833 -182 115.5
s-88 106.167 -116 172.5s-42 136.833 -42 211.5s14.167 145.334 42.5 212.001s67 124.167 116 172.5s108.167 86.666 177.5 114.999s143.333 42.5 222 42.5c102.667 0 195.334 -23.667 278.001 -71s146.667 -110.666 192 -189.999s68 -166.333 68 -261
c0 -34 -3.33301 -65.333 -10 -94zM628 863.999c-72 0 -137.333 -21.667 -196 -65s-98.667 -99 -120 -167h615c-18 68 -54 123.667 -108 167s-117.667 65 -191 65z" />
    <glyph glyph-name="f" unicode="f" horiz-adv-x="754" 
d="M710 1452v-196.002c-26.667 2.66699 -56.667 4 -90 4c-66.667 0 -114 -13.167 -142 -39.5s-42 -69.166 -42 -128.499v-56h274v-200h-274v-836h-228v836h-164v200h164v58c0 126.667 31.5 219.334 94.5 278.001s162.167 88 297.5 88c44 0 80.667 -2.66699 110 -8z" />
    <glyph glyph-name="g" unicode="g" horiz-adv-x="1312" 
d="M640 180c66.667 0 127.168 16.832 181.501 50.499s95.166 78.834 122.499 135.501v302c-27.333 56.667 -68.333 102.167 -123 136.5s-115 51.5 -181 51.5c-94.667 0 -174.667 -32.667 -240 -98s-98 -145.333 -98 -240s32.667 -174.667 98 -240s145.333 -98 240 -98z
M1172 1036l-0.000976562 -980c0 -160 -46.667 -286.667 -140 -380s-228.666 -140 -405.999 -140c-97.333 0 -187.5 18.5 -270.5 55.5s-153.5 88.5 -211.5 154.5l150 146c97.333 -106.667 207.333 -160 330 -160c98 0 175.833 27.167 233.5 81.5s86.5 129.833 86.5 226.5v72
c-90.667 -90.667 -205.334 -136 -344.001 -136c-100 0 -190.833 24.667 -272.5 74s-145 115.333 -190 198s-67.5 172.667 -67.5 270s22.5 187.333 67.5 270s108.333 148.667 190 198s172.5 74 272.5 74c138.667 0 253.334 -45.333 344.001 -136v112h228z" />
    <glyph glyph-name="h" unicode="h" horiz-adv-x="1220" 
d="M368 688l0.000976562 -688.001h-228v1460h228v-544c39.333 43.333 86.5 78.166 141.5 104.499s111.167 39.5 168.5 39.5c125.333 0 227 -39.667 305 -119s117 -183.666 117 -312.999v-628h-228v616c0 70.667 -22 128.334 -66 173.001s-101.333 67 -172 67
c-49.333 0 -98.333 -16.5 -147 -49.5s-88.334 -72.5 -119.001 -118.5z" />
    <glyph glyph-name="i" unicode="i" horiz-adv-x="528" 
d="M150 0v1036h228v-1036h-228zM122 1318c0 40 13.667 73.667 41 101s61 41 101 41s73.667 -13.667 101 -41s41 -61 41 -101s-13.667 -73.667 -41 -101s-61 -41 -101 -41s-73.667 13.667 -101 41s-41 61 -41 101z" />
    <glyph glyph-name="j" unicode="j" horiz-adv-x="528" 
d="M122 1318c0 40 13.667 73.667 41 101s61 41 101 41s73.667 -13.667 101 -41s41 -61 41 -101s-13.667 -73.667 -41 -101s-61 -41 -101 -41s-73.667 13.667 -101 41s-41 61 -41 101zM150 -108l-0.000976562 1144h228v-1140c0 -129.333 -26.333 -221.666 -79 -276.999
s-139 -83 -259 -83c-29.333 0 -56 1.33301 -80 4v196h52c48.667 0 83.834 11.667 105.501 35s32.5 63.666 32.5 120.999z" />
    <glyph glyph-name="k" unicode="k" horiz-adv-x="1040" 
d="M780 0l-314 478h-98v-478h-228v1460h228v-786h101l249 362h268l-330 -460l384 -576h-260z" />
    <glyph glyph-name="l" unicode="l" horiz-adv-x="528" 
d="M150 0v1460h228v-1460h-228z" />
    <glyph glyph-name="m" unicode="m" horiz-adv-x="1888" 
d="M140 1036l228.003 -0.000976562v-120c36 42.667 79.833 77.334 131.5 104.001s105.167 40 160.5 40c76 0 143.667 -16.333 203 -49s106.666 -78.334 141.999 -137.001c39.333 56.667 91 101.834 155 135.501s130.667 50.5 200 50.5
c121.333 0 219.666 -39.667 294.999 -119s113 -182.333 113 -309v-632h-228v620c0 68.667 -19.667 125.167 -59 169.5s-91 66.5 -155 66.5c-48.667 0 -95.834 -16.5 -141.501 -49.5s-85.167 -75.167 -118.5 -126.5c1.33301 -21.333 2 -37.333 2 -48v-632h-228v620
c0 68.667 -19.667 125.167 -59 169.5s-91 66.5 -155 66.5c-48 0 -94.5 -16.167 -139.5 -48.5s-84.5 -73.5 -118.5 -123.5v-684h-228v1036z" />
    <glyph glyph-name="n" unicode="n" horiz-adv-x="1220" 
d="M368 688l0.000976562 -688.001h-228v1036h228v-120c39.333 43.333 86.5 78.166 141.5 104.499s111.167 39.5 168.5 39.5c125.333 0 227 -39.667 305 -119s117 -183.666 117 -312.999v-628h-228v616c0 70.667 -22 128.334 -66 173.001s-101.333 67 -172 67
c-49.333 0 -98.333 -16.5 -147 -49.5s-88.334 -72.5 -119.001 -118.5z" />
    <glyph glyph-name="o" unicode="o" horiz-adv-x="1280" 
d="M640 180c94.667 0 174.667 32.667 240 98s98 145.333 98 240s-32.667 174.667 -98 240s-145.333 98 -240 98s-174.667 -32.667 -240 -98s-98 -145.333 -98 -240s32.667 -174.667 98 -240s145.333 -98 240 -98zM640 1060c107.333 0 204.666 -24 291.999 -72
s155.5 -113.5 204.5 -196.5s73.5 -174.167 73.5 -273.5s-24.5 -190.5 -73.5 -273.5s-117.167 -148.5 -204.5 -196.5s-184.666 -72 -291.999 -72s-204.666 24 -291.999 72s-155.5 113.5 -204.5 196.5s-73.5 174.167 -73.5 273.5s24.5 190.5 73.5 273.5
s117.167 148.5 204.5 196.5s184.666 72 291.999 72z" />
    <glyph glyph-name="p" unicode="p" horiz-adv-x="1312" 
d="M672 180c94.667 0 174.668 32.668 240.001 98.001s98 145.333 98 240s-32.667 174.667 -98 240s-145.333 98 -240 98c-66 0 -126.333 -17.167 -181 -51.5s-95.667 -79.833 -123 -136.5v-302c27.333 -56.667 68.166 -101.834 122.499 -135.501s114.833 -50.5 181.5 -50.5z
M712.001 1060c100 0 190.833 -24.667 272.5 -74s145 -115.333 190 -198s67.5 -172.667 67.5 -270s-22.5 -187.333 -67.5 -270s-108.333 -148.667 -190 -198s-172.5 -74 -272.5 -74c-138.667 0 -253.334 45.333 -344.001 136v-576h-228v1500h228v-112
c90.667 90.667 205.334 136 344.001 136z" />
    <glyph glyph-name="q" unicode="q" horiz-adv-x="1312" 
d="M640 180c66.667 0 127.168 16.832 181.501 50.499s95.166 78.834 122.499 135.501v302c-27.333 56.667 -68.333 102.167 -123 136.5s-115 51.5 -181 51.5c-94.667 0 -174.667 -32.667 -240 -98s-98 -145.333 -98 -240s32.667 -174.667 98 -240s145.333 -98 240 -98z
M600.001 1060c138.667 0 253.334 -45.333 344.001 -136v112h228v-1500h-228v576c-90.667 -90.667 -205.334 -136 -344.001 -136c-100 0 -190.833 24.667 -272.5 74s-145 115.333 -190 198s-67.5 172.667 -67.5 270s22.5 187.333 67.5 270s108.333 148.667 190 198
s172.5 74 272.5 74z" />
    <glyph glyph-name="r" unicode="r" horiz-adv-x="810" 
d="M642 856c-54.667 0 -105.832 -17.168 -153.499 -51.501s-87.834 -81.166 -120.501 -140.499v-664h-228v1036h228v-132c88 104 189.333 156 304 156c36 0 67.333 -6.66699 94 -20l-18 -202c-34 12 -69.333 18 -106 18z" />
    <glyph glyph-name="s" unicode="s" horiz-adv-x="942" 
d="M70 148l128.001 151.999c33.333 -38.667 73.333 -69.667 120 -93s96 -35 148 -35c54.667 0 98 11.167 130 33.5s48 52.5 48 90.5c0 37.333 -14.833 67.333 -44.5 90s-80.834 41.334 -153.501 56.001c-115.333 22.667 -200.5 61 -255.5 115s-82.5 124.333 -82.5 211
c0 85.333 33.167 155.333 99.5 210s154.5 82 264.5 82c69.333 0 135 -12.833 197 -38.5s115.667 -59.5 161 -101.5l-122 -154c-40.667 32.667 -77.667 57.167 -111 73.5s-69 24.5 -107 24.5c-44.667 0 -81.5 -9 -110.5 -27s-43.5 -42.333 -43.5 -73
c0 -70 61.333 -117.333 184 -142c121.333 -24.667 210.333 -63.667 267 -117s85 -124.333 85 -213c0 -92.667 -35 -168.5 -105 -227.5s-165 -88.5 -285 -88.5c-84 0 -162.333 15.333 -235 46s-131.667 72.667 -177 126z" />
    <glyph glyph-name="t" unicode="t" horiz-adv-x="773" 
d="M444 836v-492.002c0 -59.333 14 -102.166 42 -128.499s75.333 -39.5 142 -39.5c33.333 0 63.333 1.33301 90 4v-196c-29.333 -5.33301 -66 -8 -110 -8c-135.333 0 -234.5 29.333 -297.5 88s-94.5 151.334 -94.5 278.001v494h-172v200h172v280l228 20v-300h262v-200h-262z
" />
    <glyph glyph-name="u" unicode="u" horiz-adv-x="1220" 
d="M852 348l-0.000976562 688.001h228v-1036h-228v120c-39.333 -43.333 -86.5 -78.166 -141.5 -104.499s-111.167 -39.5 -168.5 -39.5c-125.333 0 -227 39.667 -305 119s-117 183.666 -117 312.999v628h228v-616c0 -70.667 22 -128.334 66 -173.001s101.333 -67 172 -67
c49.333 0 98.333 16.5 147 49.5s88.334 72.5 119.001 118.5z" />
    <glyph glyph-name="v" unicode="v" horiz-adv-x="1056" 
d="M1036 1036l-390 -1036h-236l-390 1036h236l272 -740l272 740h236z" />
    <glyph glyph-name="w" unicode="w" horiz-adv-x="1576" 
d="M670 1036h236l206 -738l208 738h236l-324 -1036h-236l-208 744l-208 -744h-236l-324 1036h236l208 -738z" />
    <glyph glyph-name="x" unicode="x" horiz-adv-x="1056" 
d="M784 0l-256 376l-256 -376h-252l364 528l-338 508h252l230 -356l230 356h252l-338 -508l364 -528h-252z" />
    <glyph glyph-name="y" unicode="y" horiz-adv-x="1056" 
d="M234 -464l176 464l-390 1036h236l270 -748l274 748h236l-566 -1500h-236z" />
    <glyph glyph-name="z" unicode="z" horiz-adv-x="1022" 
d="M96 0v200l532 636h-506v200h780v-200l-532 -636h552v-200h-826z" />
    <glyph glyph-name="braceleft" unicode="{" horiz-adv-x="840" 
d="M144 508v204.002c61.333 0 108.666 15.333 141.999 46s50 74.667 50 132v286c0 91.333 33.833 168.166 101.5 230.499s152.5 93.5 254.5 93.5h108v-204h-92c-40 0 -72.667 -12.667 -98 -38s-38 -58 -38 -98v-306c0 -130.667 -61.333 -212 -184 -244
c122.667 -32 184 -113.333 184 -244v-306c0 -40 12.667 -72.667 38 -98s58 -38 98 -38h92v-204h-108c-102 0 -186.833 31.167 -254.5 93.5s-101.5 139.166 -101.5 230.499v286c0 57.333 -16.667 101.333 -50 132s-80.666 46 -141.999 46z" />
    <glyph glyph-name="bar" unicode="|" horiz-adv-x="656" 
d="M220 -280v1780h216v-1780h-216z" />
    <glyph glyph-name="braceright" unicode="}" horiz-adv-x="840" 
d="M696 712v-204.002c-61.333 0 -108.666 -15.333 -141.999 -46s-50 -74.667 -50 -132v-286c0 -91.333 -33.833 -168.166 -101.5 -230.499s-152.5 -93.5 -254.5 -93.5h-108v204h92c40 0 72.667 12.667 98 38s38 58 38 98v306c0 130.667 61.333 212 184 244
c-122.667 32 -184 113.333 -184 244v306c0 40 -12.667 72.667 -38 98s-58 38 -98 38h-92v204h108c102 0 186.833 -31.167 254.5 -93.5s101.5 -139.166 101.5 -230.499v-286c0 -57.333 16.667 -101.333 50 -132s80.666 -46 141.999 -46z" />
    <glyph glyph-name="asciitilde" unicode="~" horiz-adv-x="1160" 
d="M548 554c-22.667 22 -40.167 38.333 -52.5 49s-28.166 21.5 -47.499 32.5s-36.666 16.5 -51.999 16.5c-56.667 0 -94.667 -54 -114 -162l-217 55c18 100 52.5 176.833 103.5 230.5s116.833 80.5 197.5 80.5c46 0 90.5 -9 133.5 -27s80.5 -42.333 112.5 -73
c22.667 -22 40.167 -38.333 52.5 -49s28.166 -21.5 47.499 -32.5s36.666 -16.5 51.999 -16.5c56.667 0 94.667 54 114 162l217 -55c-18 -100 -52.5 -176.833 -103.5 -230.5s-116.833 -80.5 -197.5 -80.5c-46 0 -90.5 9 -133.5 27s-80.5 42.333 -112.5 73z" />
    <glyph glyph-name="uni00A0" unicode="&#xa0;" horiz-adv-x="600" 
 />
    <glyph glyph-name="exclamdown" unicode="&#xa1;" horiz-adv-x="624" 
d="M194 -364v996h236v-996h-236zM164 912c0 42 14.167 77.167 42.5 105.5s63.5 42.5 105.5 42.5s77.167 -14.167 105.5 -42.5s42.5 -63.5 42.5 -105.5s-14.167 -77.167 -42.5 -105.5s-63.5 -42.5 -105.5 -42.5s-77.167 14.167 -105.5 42.5s-42.5 63.5 -42.5 105.5z" />
    <glyph glyph-name="cent" unicode="&#xa2;" horiz-adv-x="1104" 
d="M546 -184v166.998c-139.333 20.667 -253.5 80.834 -342.5 180.501s-133.5 217.834 -133.5 354.501c0 136 44.5 254 133.5 354s203.167 160.333 342.5 181v167h152v-163c122 -10.667 229.333 -53.667 322 -129l-118 -178c-68.667 55.333 -136.667 89 -204 101v-666
c74 12 143.333 47.667 208 107l134 -166c-93.333 -86 -207.333 -135 -342 -147v-163h-152zM302 517.998c0 -78 22.667 -146.833 68 -206.5s104 -99.5 176 -119.5v651c-72 -20 -130.667 -59.667 -176 -119s-68 -128 -68 -206z" />
    <glyph glyph-name="sterling" unicode="&#xa3;" horiz-adv-x="1160" 
d="M308 546l-168 0.000976562v180h127l-13 30c-45.333 95.333 -68 184 -68 266c0 113.333 41.667 208.666 125 285.999s186.333 116 309 116c96.667 0 180.667 -24 252 -72s122 -108 152 -180l-200 -106c-38 100 -106 150 -204 150c-56 0 -102.333 -18.333 -139 -55
s-55 -83 -55 -139c0 -50 20.667 -124 62 -222c9.33301 -22 18.333 -46.667 27 -74h347v-180h-314c1.33301 -20 2 -34.667 2 -44c0 -115.333 -44.667 -213.333 -134 -294h634v-208h-904v204c50.667 34 90.667 76.833 120 128.5s44 108.167 44 169.5
c0 9.33301 -0.666992 24 -2 44z" />
    <glyph glyph-name="currency" unicode="&#xa4;" horiz-adv-x="1264" 
d="M70 234l176 178c-49.333 71.333 -74 151.333 -74 240s24.667 168.667 74 240l-176 178l146 146l188 -186c70 36 146 54 228 54c81.333 0 157.333 -18 228 -54l188 186l146 -146l-176 -178c49.333 -71.333 74 -151.333 74 -240s-24.667 -168.667 -74 -240l176 -178
l-146 -146l-188 186c-68.667 -36 -144.667 -54 -228 -54c-84 0 -160 18 -228 54l-188 -186zM396 652c0 -65.333 22.667 -121 68 -167s101.333 -69 168 -69s122.667 23 168 69s68 101.667 68 167s-22.667 121 -68 167s-101.333 69 -168 69s-122.667 -23 -168 -69
s-68 -101.667 -68 -167z" />
    <glyph glyph-name="yen" unicode="&#xa5;" horiz-adv-x="1292" 
d="M292 1400l354 -596l354 596h252l-393 -664h267v-140h-349l-13 -22v-78h362v-140h-362v-356h-236v356h-362v140h362v78l-13 22h-349v140h266l-392 664h252z" />
    <glyph glyph-name="brokenbar" unicode="&#xa6;" horiz-adv-x="656" 
d="M220 700v800h216v-800h-216zM220 -280v800h216v-800h-216z" />
    <glyph glyph-name="section" unicode="&#xa7;" horiz-adv-x="1018" 
d="M958 528c0 -59.333 -16.5 -113.001 -49.5 -161.001s-78.833 -86 -137.5 -114c71.333 -61.333 107 -137.666 107 -228.999c0 -92 -36.167 -169 -108.5 -231s-162.833 -93 -271.5 -93c-92.667 0 -173.5 23.5 -242.5 70.5s-112.833 110.833 -131.5 191.5l210 46
c8 -35.333 26.5 -63.5 55.5 -84.5s65.167 -31.5 108.5 -31.5c46 0 84.167 12.5 114.5 37.5s45.5 56.5 45.5 94.5c0 26.667 -7.5 50 -22.5 70s-34.167 35.333 -57.5 46l-260 114c-84 36.667 -148 84.834 -192 144.501s-66 125.5 -66 197.5c0 59.333 16.5 112.833 49.5 160.5
s78.833 85.5 137.5 113.5c-71.333 61.333 -107 138 -107 230s36.167 169 108.5 231s162.833 93 271.5 93c92.667 0 173.5 -23.5 242.5 -70.5s112.833 -110.833 131.5 -191.5l-210 -46c-8 35.333 -26.5 63.5 -55.5 84.5s-65.167 31.5 -108.5 31.5
c-46 0 -84.167 -12.5 -114.5 -37.5s-45.5 -56.5 -45.5 -94.5c0 -26.667 7.5 -50 22.5 -70s34.167 -35.333 57.5 -46l260 -114c84 -36.667 148 -84.834 192 -144.501s66 -125.5 66 -197.5zM596 699.999l-145.001 63.002c-49.333 -3.33301 -90.166 -20.833 -122.499 -52.5
s-48.5 -69.834 -48.5 -114.501c0 -72.667 47.333 -130 142 -172l144 -64c50 4 91.167 21.667 123.5 53s48.5 69.666 48.5 114.999c0 72.667 -47.333 130 -142 172z" />
    <glyph glyph-name="dieresis" unicode="&#xa8;" horiz-adv-x="840" 
d="M104 1292c0 37.333 12.667 68.666 38 93.999s56.666 38 93.999 38s68.666 -12.667 93.999 -38s38 -56.666 38 -93.999s-12.667 -68.666 -38 -93.999s-56.666 -38 -93.999 -38s-68.666 12.667 -93.999 38s-38 56.666 -38 93.999zM472 1292
c0 37.333 12.667 68.666 38 93.999s56.666 38 93.999 38s68.666 -12.667 93.999 -38s38 -56.666 38 -93.999s-12.667 -68.666 -38 -93.999s-56.666 -38 -93.999 -38s-68.666 12.667 -93.999 38s-38 56.666 -38 93.999z" />
    <glyph glyph-name="copyright" unicode="&#xa9;" horiz-adv-x="1608" 
d="M842 468c70.667 0 137.332 24.667 199.999 74l68 -148c-75.333 -62.667 -164.666 -94 -267.999 -94c-115.333 0 -212.5 38.333 -291.5 115s-118.5 171 -118.5 283s39.5 206.333 118.5 283s176.167 115 291.5 115c95.333 0 181.333 -28.667 258 -86l-64 -150
c-66 45.333 -130.667 68 -194 68c-64 0 -117.667 -22 -161 -66s-65 -98.667 -65 -164s21.667 -120 65 -164s97 -66 161 -66zM79.998 700c0 99.333 18.833 193.666 56.5 282.999s88.834 166.333 153.501 231s141.667 115.834 231 153.501s183.666 56.5 282.999 56.5
s193.666 -18.833 282.999 -56.5s166.333 -88.834 231 -153.501s115.834 -141.667 153.501 -231s56.5 -183.666 56.5 -282.999s-18.833 -193.666 -56.5 -282.999s-88.834 -166.333 -153.501 -231s-141.667 -115.834 -231 -153.501s-183.666 -56.5 -282.999 -56.5
s-193.666 18.833 -282.999 56.5s-166.333 88.834 -231 153.501s-115.834 141.667 -153.501 231s-56.5 183.666 -56.5 282.999zM211.998 700c0 -110 26.167 -211 78.5 -303s123.833 -164.5 214.5 -217.5s190.334 -79.5 299.001 -79.5s208.334 26.5 299.001 79.5
s162.167 125.5 214.5 217.5s78.5 193 78.5 303s-26.167 211 -78.5 303s-123.833 164.5 -214.5 217.5s-190.334 79.5 -299.001 79.5s-208.334 -26.5 -299.001 -79.5s-162.167 -125.5 -214.5 -217.5s-78.5 -193 -78.5 -303z" />
    <glyph glyph-name="ordfeminine" unicode="&#xaa;" horiz-adv-x="920" 
d="M632 672v72c-46 -58.667 -113.333 -88 -202 -88c-104.667 0 -192.5 36.5 -263.5 109.5s-106.5 163.167 -106.5 270.5s35.5 197.5 106.5 270.5s158.833 109.5 263.5 109.5c88.667 0 156 -29.333 202 -88v72h198v-728h-198zM632 936v200
c-16 28.667 -39.167 52.167 -69.5 70.5s-65.166 27.5 -104.499 27.5c-56.667 0 -104.167 -19 -142.5 -57s-57.5 -85 -57.5 -141s19.167 -103 57.5 -141s85.833 -57 142.5 -57c39.333 0 74.166 9.16699 104.499 27.5s53.5 41.833 69.5 70.5z" />
    <glyph glyph-name="guillemotleft" unicode="&#xab;" horiz-adv-x="1284" 
d="M104 564v120l568 350v-210l-336 -200l336 -200v-210zM594 564v120l568 350v-210l-336 -200l336 -200v-210z" />
    <glyph glyph-name="logicalnot" unicode="&#xac;" horiz-adv-x="1160" 
d="M812 230v336h-692v196h920v-532h-228z" />
    <glyph glyph-name="uni00AD" unicode="&#xad;" horiz-adv-x="812" 
d="M692 556h-572v216h572v-216z" />
    <glyph glyph-name="registered" unicode="&#xae;" horiz-adv-x="1608" 
d="M80 700c0 99.333 18.833 193.666 56.5 282.999s88.834 166.333 153.501 231s141.667 115.834 231 153.501s183.666 56.5 282.999 56.5s193.666 -18.833 282.999 -56.5s166.333 -88.834 231 -153.501s115.834 -141.667 153.501 -231s56.5 -183.666 56.5 -282.999
s-18.833 -193.666 -56.5 -282.999s-88.834 -166.333 -153.501 -231s-141.667 -115.834 -231 -153.501s-183.666 -56.5 -282.999 -56.5s-193.666 18.833 -282.999 56.5s-166.333 88.834 -231 153.501s-115.834 141.667 -153.501 231s-56.5 183.666 -56.5 282.999zM212 700
c0 -110 26.167 -211 78.5 -303s123.833 -164.5 214.5 -217.5s190.334 -79.5 299.001 -79.5s208.334 26.5 299.001 79.5s162.167 125.5 214.5 217.5s78.5 193 78.5 303s-26.167 211 -78.5 303s-123.833 164.5 -214.5 217.5s-190.334 79.5 -299.001 79.5
s-208.334 -26.5 -299.001 -79.5s-162.167 -125.5 -214.5 -217.5s-78.5 -193 -78.5 -303zM548 1084h294c78.667 0 143.667 -24 195 -72s77 -108 77 -180c0 -54 -15 -102 -45 -144s-70.333 -72 -121 -90l182 -284h-188l-169 266h-53v-266h-172v770zM826 924h-106v-200h106
c34.667 0 62.667 9.33301 84 28s32 42.667 32 72s-10.667 53.333 -32 72s-49.333 28 -84 28z" />
    <glyph glyph-name="macron" unicode="&#xaf;" horiz-adv-x="840" 
d="M120 1200v176h600v-176h-600z" />
    <glyph glyph-name="degree" unicode="&#xb0;" 
d="M286 1154c0 -32 10.833 -59 32.5 -81s48.834 -33 81.501 -33s59.834 11 81.501 33s32.5 49 32.5 81s-10.833 59 -32.5 81s-48.834 33 -81.501 33s-59.834 -11 -81.501 -33s-32.5 -49 -32.5 -81zM120 1154c0 76 27 140 81 192s120.333 78 199 78s145 -26 199 -78
s81 -116 81 -192s-27 -140 -81 -192s-120.333 -78 -199 -78s-145 26 -199 78s-81 116 -81 192z" />
    <glyph glyph-name="plusminus" unicode="&#xb1;" horiz-adv-x="1160" 
d="M466 300v346h-346v196h346v346h228v-346h346v-196h-346v-346h-228zM1040 0h-920v196h920v-196z" />
    <glyph glyph-name="twosuperior" unicode="&#xb2;" 
d="M564 838l-206 -221.999h340v-164h-606v146l316 342c36 38.667 61.333 72.667 76 102s22 60 22 92c0 38 -11 68.5 -33 91.5s-51 34.5 -87 34.5c-33.333 0 -61.166 -10.333 -83.499 -31s-41.833 -54.334 -58.5 -101.001l-173 67c22 74.667 60.167 131.5 114.5 170.5
s121.166 58.5 200.499 58.5c94 0 171.167 -26.333 231.5 -79s90.5 -123 90.5 -211c0 -53.333 -11 -102 -33 -146s-59 -94 -111 -150z" />
    <glyph glyph-name="threesuperior" unicode="&#xb3;" 
d="M520 754c0 44.667 -14.833 82.501 -44.5 113.501s-66.834 46.5 -111.501 46.5c-14 0 -32 -3.33301 -54 -10l-76 94l194 236h-324v166h572v-152l-176 -210c68 -18 122 -54.5 162 -109.5s60 -118.5 60 -190.5c0 -80.667 -32.667 -152.5 -98 -215.5s-150 -94.5 -254 -94.5
c-68 0 -129.667 15.5 -185 46.5s-100.333 74.167 -135 129.5l136 114c58 -84 117.333 -126 178 -126c44.667 0 81.834 15.667 111.501 47s44.5 69.666 44.5 114.999z" />
    <glyph glyph-name="acute" unicode="&#xb4;" horiz-adv-x="840" 
d="M229 1118l272 342h229l-279 -342h-222z" />
    <glyph glyph-name="mu" unicode="&#xb5;" horiz-adv-x="1240" 
d="M140 -464l-0.000976562 1500h228v-696c14.667 -47.333 44.334 -85.833 89.001 -115.5s94.334 -44.5 149.001 -44.5c49.333 0 98.333 16.5 147 49.5s88.334 72.5 119.001 118.5v688h228v-1036h-228v120c-36 -43.333 -79.667 -78.166 -131 -104.499
s-104.333 -39.5 -159 -39.5c-40.667 0 -79.834 8.83301 -117.501 26.5s-69.834 41.5 -96.501 71.5v-538h-228z" />
    <glyph glyph-name="paragraph" unicode="&#xb6;" horiz-adv-x="1172" 
d="M574 536h-50c-125.333 0 -230.666 41.5 -315.999 124.5s-128 185.5 -128 307.5s42.667 224.5 128 307.5s190.666 124.5 315.999 124.5h478v-1662h-168v1504h-92v-1504h-168v798z" />
    <glyph glyph-name="periodcentered" unicode="&#xb7;" horiz-adv-x="600" 
d="M152 650c0 42 14.167 77.167 42.5 105.5s63.5 42.5 105.5 42.5s77.167 -14.167 105.5 -42.5s42.5 -63.5 42.5 -105.5s-14.167 -77.167 -42.5 -105.5s-63.5 -42.5 -105.5 -42.5s-77.167 14.167 -105.5 42.5s-42.5 63.5 -42.5 105.5z" />
    <glyph glyph-name="cedilla" unicode="&#xb8;" horiz-adv-x="840" 
d="M364 -216c-16 0 -34.667 -1.33301 -56 -4l-40 44l94 176h174l-68 -104c52 -14 93.333 -39.333 124 -76s46 -78 46 -124c0 -62 -24.833 -113.5 -74.5 -154.5s-112.167 -61.5 -187.5 -61.5c-74 0 -136 20 -186 60l76 108c28 -21.333 60.667 -32 98 -32
c29.333 0 53.333 8 72 24s28 36 28 60s-9.33301 44 -28 60s-42.667 24 -72 24z" />
    <glyph glyph-name="onesuperior" unicode="&#xb9;" 
d="M380 1400h172v-948h-202v746l-144 -78l-78 148z" />
    <glyph glyph-name="ordmasculine" unicode="&#xba;" horiz-adv-x="920" 
d="M60 1036c0 106 38.667 195.833 116 269.5s172 110.5 284 110.5s206.667 -36.833 284 -110.5s116 -163.5 116 -269.5s-38.667 -195.833 -116 -269.5s-172 -110.5 -284 -110.5s-206.667 36.833 -284 110.5s-116 163.5 -116 269.5zM262 1036
c0 -57.333 18.667 -104.666 56 -141.999s84.666 -56 141.999 -56s104.666 18.667 141.999 56s56 84.666 56 141.999s-18.667 104.666 -56 141.999s-84.666 56 -141.999 56s-104.666 -18.667 -141.999 -56s-56 -84.666 -56 -141.999z" />
    <glyph glyph-name="guillemotright" unicode="&#xbb;" horiz-adv-x="1284" 
d="M1180 684v-120l-568 -350v210l336 200l-336 200v210zM690 684v-120l-568 -350v210l336 200l-336 200v210z" />
    <glyph glyph-name="onequarter" unicode="&#xbc;" horiz-adv-x="1930" 
d="M380 1400h172v-948h-202v746l-144 -78l-78 148zM1166 174v156l420 618h192v-602h98v-172h-98v-174h-202v174h-410zM1386 344h190v290zM526 0l684 1400h196l-682 -1400h-198z" />
    <glyph glyph-name="onehalf" unicode="&#xbd;" horiz-adv-x="1930" 
d="M1694 386l-206 -221.999h340v-164h-606v146l316 342c36 38.667 61.333 72.667 76 102s22 60 22 92c0 38 -11 68.5 -33 91.5s-51 34.5 -87 34.5c-33.333 0 -61.166 -10.333 -83.499 -31s-41.833 -54.334 -58.5 -101.001l-173 67c22 74.667 60.167 131.5 114.5 170.5
s121.166 58.5 200.499 58.5c94 0 171.167 -26.333 231.5 -79s90.5 -123 90.5 -211c0 -53.333 -11 -102 -33 -146s-59 -94 -111 -150zM380 1400h172v-948h-202v746l-144 -78l-78 148zM526 0.000976562l684 1400h196l-682 -1400h-198z" />
    <glyph glyph-name="threequarters" unicode="&#xbe;" horiz-adv-x="1930" 
d="M1166 174v156l420 618h192v-602h98v-172h-98v-174h-202v174h-410zM1386 344h190v290zM520 754c0 44.667 -14.833 82.501 -44.5 113.501s-66.834 46.5 -111.501 46.5c-14 0 -32 -3.33301 -54 -10l-76 94l194 236h-324v166h572v-152l-176 -210c68 -18 122 -54.5 162 -109.5
s60 -118.5 60 -190.5c0 -80.667 -32.667 -152.5 -98 -215.5s-150 -94.5 -254 -94.5c-68 0 -129.667 15.5 -185 46.5s-100.333 74.167 -135 129.5l136 114c58 -84 117.333 -126 178 -126c44.667 0 81.834 15.667 111.501 47s44.5 69.666 44.5 114.999zM526 0.000976562
l684 1400h196l-682 -1400h-198z" />
    <glyph glyph-name="questiondown" unicode="&#xbf;" horiz-adv-x="1104" 
d="M740 632v-362c-118 0 -210.833 -23.833 -278.5 -71.5s-101.5 -108.5 -101.5 -182.5c0 -56.667 25 -103.5 75 -140.5s115.667 -55.5 197 -55.5c90 0 180.667 38.667 272 116l124 -169c-122.667 -103.333 -264 -155 -424 -155c-142.667 0 -259 40.333 -349 121
s-135 175.667 -135 285c0 96 34.5 180.667 103.5 254s162.5 121.333 280.5 144v216h236zM770 912c0 -42 -14.167 -77.167 -42.5 -105.5s-63.5 -42.5 -105.5 -42.5s-77.167 14.167 -105.5 42.5s-42.5 63.5 -42.5 105.5s14.167 77.167 42.5 105.5s63.5 42.5 105.5 42.5
s77.167 -14.167 105.5 -42.5s42.5 -63.5 42.5 -105.5z" />
    <glyph glyph-name="Agrave" unicode="&#xc0;" horiz-adv-x="1376" 
d="M820 1400l516 -1400h-256l-116 338h-552l-116 -338h-256l516 1400h264zM688 1142l-206 -600h412zM585 1850l272 -342h-222l-279 342h229z" />
    <glyph glyph-name="Aacute" unicode="&#xc1;" horiz-adv-x="1376" 
d="M820 1400l516 -1400h-256l-116 338h-552l-116 -338h-256l516 1400h264zM688 1142l-206 -600h412zM516 1508l272 342h229l-279 -342h-222z" />
    <glyph glyph-name="Acircumflex" unicode="&#xc2;" horiz-adv-x="1376" 
d="M820 1400l516 -1400h-256l-116 338h-552l-116 -338h-256l516 1400h264zM688 1142l-206 -600h412zM766 1850l292 -342h-222l-148 170l-148 -170h-222l292 342h156z" />
    <glyph glyph-name="Atilde" unicode="&#xc3;" horiz-adv-x="1376" 
d="M820 1400l516 -1400h-256l-116 338h-552l-116 -338h-256l516 1400h264zM688 1142l-206 -600h412zM702 1566c-48 26.667 -82.667 40 -104 40c-31.333 0 -52.666 -25.667 -63.999 -77l-193 39c14.667 73.333 37.667 128 69 164s72.666 54 123.999 54
c40 0 86.667 -15.333 140 -46c48 -26.667 82.667 -40 104 -40c31.333 0 52.666 25.667 63.999 77l193 -39c-14.667 -73.333 -37.667 -128 -69 -164s-72.666 -54 -123.999 -54c-40 0 -86.667 15.333 -140 46z" />
    <glyph glyph-name="Adieresis" unicode="&#xc4;" horiz-adv-x="1376" 
d="M820 1400l516 -1400h-256l-116 338h-552l-116 -338h-256l516 1400h264zM688 1142l-206 -600h412zM372 1664c0 37.333 12.667 68.666 38 93.999s56.666 38 93.999 38s68.666 -12.667 93.999 -38s38 -56.666 38 -93.999s-12.667 -68.666 -38 -93.999
s-56.666 -38 -93.999 -38s-68.666 12.667 -93.999 38s-38 56.666 -38 93.999zM740 1664c0 37.333 12.667 68.666 38 93.999s56.666 38 93.999 38s68.666 -12.667 93.999 -38s38 -56.666 38 -93.999s-12.667 -68.666 -38 -93.999s-56.666 -38 -93.999 -38
s-68.666 12.667 -93.999 38s-38 56.666 -38 93.999z" />
    <glyph glyph-name="Aring" unicode="&#xc5;" horiz-adv-x="1376" 
d="M820 1400l516 -1400h-256l-116 338h-552l-116 -338h-256l516 1400h264zM688 1142l-206 -600h412zM616 1686c0 -20 6.83301 -36.667 20.5 -50s30.834 -20 51.501 -20s37.834 6.66699 51.501 20s20.5 30 20.5 50s-6.83301 36.667 -20.5 50s-30.834 20 -51.501 20
s-37.834 -6.66699 -51.501 -20s-20.5 -30 -20.5 -50zM472 1686c0 56 20.5 103 61.5 141s92.5 57 154.5 57s113.5 -19 154.5 -57s61.5 -85 61.5 -141s-20.5 -103 -61.5 -141s-92.5 -57 -154.5 -57s-113.5 19 -154.5 57s-61.5 85 -61.5 141z" />
    <glyph glyph-name="AE" unicode="&#xc6;" horiz-adv-x="1850" 
d="M268 0h-268l792 1400h930v-204h-596v-390h548v-204h-548v-398h614v-204h-850v338h-437zM890 1132l-325 -590h325v590z" />
    <glyph glyph-name="Ccedilla" unicode="&#xc7;" horiz-adv-x="1382" 
d="M758 -216c-16 0 -34.6689 -1.33691 -56.002 -4.00391l-40 44l83 156c-126 12 -239.667 50.833 -341 116.5s-180.666 151.334 -237.999 257.001s-86 221.167 -86 346.5c0 134 32.667 256.333 98 367s155 197.834 269 261.501s240.333 95.5 379 95.5
c176 0 332.667 -52 470 -156l-118 -178c-62.667 41.333 -120.667 72.666 -174 93.999s-112.666 32 -177.999 32c-141.333 0 -261 -49.667 -359 -149s-147 -221.666 -147 -366.999s49 -267.666 147 -366.999s217.667 -149 359 -149c127.333 0 248 45.333 362 136l124 -176
c-112 -91.333 -243.667 -145.666 -395 -162.999l-55 -85c52 -14 93.333 -39.333 124 -76s46 -78 46 -124c0 -62 -24.833 -113.5 -74.5 -154.5s-112.167 -61.5 -187.5 -61.5c-74 0 -136 20 -186 60l76 108c28 -21.333 60.667 -32 98 -32c29.333 0 53.333 8 72 24s28 36 28 60
s-9.33301 44 -28 60s-42.667 24 -72 24z" />
    <glyph glyph-name="Egrave" unicode="&#xc8;" horiz-adv-x="1140" 
d="M160 0v1400h852v-204h-616v-390h568v-204h-568v-398h634v-204h-870zM463 1850l272 -342h-222l-279 342h229z" />
    <glyph glyph-name="Eacute" unicode="&#xc9;" horiz-adv-x="1140" 
d="M160 0v1400h852v-204h-616v-390h568v-204h-568v-398h634v-204h-870zM446 1508l272 342h229l-279 -342h-222z" />
    <glyph glyph-name="Ecircumflex" unicode="&#xca;" horiz-adv-x="1140" 
d="M160 0v1400h852v-204h-616v-390h568v-204h-568v-398h634v-204h-870zM666 1850l292 -342h-222l-148 170l-148 -170h-222l292 342h156z" />
    <glyph glyph-name="Edieresis" unicode="&#xcb;" horiz-adv-x="1140" 
d="M160 0v1400h852v-204h-616v-390h568v-204h-568v-398h634v-204h-870zM272 1664c0 37.333 12.667 68.666 38 93.999s56.666 38 93.999 38s68.666 -12.667 93.999 -38s38 -56.666 38 -93.999s-12.667 -68.666 -38 -93.999s-56.666 -38 -93.999 -38
s-68.666 12.667 -93.999 38s-38 56.666 -38 93.999zM640 1664c0 37.333 12.667 68.666 38 93.999s56.666 38 93.999 38s68.666 -12.667 93.999 -38s38 -56.666 38 -93.999s-12.667 -68.666 -38 -93.999s-56.666 -38 -93.999 -38s-68.666 12.667 -93.999 38
s-38 56.666 -38 93.999z" />
    <glyph glyph-name="Igrave" unicode="&#xcc;" horiz-adv-x="576" 
d="M170 1400h236v-1400h-236v1400zM183 1850l272 -342h-222l-279 342h229z" />
    <glyph glyph-name="Iacute" unicode="&#xcd;" horiz-adv-x="576" 
d="M170 1400h236v-1400h-236v1400zM120 1508l272 342h229l-279 -342h-222z" />
    <glyph glyph-name="Icircumflex" unicode="&#xce;" horiz-adv-x="576" 
d="M170 1400h236v-1400h-236v1400zM366 1850l292 -342h-222l-148 170l-148 -170h-222l292 342h156z" />
    <glyph glyph-name="Idieresis" unicode="&#xcf;" horiz-adv-x="576" 
d="M170 1400h236v-1400h-236v1400zM-28 1664c0 37.333 12.667 68.666 38 93.999s56.666 38 93.999 38s68.666 -12.667 93.999 -38s38 -56.666 38 -93.999s-12.667 -68.666 -38 -93.999s-56.666 -38 -93.999 -38s-68.666 12.667 -93.999 38s-38 56.666 -38 93.999zM340 1664
c0 37.333 12.667 68.666 38 93.999s56.666 38 93.999 38s68.666 -12.667 93.999 -38s38 -56.666 38 -93.999s-12.667 -68.666 -38 -93.999s-56.666 -38 -93.999 -38s-68.666 12.667 -93.999 38s-38 56.666 -38 93.999z" />
    <glyph glyph-name="Eth" unicode="&#xd0;" horiz-adv-x="1464" 
d="M190 1400h492c215.333 0 386.166 -62.5 512.499 -187.5s189.5 -295.833 189.5 -512.5s-63.167 -387.5 -189.5 -512.5s-297.166 -187.5 -512.499 -187.5h-492v614h-180v172h180v614zM710 614h-284v-406h256c141.333 0 253.666 41 336.999 123s125 205 125 369
s-41.667 287 -125 369s-195.666 123 -336.999 123h-256v-406h284v-172z" />
    <glyph glyph-name="Ntilde" unicode="&#xd1;" horiz-adv-x="1408" 
d="M718 1566c-48 26.667 -82.667 40 -104 40c-31.333 0 -52.666 -25.667 -63.999 -77l-193 39c14.667 73.333 37.667 128 69 164s72.666 54 123.999 54c40 0 86.667 -15.333 140 -46c48 -26.667 82.667 -40 104 -40c31.333 0 52.666 25.667 63.999 77l193 -39
c-14.667 -73.333 -37.667 -128 -69 -164s-72.666 -54 -123.999 -54c-40 0 -86.667 15.333 -140 46zM160 0v1400h228l632 -992v992h228v-1400h-228l-632 992v-992h-228z" />
    <glyph glyph-name="Ograve" unicode="&#xd2;" horiz-adv-x="1652" 
d="M826 184c141.333 0 261 49.667 359 149s147 221.666 147 366.999s-49 267.666 -147 366.999s-217.667 149 -359 149s-261 -49.667 -359 -149s-147 -221.666 -147 -366.999s49 -267.666 147 -366.999s217.667 -149 359 -149zM826 1424c138.667 0 265 -31.833 379 -95.5
s203.667 -150.834 269 -261.501s98 -233 98 -367s-32.667 -256.333 -98 -367s-155 -197.834 -269 -261.501s-240.333 -95.5 -379 -95.5s-265 31.833 -379 95.5s-203.667 150.834 -269 261.501s-98 233 -98 367s32.667 256.333 98 367s155 197.834 269 261.501
s240.333 95.5 379 95.5zM721 1850l272 -342h-222l-279 342h229z" />
    <glyph glyph-name="Oacute" unicode="&#xd3;" horiz-adv-x="1652" 
d="M826 184c141.333 0 261 49.667 359 149s147 221.666 147 366.999s-49 267.666 -147 366.999s-217.667 149 -359 149s-261 -49.667 -359 -149s-147 -221.666 -147 -366.999s49 -267.666 147 -366.999s217.667 -149 359 -149zM826 1424c138.667 0 265 -31.833 379 -95.5
s203.667 -150.834 269 -261.501s98 -233 98 -367s-32.667 -256.333 -98 -367s-155 -197.834 -269 -261.501s-240.333 -95.5 -379 -95.5s-265 31.833 -379 95.5s-203.667 150.834 -269 261.501s-98 233 -98 367s32.667 256.333 98 367s155 197.834 269 261.501
s240.333 95.5 379 95.5zM659 1508l272 342h229l-279 -342h-222z" />
    <glyph glyph-name="Ocircumflex" unicode="&#xd4;" horiz-adv-x="1652" 
d="M826 184c141.333 0 261 49.667 359 149s147 221.666 147 366.999s-49 267.666 -147 366.999s-217.667 149 -359 149s-261 -49.667 -359 -149s-147 -221.666 -147 -366.999s49 -267.666 147 -366.999s217.667 -149 359 -149zM826 1424c138.667 0 265 -31.833 379 -95.5
s203.667 -150.834 269 -261.501s98 -233 98 -367s-32.667 -256.333 -98 -367s-155 -197.834 -269 -261.501s-240.333 -95.5 -379 -95.5s-265 31.833 -379 95.5s-203.667 150.834 -269 261.501s-98 233 -98 367s32.667 256.333 98 367s155 197.834 269 261.501
s240.333 95.5 379 95.5zM904 1850l292 -342h-222l-148 170l-148 -170h-222l292 342h156z" />
    <glyph glyph-name="Otilde" unicode="&#xd5;" horiz-adv-x="1652" 
d="M826 184c141.333 0 261 49.667 359 149s147 221.666 147 366.999s-49 267.666 -147 366.999s-217.667 149 -359 149s-261 -49.667 -359 -149s-147 -221.666 -147 -366.999s49 -267.666 147 -366.999s217.667 -149 359 -149zM826 1424c138.667 0 265 -31.833 379 -95.5
s203.667 -150.834 269 -261.501s98 -233 98 -367s-32.667 -256.333 -98 -367s-155 -197.834 -269 -261.501s-240.333 -95.5 -379 -95.5s-265 31.833 -379 95.5s-203.667 150.834 -269 261.501s-98 233 -98 367s32.667 256.333 98 367s155 197.834 269 261.501
s240.333 95.5 379 95.5zM840 1566c-48 26.667 -82.667 40 -104 40c-31.333 0 -52.666 -25.667 -63.999 -77l-193 39c14.667 73.333 37.667 128 69 164s72.666 54 123.999 54c40 0 86.667 -15.333 140 -46c48 -26.667 82.667 -40 104 -40c31.333 0 52.666 25.667 63.999 77
l193 -39c-14.667 -73.333 -37.667 -128 -69 -164s-72.666 -54 -123.999 -54c-40 0 -86.667 15.333 -140 46z" />
    <glyph glyph-name="Odieresis" unicode="&#xd6;" horiz-adv-x="1652" 
d="M826 184c141.333 0 261 49.667 359 149s147 221.666 147 366.999s-49 267.666 -147 366.999s-217.667 149 -359 149s-261 -49.667 -359 -149s-147 -221.666 -147 -366.999s49 -267.666 147 -366.999s217.667 -149 359 -149zM826 1424c138.667 0 265 -31.833 379 -95.5
s203.667 -150.834 269 -261.501s98 -233 98 -367s-32.667 -256.333 -98 -367s-155 -197.834 -269 -261.501s-240.333 -95.5 -379 -95.5s-265 31.833 -379 95.5s-203.667 150.834 -269 261.501s-98 233 -98 367s32.667 256.333 98 367s155 197.834 269 261.501
s240.333 95.5 379 95.5zM510 1664c0 37.333 12.667 68.666 38 93.999s56.666 38 93.999 38s68.666 -12.667 93.999 -38s38 -56.666 38 -93.999s-12.667 -68.666 -38 -93.999s-56.666 -38 -93.999 -38s-68.666 12.667 -93.999 38s-38 56.666 -38 93.999zM878 1664
c0 37.333 12.667 68.666 38 93.999s56.666 38 93.999 38s68.666 -12.667 93.999 -38s38 -56.666 38 -93.999s-12.667 -68.666 -38 -93.999s-56.666 -38 -93.999 -38s-68.666 12.667 -93.999 38s-38 56.666 -38 93.999z" />
    <glyph glyph-name="multiply" unicode="&#xd7;" horiz-adv-x="1160" 
d="M294 1098l280 -282l292 292l154 -154l-292 -292l292 -292l-154 -154l-292 292l-282 -282l-154 154l282 282l-280 282z" />
    <glyph glyph-name="Oslash" unicode="&#xd8;" horiz-adv-x="1652" 
d="M826 1424c136.667 0 262.667 -32 378 -96l104 132h206l-178 -226c74.667 -66.667 132.667 -146 174 -238s62 -190.667 62 -296c0 -134 -32.667 -256.333 -98 -367s-155 -197.834 -269 -261.501s-240.333 -95.5 -379 -95.5c-146.667 0 -279.334 35.333 -398.001 106
l-112 -142h-206l189 240c-69.333 66.667 -123.166 144.5 -161.499 233.5s-57.5 184.5 -57.5 286.5c0 134 32.667 256.333 98 367s155 197.834 269 261.501s240.333 95.5 379 95.5zM826 184c141.333 0 261 49.667 359 149s147 221.666 147 366.999
c0 138.667 -45.667 257.334 -137 356.001l-630 -801c80 -47.333 167 -71 261 -71zM320 700c0 -131.333 40.333 -244.334 121 -339.001l626 794c-74 40.667 -154.333 61 -241 61c-141.333 0 -261 -49.667 -359 -149s-147 -221.666 -147 -366.999z" />
    <glyph glyph-name="Ugrave" unicode="&#xd9;" horiz-adv-x="1336" 
d="M553 1850l272 -342h-222l-279 342h229zM1186 1400l-0.00195312 -904c0 -102.667 -23.333 -193.834 -70 -273.501s-109.167 -140.334 -187.5 -182.001s-165.166 -62.5 -260.499 -62.5s-182.166 20.833 -260.499 62.5s-140.833 102.334 -187.5 182.001
s-70 170.834 -70 273.501v904h236v-932c0 -84 27 -152 81 -204s121 -78 201 -78s147 26 201 78s81 120 81 204v932h236z" />
    <glyph glyph-name="Uacute" unicode="&#xda;" horiz-adv-x="1336" 
d="M516 1508l272 342h229l-279 -342h-222zM1186 1400l-0.00195312 -904c0 -102.667 -23.333 -193.834 -70 -273.501s-109.167 -140.334 -187.5 -182.001s-165.166 -62.5 -260.499 -62.5s-182.166 20.833 -260.499 62.5s-140.833 102.334 -187.5 182.001
s-70 170.834 -70 273.501v904h236v-932c0 -84 27 -152 81 -204s121 -78 201 -78s147 26 201 78s81 120 81 204v932h236z" />
    <glyph glyph-name="Ucircumflex" unicode="&#xdb;" horiz-adv-x="1336" 
d="M746 1850l292 -342h-222l-148 170l-148 -170h-222l292 342h156zM1186 1400l-0.00195312 -904c0 -102.667 -23.333 -193.834 -70 -273.501s-109.167 -140.334 -187.5 -182.001s-165.166 -62.5 -260.499 -62.5s-182.166 20.833 -260.499 62.5
s-140.833 102.334 -187.5 182.001s-70 170.834 -70 273.501v904h236v-932c0 -84 27 -152 81 -204s121 -78 201 -78s147 26 201 78s81 120 81 204v932h236z" />
    <glyph glyph-name="Udieresis" unicode="&#xdc;" horiz-adv-x="1336" 
d="M352 1664c0 37.333 12.667 68.666 38 93.999s56.666 38 93.999 38s68.666 -12.667 93.999 -38s38 -56.666 38 -93.999s-12.667 -68.666 -38 -93.999s-56.666 -38 -93.999 -38s-68.666 12.667 -93.999 38s-38 56.666 -38 93.999zM720 1664
c0 37.333 12.667 68.666 38 93.999s56.666 38 93.999 38s68.666 -12.667 93.999 -38s38 -56.666 38 -93.999s-12.667 -68.666 -38 -93.999s-56.666 -38 -93.999 -38s-68.666 12.667 -93.999 38s-38 56.666 -38 93.999zM1186 1400l-0.00195312 -904
c0 -102.667 -23.333 -193.834 -70 -273.501s-109.167 -140.334 -187.5 -182.001s-165.166 -62.5 -260.499 -62.5s-182.166 20.833 -260.499 62.5s-140.833 102.334 -187.5 182.001s-70 170.834 -70 273.501v904h236v-932c0 -84 27 -152 81 -204s121 -78 201 -78
s147 26 201 78s81 120 81 204v932h236z" />
    <glyph glyph-name="Yacute" unicode="&#xdd;" horiz-adv-x="1292" 
d="M292 1400l354 -596l354 596h252l-488 -826v-574h-236v574l-488 826h252zM495 1508l272 342h229l-279 -342h-222z" />
    <glyph glyph-name="Thorn" unicode="&#xde;" horiz-adv-x="1186" 
d="M632 254h-236v-254h-236v1400h236v-254h236c150 0 268.167 -40.333 354.5 -121s129.5 -189 129.5 -325s-43.167 -244.333 -129.5 -325s-204.5 -121 -354.5 -121zM876 700c0 75.333 -21.833 134.5 -65.5 177.5s-106.5 64.5 -188.5 64.5h-226v-484h226
c82 0 144.833 21.5 188.5 64.5s65.5 102.167 65.5 177.5z" />
    <glyph glyph-name="germandbls" unicode="&#xdf;" horiz-adv-x="1226" 
d="M150 0v1024c0 120 39.333 216.667 118 290s178.667 110 300 110c118.667 0 218.667 -35.167 300 -105.5s122 -156.5 122 -258.5c0 -65.333 -18.667 -124.666 -56 -177.999s-90 -93.333 -158 -120c106.667 -17.333 195 -61.166 265 -131.499s105 -153.833 105 -250.5
c0 -114 -44.333 -209.833 -133 -287.5s-199 -116.5 -331 -116.5c-85.333 0 -160 16 -224 48l56 206c50 -33.333 106 -50 168 -50c64 0 117.333 19 160 57s64 85.667 64 143c0 79.333 -35.167 143.333 -105.5 192s-163.833 74.667 -280.5 78v196
c68.667 7.33301 124.167 28.833 166.5 64.5s63.5 82.167 63.5 139.5c0 48 -17.5 88.333 -52.5 121s-78.167 49 -129.5 49c-52.667 0 -96.167 -17.167 -130.5 -51.5s-51.5 -79.166 -51.5 -134.499v-1034h-236z" />
    <glyph glyph-name="agrave" unicode="&#xe0;" horiz-adv-x="1312" 
d="M640 180c66.667 0 127.168 16.832 181.501 50.499s95.166 78.834 122.499 135.501v302c-27.333 56.667 -68.333 102.167 -123 136.5s-115 51.5 -181 51.5c-94.667 0 -174.667 -32.667 -240 -98s-98 -145.333 -98 -240s32.667 -174.667 98 -240s145.333 -98 240 -98z
M600.001 1060c138.667 0 253.334 -45.333 344.001 -136v112h228v-1036h-228v112c-90.667 -90.667 -205.334 -136 -344.001 -136c-100 0 -190.833 24.667 -272.5 74s-145 115.333 -190 198s-67.5 172.667 -67.5 270s22.5 187.333 67.5 270s108.333 148.667 190 198
s172.5 74 272.5 74zM523.001 1526l272 -342h-222l-279 342h229z" />
    <glyph glyph-name="aacute" unicode="&#xe1;" horiz-adv-x="1312" 
d="M640 180c66.667 0 127.168 16.832 181.501 50.499s95.166 78.834 122.499 135.501v302c-27.333 56.667 -68.333 102.167 -123 136.5s-115 51.5 -181 51.5c-94.667 0 -174.667 -32.667 -240 -98s-98 -145.333 -98 -240s32.667 -174.667 98 -240s145.333 -98 240 -98z
M600.001 1060c138.667 0 253.334 -45.333 344.001 -136v112h228v-1036h-228v112c-90.667 -90.667 -205.334 -136 -344.001 -136c-100 0 -190.833 24.667 -272.5 74s-145 115.333 -190 198s-67.5 172.667 -67.5 270s22.5 187.333 67.5 270s108.333 148.667 190 198
s172.5 74 272.5 74zM445.001 1184l272 342h229l-279 -342h-222z" />
    <glyph glyph-name="acircumflex" unicode="&#xe2;" horiz-adv-x="1312" 
d="M640 180c66.667 0 127.168 16.832 181.501 50.499s95.166 78.834 122.499 135.501v302c-27.333 56.667 -68.333 102.167 -123 136.5s-115 51.5 -181 51.5c-94.667 0 -174.667 -32.667 -240 -98s-98 -145.333 -98 -240s32.667 -174.667 98 -240s145.333 -98 240 -98z
M600.001 1060c138.667 0 253.334 -45.333 344.001 -136v112h228v-1036h-228v112c-90.667 -90.667 -205.334 -136 -344.001 -136c-100 0 -190.833 24.667 -272.5 74s-145 115.333 -190 198s-67.5 172.667 -67.5 270s22.5 187.333 67.5 270s108.333 148.667 190 198
s172.5 74 272.5 74zM718.001 1526l292 -342h-222l-148 170l-148 -170h-222l292 342h156z" />
    <glyph glyph-name="atilde" unicode="&#xe3;" horiz-adv-x="1312" 
d="M640 180c66.667 0 127.168 16.832 181.501 50.499s95.166 78.834 122.499 135.501v302c-27.333 56.667 -68.333 102.167 -123 136.5s-115 51.5 -181 51.5c-94.667 0 -174.667 -32.667 -240 -98s-98 -145.333 -98 -240s32.667 -174.667 98 -240s145.333 -98 240 -98z
M600.001 1060c138.667 0 253.334 -45.333 344.001 -136v112h228v-1036h-228v112c-90.667 -90.667 -205.334 -136 -344.001 -136c-100 0 -190.833 24.667 -272.5 74s-145 115.333 -190 198s-67.5 172.667 -67.5 270s22.5 187.333 67.5 270s108.333 148.667 190 198
s172.5 74 272.5 74zM634.001 1242c-48 26.667 -82.667 40 -104 40c-31.333 0 -52.666 -25.667 -63.999 -77l-193 39c14.667 73.333 37.667 128 69 164s72.666 54 123.999 54c40 0 86.667 -15.333 140 -46c48 -26.667 82.667 -40 104 -40c31.333 0 52.666 25.667 63.999 77
l193 -39c-14.667 -73.333 -37.667 -128 -69 -164s-72.666 -54 -123.999 -54c-40 0 -86.667 15.333 -140 46z" />
    <glyph glyph-name="adieresis" unicode="&#xe4;" horiz-adv-x="1312" 
d="M640 180c66.667 0 127.168 16.832 181.501 50.499s95.166 78.834 122.499 135.501v302c-27.333 56.667 -68.333 102.167 -123 136.5s-115 51.5 -181 51.5c-94.667 0 -174.667 -32.667 -240 -98s-98 -145.333 -98 -240s32.667 -174.667 98 -240s145.333 -98 240 -98z
M600.001 1060c138.667 0 253.334 -45.333 344.001 -136v112h228v-1036h-228v112c-90.667 -90.667 -205.334 -136 -344.001 -136c-100 0 -190.833 24.667 -272.5 74s-145 115.333 -190 198s-67.5 172.667 -67.5 270s22.5 187.333 67.5 270s108.333 148.667 190 198
s172.5 74 272.5 74zM304.001 1340c0 37.333 12.667 68.666 38 93.999s56.666 38 93.999 38s68.666 -12.667 93.999 -38s38 -56.666 38 -93.999s-12.667 -68.666 -38 -93.999s-56.666 -38 -93.999 -38s-68.666 12.667 -93.999 38s-38 56.666 -38 93.999zM672.001 1340
c0 37.333 12.667 68.666 38 93.999s56.666 38 93.999 38s68.666 -12.667 93.999 -38s38 -56.666 38 -93.999s-12.667 -68.666 -38 -93.999s-56.666 -38 -93.999 -38s-68.666 12.667 -93.999 38s-38 56.666 -38 93.999z" />
    <glyph glyph-name="aring" unicode="&#xe5;" horiz-adv-x="1312" 
d="M640 180c66.667 0 127.168 16.832 181.501 50.499s95.166 78.834 122.499 135.501v302c-27.333 56.667 -68.333 102.167 -123 136.5s-115 51.5 -181 51.5c-94.667 0 -174.667 -32.667 -240 -98s-98 -145.333 -98 -240s32.667 -174.667 98 -240s145.333 -98 240 -98z
M600.001 1060c138.667 0 253.334 -45.333 344.001 -136v112h228v-1036h-228v112c-90.667 -90.667 -205.334 -136 -344.001 -136c-100 0 -190.833 24.667 -272.5 74s-145 115.333 -190 198s-67.5 172.667 -67.5 270s22.5 187.333 67.5 270s108.333 148.667 190 198
s172.5 74 272.5 74zM548.001 1362c0 -20 6.83301 -36.667 20.5 -50s30.834 -20 51.501 -20s37.834 6.66699 51.501 20s20.5 30 20.5 50s-6.83301 36.667 -20.5 50s-30.834 20 -51.501 20s-37.834 -6.66699 -51.501 -20s-20.5 -30 -20.5 -50zM404.001 1362
c0 56 20.5 103 61.5 141s92.5 57 154.5 57s113.5 -19 154.5 -57s61.5 -85 61.5 -141s-20.5 -103 -61.5 -141s-92.5 -57 -154.5 -57s-113.5 19 -154.5 57s-61.5 85 -61.5 141z" />
    <glyph glyph-name="ae" unicode="&#xe6;" horiz-adv-x="2034" 
d="M1954 444l-853.001 0.00292969c13.333 -79.333 51.166 -144.5 113.499 -195.5s136.166 -76.5 221.499 -76.5c116.667 0 219.334 45.333 308.001 136l156 -144c-115.333 -125.333 -268 -188 -458 -188c-92.667 0 -177.834 17.667 -255.501 53s-140.5 83 -188.5 143
c-45.333 -60 -105.666 -107.667 -180.999 -143s-157.666 -53 -246.999 -53c-143.333 0 -262.5 33.333 -357.5 100s-142.5 149.334 -142.5 248.001c0 61.333 21.167 117.166 63.5 167.499s99.333 89.666 171 117.999s150.167 42.5 235.5 42.5
c61.333 0 121.833 -7.83301 181.5 -23.5s108.5 -35.834 146.5 -60.501v46c0 70 -28.667 129.167 -86 177.5s-130 72.5 -218 72.5c-59.333 0 -118.333 -11.333 -177 -34s-110.334 -52.667 -155.001 -90l-86 172c58 47.333 123.667 83.833 197 109.5s149 38.5 227 38.5
c90 0 172.833 -17.833 248.5 -53.5s135.834 -83.834 180.501 -144.501c47.333 61.333 108.5 109.666 183.5 144.999s156.167 53 243.5 53c102.667 0 195.334 -23.667 278.001 -71s146.667 -110.666 192 -189.999s68 -166.333 68 -261c0 -34 -3.33301 -65.333 -10 -94z
M297.999 324.003c0 -42.667 26.668 -78.667 80.001 -108s121.333 -44 204 -44c136 0 230.667 40.667 284 122v99c-70.667 55.333 -165.334 83 -284.001 83c-82.667 0 -150.667 -14.667 -204 -44s-80 -65.333 -80 -108zM1426 864.003c-72 0 -137.333 -21.667 -196 -65
s-98.667 -99 -120 -167h615c-18 68 -54 123.667 -108 167s-117.667 65 -191 65z" />
    <glyph glyph-name="ccedilla" unicode="&#xe7;" horiz-adv-x="1110" 
d="M564 -216c-16 0 -34.667 -1.33398 -56 -4.00098l-40 44l84 158c-140.667 18.667 -256.167 78.334 -346.5 179.001s-135.5 219.667 -135.5 357c0 99.333 24.5 190.5 73.5 273.5s117.167 148.5 204.5 196.5s184.666 72 291.999 72c146 0 272.667 -44 380 -132l-118 -178
c-87.333 70.667 -174.666 106 -261.999 106c-94.667 0 -174.667 -32.667 -240 -98s-98 -145.333 -98 -240s32.667 -174.667 98 -240s145.333 -98 240 -98c96 0 184.667 37.333 266 112l134 -166c-88 -80.667 -193.667 -129 -317 -145l-55 -85c52 -14 93.333 -39.333 124 -76
s46 -78 46 -124c0 -62 -24.833 -113.5 -74.5 -154.5s-112.167 -61.5 -187.5 -61.5c-74 0 -136 20 -186 60l76 108c28 -21.333 60.667 -32 98 -32c29.333 0 53.333 8 72 24s28 36 28 60s-9.33301 44 -28 60s-42.667 24 -72 24z" />
    <glyph glyph-name="egrave" unicode="&#xe8;" horiz-adv-x="1236" 
d="M1156 444l-853 -0.000976562c13.333 -79.333 51.166 -144.5 113.499 -195.5s136.166 -76.5 221.499 -76.5c116.667 0 219.334 45.333 308.001 136l156 -144c-115.333 -125.333 -268 -188 -458 -188c-84 0 -162 14.167 -234 42.5s-132.667 66.833 -182 115.5
s-88 106.167 -116 172.5s-42 136.833 -42 211.5s14.167 145.334 42.5 212.001s67 124.167 116 172.5s108.167 86.666 177.5 114.999s143.333 42.5 222 42.5c102.667 0 195.334 -23.667 278.001 -71s146.667 -110.666 192 -189.999s68 -166.333 68 -261
c0 -34 -3.33301 -65.333 -10 -94zM628 863.999c-72 0 -137.333 -21.667 -196 -65s-98.667 -99 -120 -167h615c-18 68 -54 123.667 -108 167s-117.667 65 -191 65zM531 1526l272 -342h-222l-279 342h229z" />
    <glyph glyph-name="eacute" unicode="&#xe9;" horiz-adv-x="1236" 
d="M1156 444l-853 -0.000976562c13.333 -79.333 51.166 -144.5 113.499 -195.5s136.166 -76.5 221.499 -76.5c116.667 0 219.334 45.333 308.001 136l156 -144c-115.333 -125.333 -268 -188 -458 -188c-84 0 -162 14.167 -234 42.5s-132.667 66.833 -182 115.5
s-88 106.167 -116 172.5s-42 136.833 -42 211.5s14.167 145.334 42.5 212.001s67 124.167 116 172.5s108.167 86.666 177.5 114.999s143.333 42.5 222 42.5c102.667 0 195.334 -23.667 278.001 -71s146.667 -110.666 192 -189.999s68 -166.333 68 -261
c0 -34 -3.33301 -65.333 -10 -94zM628 863.999c-72 0 -137.333 -21.667 -196 -65s-98.667 -99 -120 -167h615c-18 68 -54 123.667 -108 167s-117.667 65 -191 65zM437 1184l272 342h229l-279 -342h-222z" />
    <glyph glyph-name="ecircumflex" unicode="&#xea;" horiz-adv-x="1236" 
d="M1156 444l-853 -0.000976562c13.333 -79.333 51.166 -144.5 113.499 -195.5s136.166 -76.5 221.499 -76.5c116.667 0 219.334 45.333 308.001 136l156 -144c-115.333 -125.333 -268 -188 -458 -188c-84 0 -162 14.167 -234 42.5s-132.667 66.833 -182 115.5
s-88 106.167 -116 172.5s-42 136.833 -42 211.5s14.167 145.334 42.5 212.001s67 124.167 116 172.5s108.167 86.666 177.5 114.999s143.333 42.5 222 42.5c102.667 0 195.334 -23.667 278.001 -71s146.667 -110.666 192 -189.999s68 -166.333 68 -261
c0 -34 -3.33301 -65.333 -10 -94zM628 863.999c-72 0 -137.333 -21.667 -196 -65s-98.667 -99 -120 -167h615c-18 68 -54 123.667 -108 167s-117.667 65 -191 65zM696 1526l292 -342h-222l-148 170l-148 -170h-222l292 342h156z" />
    <glyph glyph-name="edieresis" unicode="&#xeb;" horiz-adv-x="1236" 
d="M1156 444l-853 -0.000976562c13.333 -79.333 51.166 -144.5 113.499 -195.5s136.166 -76.5 221.499 -76.5c116.667 0 219.334 45.333 308.001 136l156 -144c-115.333 -125.333 -268 -188 -458 -188c-84 0 -162 14.167 -234 42.5s-132.667 66.833 -182 115.5
s-88 106.167 -116 172.5s-42 136.833 -42 211.5s14.167 145.334 42.5 212.001s67 124.167 116 172.5s108.167 86.666 177.5 114.999s143.333 42.5 222 42.5c102.667 0 195.334 -23.667 278.001 -71s146.667 -110.666 192 -189.999s68 -166.333 68 -261
c0 -34 -3.33301 -65.333 -10 -94zM628 863.999c-72 0 -137.333 -21.667 -196 -65s-98.667 -99 -120 -167h615c-18 68 -54 123.667 -108 167s-117.667 65 -191 65zM302 1340c0 37.333 12.667 68.666 38 93.999s56.666 38 93.999 38s68.666 -12.667 93.999 -38
s38 -56.666 38 -93.999s-12.667 -68.666 -38 -93.999s-56.666 -38 -93.999 -38s-68.666 12.667 -93.999 38s-38 56.666 -38 93.999zM670 1340c0 37.333 12.667 68.666 38 93.999s56.666 38 93.999 38s68.666 -12.667 93.999 -38s38 -56.666 38 -93.999
s-12.667 -68.666 -38 -93.999s-56.666 -38 -93.999 -38s-68.666 12.667 -93.999 38s-38 56.666 -38 93.999z" />
    <glyph glyph-name="igrave" unicode="&#xec;" horiz-adv-x="528" 
d="M150 0v1036h228v-1036h-228zM146 1526l272 -342h-222l-279 342h229z" />
    <glyph glyph-name="iacute" unicode="&#xed;" horiz-adv-x="528" 
d="M150 0v1036h228v-1036h-228zM110 1184l272 342h229l-279 -342h-222z" />
    <glyph glyph-name="icircumflex" unicode="&#xee;" horiz-adv-x="528" 
d="M150 0v1036h228v-1036h-228zM342 1526l292 -342h-222l-148 170l-148 -170h-222l292 342h156z" />
    <glyph glyph-name="idieresis" unicode="&#xef;" horiz-adv-x="528" 
d="M150 0v1036h228v-1036h-228zM-52 1340c0 37.333 12.667 68.666 38 93.999s56.666 38 93.999 38s68.666 -12.667 93.999 -38s38 -56.666 38 -93.999s-12.667 -68.666 -38 -93.999s-56.666 -38 -93.999 -38s-68.666 12.667 -93.999 38s-38 56.666 -38 93.999zM316 1340
c0 37.333 12.667 68.666 38 93.999s56.666 38 93.999 38s68.666 -12.667 93.999 -38s38 -56.666 38 -93.999s-12.667 -68.666 -38 -93.999s-56.666 -38 -93.999 -38s-68.666 12.667 -93.999 38s-38 56.666 -38 93.999z" />
    <glyph glyph-name="eth" unicode="&#xf0;" horiz-adv-x="1242" 
d="M320 1024l-61.998 134.001l210 97c-63.333 38 -126 70.333 -188 97l182 108c70.667 -28.667 139.667 -66 207 -112l219 102l62 -134l-150 -70c112.667 -101.333 201.167 -218.333 265.5 -351s96.5 -268.334 96.5 -407.001c0 -94.667 -24 -181.167 -72 -259.5
s-113.833 -140 -197.5 -185s-175.834 -67.5 -276.501 -67.5s-192.834 22.5 -276.501 67.5s-149.5 106.667 -197.5 185s-72 164.833 -72 259.5c0 92 24 177 72 255s111.333 139 190 183s162.667 66 252 66c90 0 169 -24 237 -72c-58 88 -129.667 167 -215 237z
M302.002 492.001c0 -88 30.333 -162 91 -222s135.667 -90 225 -90s164.333 30 225 90s91 134 91 222s-30.333 162 -91 222s-135.667 90 -225 90s-164.333 -30 -225 -90s-91 -134 -91 -222z" />
    <glyph glyph-name="ntilde" unicode="&#xf1;" horiz-adv-x="1220" 
d="M368 688l0.000976562 -688.001h-228v1036h228v-120c39.333 43.333 86.5 78.166 141.5 104.499s111.167 39.5 168.5 39.5c125.333 0 227 -39.667 305 -119s117 -183.666 117 -312.999v-628h-228v616c0 70.667 -22 128.334 -66 173.001s-101.333 67 -172 67
c-49.333 0 -98.333 -16.5 -147 -49.5s-88.334 -72.5 -119.001 -118.5zM634.001 1242c-48 26.667 -82.667 40 -104 40c-31.333 0 -52.666 -25.667 -63.999 -77l-193 39c14.667 73.333 37.667 128 69 164s72.666 54 123.999 54c40 0 86.667 -15.333 140 -46
c48 -26.667 82.667 -40 104 -40c31.333 0 52.666 25.667 63.999 77l193 -39c-14.667 -73.333 -37.667 -128 -69 -164s-72.666 -54 -123.999 -54c-40 0 -86.667 15.333 -140 46z" />
    <glyph glyph-name="ograve" unicode="&#xf2;" horiz-adv-x="1280" 
d="M533 1526l272 -342h-222l-279 342h229zM640 180c94.667 0 174.667 32.667 240 98s98 145.333 98 240s-32.667 174.667 -98 240s-145.333 98 -240 98s-174.667 -32.667 -240 -98s-98 -145.333 -98 -240s32.667 -174.667 98 -240s145.333 -98 240 -98zM640 1060
c107.333 0 204.666 -24 291.999 -72s155.5 -113.5 204.5 -196.5s73.5 -174.167 73.5 -273.5s-24.5 -190.5 -73.5 -273.5s-117.167 -148.5 -204.5 -196.5s-184.666 -72 -291.999 -72s-204.666 24 -291.999 72s-155.5 113.5 -204.5 196.5s-73.5 174.167 -73.5 273.5
s24.5 190.5 73.5 273.5s117.167 148.5 204.5 196.5s184.666 72 291.999 72z" />
    <glyph glyph-name="oacute" unicode="&#xf3;" horiz-adv-x="1280" 
d="M480 1184l272 342h229l-279 -342h-222zM640 180c94.667 0 174.667 32.667 240 98s98 145.333 98 240s-32.667 174.667 -98 240s-145.333 98 -240 98s-174.667 -32.667 -240 -98s-98 -145.333 -98 -240s32.667 -174.667 98 -240s145.333 -98 240 -98zM640 1060
c107.333 0 204.666 -24 291.999 -72s155.5 -113.5 204.5 -196.5s73.5 -174.167 73.5 -273.5s-24.5 -190.5 -73.5 -273.5s-117.167 -148.5 -204.5 -196.5s-184.666 -72 -291.999 -72s-204.666 24 -291.999 72s-155.5 113.5 -204.5 196.5s-73.5 174.167 -73.5 273.5
s24.5 190.5 73.5 273.5s117.167 148.5 204.5 196.5s184.666 72 291.999 72z" />
    <glyph glyph-name="ocircumflex" unicode="&#xf4;" horiz-adv-x="1280" 
d="M718 1526l292 -342h-222l-148 170l-148 -170h-222l292 342h156zM640 180c94.667 0 174.667 32.667 240 98s98 145.333 98 240s-32.667 174.667 -98 240s-145.333 98 -240 98s-174.667 -32.667 -240 -98s-98 -145.333 -98 -240s32.667 -174.667 98 -240
s145.333 -98 240 -98zM640 1060c107.333 0 204.666 -24 291.999 -72s155.5 -113.5 204.5 -196.5s73.5 -174.167 73.5 -273.5s-24.5 -190.5 -73.5 -273.5s-117.167 -148.5 -204.5 -196.5s-184.666 -72 -291.999 -72s-204.666 24 -291.999 72s-155.5 113.5 -204.5 196.5
s-73.5 174.167 -73.5 273.5s24.5 190.5 73.5 273.5s117.167 148.5 204.5 196.5s184.666 72 291.999 72z" />
    <glyph glyph-name="otilde" unicode="&#xf5;" horiz-adv-x="1280" 
d="M654 1242c-48 26.667 -82.667 40 -104 40c-31.333 0 -52.666 -25.667 -63.999 -77l-193 39c14.667 73.333 37.667 128 69 164s72.666 54 123.999 54c40 0 86.667 -15.333 140 -46c48 -26.667 82.667 -40 104 -40c31.333 0 52.666 25.667 63.999 77l193 -39
c-14.667 -73.333 -37.667 -128 -69 -164s-72.666 -54 -123.999 -54c-40 0 -86.667 15.333 -140 46zM640 180c94.667 0 174.667 32.667 240 98s98 145.333 98 240s-32.667 174.667 -98 240s-145.333 98 -240 98s-174.667 -32.667 -240 -98s-98 -145.333 -98 -240
s32.667 -174.667 98 -240s145.333 -98 240 -98zM640 1060c107.333 0 204.666 -24 291.999 -72s155.5 -113.5 204.5 -196.5s73.5 -174.167 73.5 -273.5s-24.5 -190.5 -73.5 -273.5s-117.167 -148.5 -204.5 -196.5s-184.666 -72 -291.999 -72s-204.666 24 -291.999 72
s-155.5 113.5 -204.5 196.5s-73.5 174.167 -73.5 273.5s24.5 190.5 73.5 273.5s117.167 148.5 204.5 196.5s184.666 72 291.999 72z" />
    <glyph glyph-name="odieresis" unicode="&#xf6;" horiz-adv-x="1280" 
d="M324 1340c0 37.333 12.667 68.666 38 93.999s56.666 38 93.999 38s68.666 -12.667 93.999 -38s38 -56.666 38 -93.999s-12.667 -68.666 -38 -93.999s-56.666 -38 -93.999 -38s-68.666 12.667 -93.999 38s-38 56.666 -38 93.999zM692 1340
c0 37.333 12.667 68.666 38 93.999s56.666 38 93.999 38s68.666 -12.667 93.999 -38s38 -56.666 38 -93.999s-12.667 -68.666 -38 -93.999s-56.666 -38 -93.999 -38s-68.666 12.667 -93.999 38s-38 56.666 -38 93.999zM640 180c94.667 0 174.667 32.667 240 98
s98 145.333 98 240s-32.667 174.667 -98 240s-145.333 98 -240 98s-174.667 -32.667 -240 -98s-98 -145.333 -98 -240s32.667 -174.667 98 -240s145.333 -98 240 -98zM640 1060c107.333 0 204.666 -24 291.999 -72s155.5 -113.5 204.5 -196.5s73.5 -174.167 73.5 -273.5
s-24.5 -190.5 -73.5 -273.5s-117.167 -148.5 -204.5 -196.5s-184.666 -72 -291.999 -72s-204.666 24 -291.999 72s-155.5 113.5 -204.5 196.5s-73.5 174.167 -73.5 273.5s24.5 190.5 73.5 273.5s117.167 148.5 204.5 196.5s184.666 72 291.999 72z" />
    <glyph glyph-name="divide" unicode="&#xf7;" horiz-adv-x="1160" 
d="M1040 566h-920v196h920v-196zM432 1042c0 42 14.167 77.167 42.5 105.5s63.5 42.5 105.5 42.5s77.167 -14.167 105.5 -42.5s42.5 -63.5 42.5 -105.5s-14.167 -77.167 -42.5 -105.5s-63.5 -42.5 -105.5 -42.5s-77.167 14.167 -105.5 42.5s-42.5 63.5 -42.5 105.5zM432 286
c0 42 14.167 77.167 42.5 105.5s63.5 42.5 105.5 42.5s77.167 -14.167 105.5 -42.5s42.5 -63.5 42.5 -105.5s-14.167 -77.167 -42.5 -105.5s-63.5 -42.5 -105.5 -42.5s-77.167 14.167 -105.5 42.5s-42.5 63.5 -42.5 105.5z" />
    <glyph glyph-name="oslash" unicode="&#xf8;" horiz-adv-x="1280" 
d="M996 1096l198.001 0.000976562l-150 -190c52.667 -49.333 93.5 -107.5 122.5 -174.5s43.5 -138.167 43.5 -213.5c0 -99.333 -24.5 -190.5 -73.5 -273.5s-117.167 -148.5 -204.5 -196.5s-184.666 -72 -291.999 -72c-100 0 -192.667 21.667 -278 65l-80 -101h-198l151 191
c-52.667 50 -93.334 108.167 -122.001 174.5s-43 137.166 -43 212.499c0 99.333 24.5 190.5 73.5 273.5s117.167 148.5 204.5 196.5s184.666 72 291.999 72c99.333 0 191.333 -21.667 276 -65zM640.001 180.001c94.667 0 174.667 32.667 240 98s98 145.333 98 240
c0 80 -24.333 150.667 -73 212l-409 -519c44.667 -20.667 92.667 -31 144 -31zM302.001 518.001c0 -80.667 23.667 -151 71 -211l409 518c-44.667 20.667 -92 31 -142 31c-94.667 0 -174.667 -32.667 -240 -98s-98 -145.333 -98 -240z" />
    <glyph glyph-name="ugrave" unicode="&#xf9;" horiz-adv-x="1220" 
d="M852 348l-0.000976562 688.001h228v-1036h-228v120c-39.333 -43.333 -86.5 -78.166 -141.5 -104.499s-111.167 -39.5 -168.5 -39.5c-125.333 0 -227 39.667 -305 119s-117 183.666 -117 312.999v628h228v-616c0 -70.667 22 -128.334 66 -173.001s101.333 -67 172 -67
c49.333 0 98.333 16.5 147 49.5s88.334 72.5 119.001 118.5zM472.999 1526l272 -342h-222l-279 342h229z" />
    <glyph glyph-name="uacute" unicode="&#xfa;" horiz-adv-x="1220" 
d="M852 348l-0.000976562 688.001h228v-1036h-228v120c-39.333 -43.333 -86.5 -78.166 -141.5 -104.499s-111.167 -39.5 -168.5 -39.5c-125.333 0 -227 39.667 -305 119s-117 183.666 -117 312.999v628h228v-616c0 -70.667 22 -128.334 66 -173.001s101.333 -67 172 -67
c49.333 0 98.333 16.5 147 49.5s88.334 72.5 119.001 118.5zM444.999 1184l272 342h229l-279 -342h-222z" />
    <glyph glyph-name="ucircumflex" unicode="&#xfb;" horiz-adv-x="1220" 
d="M852 348l-0.000976562 688.001h228v-1036h-228v120c-39.333 -43.333 -86.5 -78.166 -141.5 -104.499s-111.167 -39.5 -168.5 -39.5c-125.333 0 -227 39.667 -305 119s-117 183.666 -117 312.999v628h228v-616c0 -70.667 22 -128.334 66 -173.001s101.333 -67 172 -67
c49.333 0 98.333 16.5 147 49.5s88.334 72.5 119.001 118.5zM671.999 1526l292 -342h-222l-148 170l-148 -170h-222l292 342h156z" />
    <glyph glyph-name="udieresis" unicode="&#xfc;" horiz-adv-x="1220" 
d="M852 348l-0.000976562 688.001h228v-1036h-228v120c-39.333 -43.333 -86.5 -78.166 -141.5 -104.499s-111.167 -39.5 -168.5 -39.5c-125.333 0 -227 39.667 -305 119s-117 183.666 -117 312.999v628h228v-616c0 -70.667 22 -128.334 66 -173.001s101.333 -67 172 -67
c49.333 0 98.333 16.5 147 49.5s88.334 72.5 119.001 118.5zM277.999 1340c0 37.333 12.667 68.666 38 93.999s56.666 38 93.999 38s68.666 -12.667 93.999 -38s38 -56.666 38 -93.999s-12.667 -68.666 -38 -93.999s-56.666 -38 -93.999 -38s-68.666 12.667 -93.999 38
s-38 56.666 -38 93.999zM645.999 1340c0 37.333 12.667 68.666 38 93.999s56.666 38 93.999 38s68.666 -12.667 93.999 -38s38 -56.666 38 -93.999s-12.667 -68.666 -38 -93.999s-56.666 -38 -93.999 -38s-68.666 12.667 -93.999 38s-38 56.666 -38 93.999z" />
    <glyph glyph-name="yacute" unicode="&#xfd;" horiz-adv-x="1056" 
d="M234 -464l176 464l-390 1036h236l270 -748l274 748h236l-566 -1500h-236zM365 1184l272 342h229l-279 -342h-222z" />
    <glyph glyph-name="thorn" unicode="&#xfe;" horiz-adv-x="1312" 
d="M672 180c94.667 0 174.668 32.668 240.001 98.001s98 145.333 98 240s-32.667 174.667 -98 240s-145.333 98 -240 98c-66 0 -126.333 -17.167 -181 -51.5s-95.667 -79.833 -123 -136.5v-302c27.333 -56.667 68.166 -101.834 122.499 -135.501s114.833 -50.5 181.5 -50.5z
M712.001 1060c100 0 190.833 -24.667 272.5 -74s145 -115.333 190 -198s67.5 -172.667 67.5 -270s-22.5 -187.333 -67.5 -270s-108.333 -148.667 -190 -198s-172.5 -74 -272.5 -74c-138.667 0 -253.334 45.333 -344.001 136v-576h-228v1924h228v-536
c90.667 90.667 205.334 136 344.001 136z" />
    <glyph glyph-name="ydieresis" unicode="&#xff;" horiz-adv-x="1056" 
d="M212 1340c0 37.333 12.667 68.666 38 93.999s56.666 38 93.999 38s68.666 -12.667 93.999 -38s38 -56.666 38 -93.999s-12.667 -68.666 -38 -93.999s-56.666 -38 -93.999 -38s-68.666 12.667 -93.999 38s-38 56.666 -38 93.999zM580 1340
c0 37.333 12.667 68.666 38 93.999s56.666 38 93.999 38s68.666 -12.667 93.999 -38s38 -56.666 38 -93.999s-12.667 -68.666 -38 -93.999s-56.666 -38 -93.999 -38s-68.666 12.667 -93.999 38s-38 56.666 -38 93.999zM234 -464l176 464l-390 1036h236l270 -748l274 748h236
l-566 -1500h-236z" />
    <glyph glyph-name="Amacron" unicode="&#x100;" horiz-adv-x="1376" 
d="M820 1400l516 -1400h-256l-116 338h-552l-116 -338h-256l516 1400h264zM688 1142l-206 -600h412zM388 1570v176h600v-176h-600z" />
    <glyph glyph-name="amacron" unicode="&#x101;" horiz-adv-x="1312" 
d="M640 180c66.667 0 127.168 16.832 181.501 50.499s95.166 78.834 122.499 135.501v302c-27.333 56.667 -68.333 102.167 -123 136.5s-115 51.5 -181 51.5c-94.667 0 -174.667 -32.667 -240 -98s-98 -145.333 -98 -240s32.667 -174.667 98 -240s145.333 -98 240 -98z
M600.001 1060c138.667 0 253.334 -45.333 344.001 -136v112h228v-1036h-228v112c-90.667 -90.667 -205.334 -136 -344.001 -136c-100 0 -190.833 24.667 -272.5 74s-145 115.333 -190 198s-67.5 172.667 -67.5 270s22.5 187.333 67.5 270s108.333 148.667 190 198
s172.5 74 272.5 74zM330.001 1246v176h600v-176h-600z" />
    <glyph glyph-name="Abreve" unicode="&#x102;" horiz-adv-x="1376" 
d="M820 1400l516 -1400h-256l-116 338h-552l-116 -338h-256l516 1400h264zM688 1142l-206 -600h412zM688 1488c-89.333 0 -166.833 29.667 -232.5 89s-100.834 134.333 -105.501 225h200c0.666992 -42 14.334 -76.833 41.001 -104.5s59 -41.5 97 -41.5
s70.333 13.833 97 41.5s40.334 62.5 41.001 104.5h200c-4.66699 -90.667 -39.834 -165.667 -105.501 -225s-143.167 -89 -232.5 -89z" />
    <glyph glyph-name="abreve" unicode="&#x103;" horiz-adv-x="1312" 
d="M640 180c66.667 0 127.168 16.832 181.501 50.499s95.166 78.834 122.499 135.501v302c-27.333 56.667 -68.333 102.167 -123 136.5s-115 51.5 -181 51.5c-94.667 0 -174.667 -32.667 -240 -98s-98 -145.333 -98 -240s32.667 -174.667 98 -240s145.333 -98 240 -98z
M600.001 1060c138.667 0 253.334 -45.333 344.001 -136v112h228v-1036h-228v112c-90.667 -90.667 -205.334 -136 -344.001 -136c-100 0 -190.833 24.667 -272.5 74s-145 115.333 -190 198s-67.5 172.667 -67.5 270s22.5 187.333 67.5 270s108.333 148.667 190 198
s172.5 74 272.5 74zM630.001 1164c-89.333 0 -166.833 29.667 -232.5 89s-100.834 134.333 -105.501 225h200c0.666992 -42 14.334 -76.833 41.001 -104.5s59 -41.5 97 -41.5s70.333 13.833 97 41.5s40.334 62.5 41.001 104.5h200
c-4.66699 -90.667 -39.834 -165.667 -105.501 -225s-143.167 -89 -232.5 -89z" />
    <glyph glyph-name="Aogonek" unicode="&#x104;" horiz-adv-x="1376" 
d="M1172 0h-92l-116 338h-552l-116 -338h-256l516 1400h264l516 -1400c-105.333 -87.333 -158 -161.333 -158 -222c0 -27.333 9.16699 -49.833 27.5 -67.5s41.166 -26.5 68.499 -26.5c28.667 0 53.334 7.33301 74.001 22l50 -118c-46 -30.667 -100.667 -46 -164 -46
c-65.333 0 -120 20 -164 60s-66 89.333 -66 148c0 45.333 15 89.5 45 132.5s71 82.167 123 117.5zM688 1142l-206 -600h412z" />
    <glyph glyph-name="aogonek" unicode="&#x105;" horiz-adv-x="1312" 
d="M1008 0h-64v112c-90.667 -90.667 -205.334 -136 -344.001 -136c-100 0 -190.833 24.667 -272.5 74s-145 115.333 -190 198s-67.5 172.667 -67.5 270s22.5 187.333 67.5 270s108.333 148.667 190 198s172.5 74 272.5 74c138.667 0 253.334 -45.333 344.001 -136v112h228
v-1036c-105.333 -87.333 -158 -161.333 -158 -222c0 -27.333 9.16699 -49.833 27.5 -67.5s41.166 -26.5 68.499 -26.5c28.667 0 53.334 7.33301 74.001 22l50 -118c-46 -30.667 -100.667 -46 -164 -46c-65.333 0 -120 20 -164 60s-66 89.333 -66 148
c0 45.333 15 89.5 45 132.5s71 82.167 123 117.5zM640 180c66.667 0 127.168 16.832 181.501 50.499s95.166 78.834 122.499 135.501v302c-27.333 56.667 -68.333 102.167 -123 136.5s-115 51.5 -181 51.5c-94.667 0 -174.667 -32.667 -240 -98s-98 -145.333 -98 -240
s32.667 -174.667 98 -240s145.333 -98 240 -98z" />
    <glyph glyph-name="Cacute" unicode="&#x106;" horiz-adv-x="1382" 
d="M1188 320l123.999 -176.003c-137.333 -112 -299.333 -168 -486 -168c-138.667 0 -265 31.833 -379 95.5s-203.667 150.834 -269 261.501s-98 233 -98 367s32.667 256.333 98 367s155 197.834 269 261.501s240.333 95.5 379 95.5c176 0 332.667 -52 470 -156l-118 -178
c-62.667 41.333 -120.667 72.666 -174 93.999s-112.666 32 -177.999 32c-141.333 0 -261 -49.667 -359 -149s-147 -221.666 -147 -366.999s49 -267.666 147 -366.999s217.667 -149 359 -149c127.333 0 248 45.333 362 136zM608.999 1508l272 342h229l-279 -342h-222z" />
    <glyph glyph-name="cacute" unicode="&#x107;" horiz-adv-x="1104" 
d="M640 -24c-107.333 0 -204.667 24 -292 72s-155.5 113.5 -204.5 196.5s-73.5 174.167 -73.5 273.5s24.5 190.5 73.5 273.5s117.167 148.5 204.5 196.5s184.666 72 291.999 72c146 0 272.667 -44 380 -132l-118 -178c-87.333 70.667 -174.666 106 -261.999 106
c-94.667 0 -174.667 -32.667 -240 -98s-98 -145.333 -98 -240s32.667 -174.667 98 -240s145.333 -98 240 -98c96 0 184.667 37.333 266 112l134 -166c-108.667 -100 -242 -150 -400 -150zM422.999 1184l272 342h229l-279 -342h-222z" />
    <glyph glyph-name="Ccircumflex" unicode="&#x108;" horiz-adv-x="1382" 
d="M1188 320l123.999 -176.003c-137.333 -112 -299.333 -168 -486 -168c-138.667 0 -265 31.833 -379 95.5s-203.667 150.834 -269 261.501s-98 233 -98 367s32.667 256.333 98 367s155 197.834 269 261.501s240.333 95.5 379 95.5c176 0 332.667 -52 470 -156l-118 -178
c-62.667 41.333 -120.667 72.666 -174 93.999s-112.666 32 -177.999 32c-141.333 0 -261 -49.667 -359 -149s-147 -221.666 -147 -366.999s49 -267.666 147 -366.999s217.667 -149 359 -149c127.333 0 248 45.333 362 136zM845.999 1850l292 -342h-222l-148 170l-148 -170
h-222l292 342h156z" />
    <glyph glyph-name="ccircumflex" unicode="&#x109;" horiz-adv-x="1104" 
d="M640 -24c-107.333 0 -204.667 24 -292 72s-155.5 113.5 -204.5 196.5s-73.5 174.167 -73.5 273.5s24.5 190.5 73.5 273.5s117.167 148.5 204.5 196.5s184.666 72 291.999 72c146 0 272.667 -44 380 -132l-118 -178c-87.333 70.667 -174.666 106 -261.999 106
c-94.667 0 -174.667 -32.667 -240 -98s-98 -145.333 -98 -240s32.667 -174.667 98 -240s145.333 -98 240 -98c96 0 184.667 37.333 266 112l134 -166c-108.667 -100 -242 -150 -400 -150zM655.999 1526l292 -342h-222l-148 170l-148 -170h-222l292 342h156z" />
    <glyph glyph-name="Cdotaccent" unicode="&#x10a;" horiz-adv-x="1382" 
d="M1188 320l123.999 -176.003c-137.333 -112 -299.333 -168 -486 -168c-138.667 0 -265 31.833 -379 95.5s-203.667 150.834 -269 261.501s-98 233 -98 367s32.667 256.333 98 367s155 197.834 269 261.501s240.333 95.5 379 95.5c176 0 332.667 -52 470 -156l-118 -178
c-62.667 41.333 -120.667 72.666 -174 93.999s-112.666 32 -177.999 32c-141.333 0 -261 -49.667 -359 -149s-147 -221.666 -147 -366.999s49 -267.666 147 -366.999s217.667 -149 359 -149c127.333 0 248 45.333 362 136zM635.999 1664c0 37.333 12.667 68.666 38 93.999
s56.666 38 93.999 38s68.666 -12.667 93.999 -38s38 -56.666 38 -93.999s-12.667 -68.666 -38 -93.999s-56.666 -38 -93.999 -38s-68.666 12.667 -93.999 38s-38 56.666 -38 93.999z" />
    <glyph glyph-name="cdotaccent" unicode="&#x10b;" horiz-adv-x="1104" 
d="M640 -24c-107.333 0 -204.667 24 -292 72s-155.5 113.5 -204.5 196.5s-73.5 174.167 -73.5 273.5s24.5 190.5 73.5 273.5s117.167 148.5 204.5 196.5s184.666 72 291.999 72c146 0 272.667 -44 380 -132l-118 -178c-87.333 70.667 -174.666 106 -261.999 106
c-94.667 0 -174.667 -32.667 -240 -98s-98 -145.333 -98 -240s32.667 -174.667 98 -240s145.333 -98 240 -98c96 0 184.667 37.333 266 112l134 -166c-108.667 -100 -242 -150 -400 -150zM469.999 1340c0 37.333 12.667 68.666 38 93.999s56.666 38 93.999 38
s68.666 -12.667 93.999 -38s38 -56.666 38 -93.999s-12.667 -68.666 -38 -93.999s-56.666 -38 -93.999 -38s-68.666 12.667 -93.999 38s-38 56.666 -38 93.999z" />
    <glyph glyph-name="Ccaron" unicode="&#x10c;" horiz-adv-x="1382" 
d="M1188 320l123.999 -176.003c-137.333 -112 -299.333 -168 -486 -168c-138.667 0 -265 31.833 -379 95.5s-203.667 150.834 -269 261.501s-98 233 -98 367s32.667 256.333 98 367s155 197.834 269 261.501s240.333 95.5 379 95.5c176 0 332.667 -52 470 -156l-118 -178
c-62.667 41.333 -120.667 72.666 -174 93.999s-112.666 32 -177.999 32c-141.333 0 -261 -49.667 -359 -149s-147 -221.666 -147 -366.999s49 -267.666 147 -366.999s217.667 -149 359 -149c127.333 0 248 45.333 362 136zM1138 1850l-292 -342h-156l-292 342h222l148 -170
l148 170h222z" />
    <glyph glyph-name="ccaron" unicode="&#x10d;" horiz-adv-x="1104" 
d="M640 -24c-107.333 0 -204.667 24 -292 72s-155.5 113.5 -204.5 196.5s-73.5 174.167 -73.5 273.5s24.5 190.5 73.5 273.5s117.167 148.5 204.5 196.5s184.666 72 291.999 72c146 0 272.667 -44 380 -132l-118 -178c-87.333 70.667 -174.666 106 -261.999 106
c-94.667 0 -174.667 -32.667 -240 -98s-98 -145.333 -98 -240s32.667 -174.667 98 -240s145.333 -98 240 -98c96 0 184.667 37.333 266 112l134 -166c-108.667 -100 -242 -150 -400 -150zM949.999 1506l-292 -342h-156l-292 342h222l148 -170l148 170h222z" />
    <glyph glyph-name="Dcaron" unicode="&#x10e;" horiz-adv-x="1434" 
d="M160 1400h492c215.333 0 386.166 -62.5 512.499 -187.5s189.5 -295.833 189.5 -512.5s-63.167 -387.5 -189.5 -512.5s-297.166 -187.5 -512.499 -187.5h-492v1400zM652 1192h-256v-984h256c141.333 0 253.666 41 336.999 123s125 205 125 369s-41.667 287 -125 369
s-195.666 123 -336.999 123zM1038 1850l-292 -342h-156l-292 342h222l148 -170l148 170h222z" />
    <glyph glyph-name="dcaron" unicode="&#x10f;" horiz-adv-x="1624" 
d="M640 180c66.667 0 127.168 16.832 181.501 50.499s95.166 78.834 122.499 135.501v302c-27.333 56.667 -68.333 102.167 -123 136.5s-115 51.5 -181 51.5c-94.667 0 -174.667 -32.667 -240 -98s-98 -145.333 -98 -240s32.667 -174.667 98 -240s145.333 -98 240 -98z
M600.001 1060c138.667 0 253.334 -45.333 344.001 -136v536h228v-1460h-228v112c-90.667 -90.667 -205.334 -136 -344.001 -136c-100 0 -190.833 24.667 -272.5 74s-145 115.333 -190 198s-67.5 172.667 -67.5 270s22.5 187.333 67.5 270s108.333 148.667 190 198
s172.5 74 272.5 74zM1300 1342c0 40 13.668 73.667 41.001 101s61 41 101 41s73.667 -13.667 101 -41s41 -61 41 -101c0 -20.667 -5.33301 -42.667 -16 -66l-136 -294h-144l102 226c-26.667 10 -48.334 27 -65.001 51s-25 51.667 -25 83z" />
    <glyph glyph-name="Dcroat" unicode="&#x110;" horiz-adv-x="1464" 
d="M190 1400h492c215.333 0 386.166 -62.5 512.499 -187.5s189.5 -295.833 189.5 -512.5s-63.167 -387.5 -189.5 -512.5s-297.166 -187.5 -512.499 -187.5h-492v614h-180v172h180v614zM710 614h-284v-406h256c141.333 0 253.666 41 336.999 123s125 205 125 369
s-41.667 287 -125 369s-195.666 123 -336.999 123h-256v-406h284v-172z" />
    <glyph glyph-name="dcroat" unicode="&#x111;" horiz-adv-x="1332" 
d="M622 1160v152h322v148h228v-148h140v-152h-140v-1160h-228v112c-90.667 -90.667 -205.334 -136 -344.001 -136c-100 0 -190.833 24.667 -272.5 74s-145 115.333 -190 198s-67.5 172.667 -67.5 270s22.5 187.333 67.5 270s108.333 148.667 190 198s172.5 74 272.5 74
c138.667 0 253.334 -45.333 344.001 -136v236h-322zM640 180c66.667 0 127.168 16.832 181.501 50.499s95.166 78.834 122.499 135.501v302c-27.333 56.667 -68.333 102.167 -123 136.5s-115 51.5 -181 51.5c-94.667 0 -174.667 -32.667 -240 -98s-98 -145.333 -98 -240
s32.667 -174.667 98 -240s145.333 -98 240 -98z" />
    <glyph glyph-name="Emacron" unicode="&#x112;" horiz-adv-x="1140" 
d="M160 0v1400h852v-204h-616v-390h568v-204h-568v-398h634v-204h-870zM288 1570v176h600v-176h-600z" />
    <glyph glyph-name="emacron" unicode="&#x113;" horiz-adv-x="1236" 
d="M1156 444l-853 -0.000976562c13.333 -79.333 51.166 -144.5 113.499 -195.5s136.166 -76.5 221.499 -76.5c116.667 0 219.334 45.333 308.001 136l156 -144c-115.333 -125.333 -268 -188 -458 -188c-84 0 -162 14.167 -234 42.5s-132.667 66.833 -182 115.5
s-88 106.167 -116 172.5s-42 136.833 -42 211.5s14.167 145.334 42.5 212.001s67 124.167 116 172.5s108.167 86.666 177.5 114.999s143.333 42.5 222 42.5c102.667 0 195.334 -23.667 278.001 -71s146.667 -110.666 192 -189.999s68 -166.333 68 -261
c0 -34 -3.33301 -65.333 -10 -94zM628 863.999c-72 0 -137.333 -21.667 -196 -65s-98.667 -99 -120 -167h615c-18 68 -54 123.667 -108 167s-117.667 65 -191 65zM320 1246v176h600v-176h-600z" />
    <glyph glyph-name="Ebreve" unicode="&#x114;" horiz-adv-x="1140" 
d="M160 0v1400h852v-204h-616v-390h568v-204h-568v-398h634v-204h-870zM586 1488c-89.333 0 -166.833 29.667 -232.5 89s-100.834 134.333 -105.501 225h200c0.666992 -42 14.334 -76.833 41.001 -104.5s59 -41.5 97 -41.5s70.333 13.833 97 41.5s40.334 62.5 41.001 104.5
h200c-4.66699 -90.667 -39.834 -165.667 -105.501 -225s-143.167 -89 -232.5 -89z" />
    <glyph glyph-name="ebreve" unicode="&#x115;" horiz-adv-x="1236" 
d="M1156 444l-853 -0.000976562c13.333 -79.333 51.166 -144.5 113.499 -195.5s136.166 -76.5 221.499 -76.5c116.667 0 219.334 45.333 308.001 136l156 -144c-115.333 -125.333 -268 -188 -458 -188c-84 0 -162 14.167 -234 42.5s-132.667 66.833 -182 115.5
s-88 106.167 -116 172.5s-42 136.833 -42 211.5s14.167 145.334 42.5 212.001s67 124.167 116 172.5s108.167 86.666 177.5 114.999s143.333 42.5 222 42.5c102.667 0 195.334 -23.667 278.001 -71s146.667 -110.666 192 -189.999s68 -166.333 68 -261
c0 -34 -3.33301 -65.333 -10 -94zM628 863.999c-72 0 -137.333 -21.667 -196 -65s-98.667 -99 -120 -167h615c-18 68 -54 123.667 -108 167s-117.667 65 -191 65zM618 1164c-89.333 0 -166.833 29.667 -232.5 89s-100.834 134.333 -105.501 225h200
c0.666992 -42 14.334 -76.833 41.001 -104.5s59 -41.5 97 -41.5s70.333 13.833 97 41.5s40.334 62.5 41.001 104.5h200c-4.66699 -90.667 -39.834 -165.667 -105.501 -225s-143.167 -89 -232.5 -89z" />
    <glyph glyph-name="Edotaccent" unicode="&#x116;" horiz-adv-x="1140" 
d="M160 0v1400h852v-204h-616v-390h568v-204h-568v-398h634v-204h-870zM464 1664c0 37.333 12.667 68.666 38 93.999s56.666 38 93.999 38s68.666 -12.667 93.999 -38s38 -56.666 38 -93.999s-12.667 -68.666 -38 -93.999s-56.666 -38 -93.999 -38
s-68.666 12.667 -93.999 38s-38 56.666 -38 93.999z" />
    <glyph glyph-name="edotaccent" unicode="&#x117;" horiz-adv-x="1236" 
d="M1156 444l-853 -0.000976562c13.333 -79.333 51.166 -144.5 113.499 -195.5s136.166 -76.5 221.499 -76.5c116.667 0 219.334 45.333 308.001 136l156 -144c-115.333 -125.333 -268 -188 -458 -188c-84 0 -162 14.167 -234 42.5s-132.667 66.833 -182 115.5
s-88 106.167 -116 172.5s-42 136.833 -42 211.5s14.167 145.334 42.5 212.001s67 124.167 116 172.5s108.167 86.666 177.5 114.999s143.333 42.5 222 42.5c102.667 0 195.334 -23.667 278.001 -71s146.667 -110.666 192 -189.999s68 -166.333 68 -261
c0 -34 -3.33301 -65.333 -10 -94zM628 863.999c-72 0 -137.333 -21.667 -196 -65s-98.667 -99 -120 -167h615c-18 68 -54 123.667 -108 167s-117.667 65 -191 65zM490 1340c0 37.333 12.667 68.666 38 93.999s56.666 38 93.999 38s68.666 -12.667 93.999 -38
s38 -56.666 38 -93.999s-12.667 -68.666 -38 -93.999s-56.666 -38 -93.999 -38s-68.666 12.667 -93.999 38s-38 56.666 -38 93.999z" />
    <glyph glyph-name="Eogonek" unicode="&#x118;" horiz-adv-x="1140" 
d="M160 0v1400h852v-204h-616v-390h568v-204h-568v-398h634v-204h-176c-105.333 -87.333 -158 -161.333 -158 -222c0 -27.333 9.16699 -49.833 27.5 -67.5s41.166 -26.5 68.499 -26.5c28.667 0 53.334 7.33301 74.001 22l50 -118c-46 -30.667 -100.667 -46 -164 -46
c-65.333 0 -120 20 -164 60s-66 89.333 -66 148c0 45.333 15 89.5 45 132.5s71 82.167 123 117.5h-530z" />
    <glyph glyph-name="eogonek" unicode="&#x119;" horiz-adv-x="1236" 
d="M1156 444h-854.003c13.333 -79.333 51.5 -144.5 114.5 -195.5s136.833 -76.5 221.5 -76.5c116.667 0 219.334 45.333 308.001 136l156 -144c-96.667 -105.333 -220.667 -166 -372 -182c-89.333 -78 -134 -146 -134 -204c0 -27.333 9.16699 -49.833 27.5 -67.5
s41.166 -26.5 68.499 -26.5c28.667 0 53.334 7.33301 74.001 22l50 -118c-46 -30.667 -100.667 -46 -164 -46c-65.333 0 -120 20 -164 60s-66 89.333 -66 148c0 81.333 46.667 158.666 140 231.999c-147.333 16.667 -266.166 75 -356.499 175s-135.5 220.333 -135.5 361
c0 74.667 14.167 145.334 42.5 212.001s67 124.167 116 172.5s108.167 86.666 177.5 114.999s143.333 42.5 222 42.5c102.667 0 195.334 -23.667 278.001 -71s146.667 -110.666 192 -189.999s68 -166.333 68 -261c0 -34 -3.33301 -65.333 -10 -94zM627.997 864
c-72 0 -137.333 -21.667 -196 -65s-98.667 -99 -120 -167h614c-18.667 68 -55 123.667 -109 167s-117 65 -189 65z" />
    <glyph glyph-name="Ecaron" unicode="&#x11a;" horiz-adv-x="1140" 
d="M160 0v1400h852v-204h-616v-390h568v-204h-568v-398h634v-204h-870zM958 1850l-292 -342h-156l-292 342h222l148 -170l148 170h222z" />
    <glyph glyph-name="ecaron" unicode="&#x11b;" horiz-adv-x="1236" 
d="M1156 444l-853 -0.000976562c13.333 -79.333 51.166 -144.5 113.499 -195.5s136.166 -76.5 221.499 -76.5c116.667 0 219.334 45.333 308.001 136l156 -144c-115.333 -125.333 -268 -188 -458 -188c-84 0 -162 14.167 -234 42.5s-132.667 66.833 -182 115.5
s-88 106.167 -116 172.5s-42 136.833 -42 211.5s14.167 145.334 42.5 212.001s67 124.167 116 172.5s108.167 86.666 177.5 114.999s143.333 42.5 222 42.5c102.667 0 195.334 -23.667 278.001 -71s146.667 -110.666 192 -189.999s68 -166.333 68 -261
c0 -34 -3.33301 -65.333 -10 -94zM628 863.999c-72 0 -137.333 -21.667 -196 -65s-98.667 -99 -120 -167h615c-18 68 -54 123.667 -108 167s-117.667 65 -191 65zM992 1506l-292 -342h-156l-292 342h222l148 -170l148 170h222z" />
    <glyph glyph-name="Gcircumflex" unicode="&#x11c;" horiz-adv-x="1450" 
d="M826 1216c-141.333 0 -261.001 -49.6699 -359.001 -149.003s-147 -221.666 -147 -366.999s49 -267.666 147 -366.999s217.667 -149 359 -149c44.667 0 90.167 6.16699 136.5 18.5s86.833 29.5 121.5 51.5v302h-340v204h576v-608
c-64 -55.333 -138.833 -98.5 -224.5 -129.5s-175.5 -46.5 -269.5 -46.5c-138.667 0 -265 31.833 -379 95.5s-203.667 150.834 -269 261.501s-98 233 -98 367s32.667 256.333 98 367s155 197.834 269 261.501s240.333 95.5 379 95.5c176 0 332.667 -52 470 -156l-118 -178
c-62.667 41.333 -120.667 72.666 -174 93.999s-112.666 32 -177.999 32zM845.999 1850l292 -342h-222l-148 170l-148 -170h-222l292 342h156z" />
    <glyph glyph-name="gcircumflex" unicode="&#x11d;" horiz-adv-x="1312" 
d="M640 180c66.667 0 127.168 16.832 181.501 50.499s95.166 78.834 122.499 135.501v302c-27.333 56.667 -68.333 102.167 -123 136.5s-115 51.5 -181 51.5c-94.667 0 -174.667 -32.667 -240 -98s-98 -145.333 -98 -240s32.667 -174.667 98 -240s145.333 -98 240 -98z
M1172 1036l-0.000976562 -980c0 -160 -46.667 -286.667 -140 -380s-228.666 -140 -405.999 -140c-97.333 0 -187.5 18.5 -270.5 55.5s-153.5 88.5 -211.5 154.5l150 146c97.333 -106.667 207.333 -160 330 -160c98 0 175.833 27.167 233.5 81.5s86.5 129.833 86.5 226.5v72
c-90.667 -90.667 -205.334 -136 -344.001 -136c-100 0 -190.833 24.667 -272.5 74s-145 115.333 -190 198s-67.5 172.667 -67.5 270s22.5 187.333 67.5 270s108.333 148.667 190 198s172.5 74 272.5 74c138.667 0 253.334 -45.333 344.001 -136v112h228zM718 1526l292 -342
h-222l-148 170l-148 -170h-222l292 342h156z" />
    <glyph glyph-name="Gbreve" unicode="&#x11e;" horiz-adv-x="1450" 
d="M826 1216c-141.333 0 -261.001 -49.6699 -359.001 -149.003s-147 -221.666 -147 -366.999s49 -267.666 147 -366.999s217.667 -149 359 -149c44.667 0 90.167 6.16699 136.5 18.5s86.833 29.5 121.5 51.5v302h-340v204h576v-608
c-64 -55.333 -138.833 -98.5 -224.5 -129.5s-175.5 -46.5 -269.5 -46.5c-138.667 0 -265 31.833 -379 95.5s-203.667 150.834 -269 261.501s-98 233 -98 367s32.667 256.333 98 367s155 197.834 269 261.501s240.333 95.5 379 95.5c176 0 332.667 -52 470 -156l-118 -178
c-62.667 41.333 -120.667 72.666 -174 93.999s-112.666 32 -177.999 32zM767.999 1488c-89.333 0 -166.833 29.667 -232.5 89s-100.834 134.333 -105.501 225h200c0.666992 -42 14.334 -76.833 41.001 -104.5s59 -41.5 97 -41.5s70.333 13.833 97 41.5
s40.334 62.5 41.001 104.5h200c-4.66699 -90.667 -39.834 -165.667 -105.501 -225s-143.167 -89 -232.5 -89z" />
    <glyph glyph-name="gbreve" unicode="&#x11f;" horiz-adv-x="1312" 
d="M640 180c66.667 0 127.168 16.832 181.501 50.499s95.166 78.834 122.499 135.501v302c-27.333 56.667 -68.333 102.167 -123 136.5s-115 51.5 -181 51.5c-94.667 0 -174.667 -32.667 -240 -98s-98 -145.333 -98 -240s32.667 -174.667 98 -240s145.333 -98 240 -98z
M1172 1036l-0.000976562 -980c0 -160 -46.667 -286.667 -140 -380s-228.666 -140 -405.999 -140c-97.333 0 -187.5 18.5 -270.5 55.5s-153.5 88.5 -211.5 154.5l150 146c97.333 -106.667 207.333 -160 330 -160c98 0 175.833 27.167 233.5 81.5s86.5 129.833 86.5 226.5v72
c-90.667 -90.667 -205.334 -136 -344.001 -136c-100 0 -190.833 24.667 -272.5 74s-145 115.333 -190 198s-67.5 172.667 -67.5 270s22.5 187.333 67.5 270s108.333 148.667 190 198s172.5 74 272.5 74c138.667 0 253.334 -45.333 344.001 -136v112h228zM630 1164
c-89.333 0 -166.833 29.667 -232.5 89s-100.834 134.333 -105.501 225h200c0.666992 -42 14.334 -76.833 41.001 -104.5s59 -41.5 97 -41.5s70.333 13.833 97 41.5s40.334 62.5 41.001 104.5h200c-4.66699 -90.667 -39.834 -165.667 -105.501 -225s-143.167 -89 -232.5 -89z
" />
    <glyph glyph-name="Gdotaccent" unicode="&#x120;" horiz-adv-x="1450" 
d="M826 1216c-141.333 0 -261.001 -49.6699 -359.001 -149.003s-147 -221.666 -147 -366.999s49 -267.666 147 -366.999s217.667 -149 359 -149c44.667 0 90.167 6.16699 136.5 18.5s86.833 29.5 121.5 51.5v302h-340v204h576v-608
c-64 -55.333 -138.833 -98.5 -224.5 -129.5s-175.5 -46.5 -269.5 -46.5c-138.667 0 -265 31.833 -379 95.5s-203.667 150.834 -269 261.501s-98 233 -98 367s32.667 256.333 98 367s155 197.834 269 261.501s240.333 95.5 379 95.5c176 0 332.667 -52 470 -156l-118 -178
c-62.667 41.333 -120.667 72.666 -174 93.999s-112.666 32 -177.999 32zM635.999 1664c0 37.333 12.667 68.666 38 93.999s56.666 38 93.999 38s68.666 -12.667 93.999 -38s38 -56.666 38 -93.999s-12.667 -68.666 -38 -93.999s-56.666 -38 -93.999 -38
s-68.666 12.667 -93.999 38s-38 56.666 -38 93.999z" />
    <glyph glyph-name="gdotaccent" unicode="&#x121;" horiz-adv-x="1312" 
d="M640 180c66.667 0 127.168 16.832 181.501 50.499s95.166 78.834 122.499 135.501v302c-27.333 56.667 -68.333 102.167 -123 136.5s-115 51.5 -181 51.5c-94.667 0 -174.667 -32.667 -240 -98s-98 -145.333 -98 -240s32.667 -174.667 98 -240s145.333 -98 240 -98z
M1172 1036l-0.000976562 -980c0 -160 -46.667 -286.667 -140 -380s-228.666 -140 -405.999 -140c-97.333 0 -187.5 18.5 -270.5 55.5s-153.5 88.5 -211.5 154.5l150 146c97.333 -106.667 207.333 -160 330 -160c98 0 175.833 27.167 233.5 81.5s86.5 129.833 86.5 226.5v72
c-90.667 -90.667 -205.334 -136 -344.001 -136c-100 0 -190.833 24.667 -272.5 74s-145 115.333 -190 198s-67.5 172.667 -67.5 270s22.5 187.333 67.5 270s108.333 148.667 190 198s172.5 74 272.5 74c138.667 0 253.334 -45.333 344.001 -136v112h228zM488 1340
c0 37.333 12.667 68.666 38 93.999s56.666 38 93.999 38s68.666 -12.667 93.999 -38s38 -56.666 38 -93.999s-12.667 -68.666 -38 -93.999s-56.666 -38 -93.999 -38s-68.666 12.667 -93.999 38s-38 56.666 -38 93.999z" />
    <glyph glyph-name="Gcommaaccent" unicode="&#x122;" horiz-adv-x="1450" 
d="M826 1216c-141.333 0 -261.001 -49.6699 -359.001 -149.003s-147 -221.666 -147 -366.999s49 -267.666 147 -366.999s217.667 -149 359 -149c44.667 0 90.167 6.16699 136.5 18.5s86.833 29.5 121.5 51.5v302h-340v204h576v-608
c-64 -55.333 -138.833 -98.5 -224.5 -129.5s-175.5 -46.5 -269.5 -46.5c-138.667 0 -265 31.833 -379 95.5s-203.667 150.834 -269 261.501s-98 233 -98 367s32.667 256.333 98 367s155 197.834 269 261.501s240.333 95.5 379 95.5c176 0 332.667 -52 470 -156l-118 -178
c-62.667 41.333 -120.667 72.666 -174 93.999s-112.666 32 -177.999 32zM769.999 -470.003h-205l154 342h229z" />
    <glyph glyph-name="gcommaaccent" unicode="&#x123;" horiz-adv-x="1312" 
d="M640 180c66.667 0 127.168 16.832 181.501 50.499s95.166 78.834 122.499 135.501v302c-27.333 56.667 -68.333 102.167 -123 136.5s-115 51.5 -181 51.5c-94.667 0 -174.667 -32.667 -240 -98s-98 -145.333 -98 -240s32.667 -174.667 98 -240s145.333 -98 240 -98z
M1172 1036l-0.000976562 -980c0 -160 -46.667 -286.667 -140 -380s-228.666 -140 -405.999 -140c-97.333 0 -187.5 18.5 -270.5 55.5s-153.5 88.5 -211.5 154.5l150 146c97.333 -106.667 207.333 -160 330 -160c98 0 175.833 27.167 233.5 81.5s86.5 129.833 86.5 226.5v72
c-90.667 -90.667 -205.334 -136 -344.001 -136c-100 0 -190.833 24.667 -272.5 74s-145 115.333 -190 198s-67.5 172.667 -67.5 270s22.5 187.333 67.5 270s108.333 148.667 190 198s172.5 74 272.5 74c138.667 0 253.334 -45.333 344.001 -136v112h228zM678 1514h205
l-154 -342h-229z" />
    <glyph glyph-name="Hcircumflex" unicode="&#x124;" horiz-adv-x="1408" 
d="M782 1850l292 -342h-222l-148 170l-148 -170h-222l292 342h156zM160 0v1400h236v-594h616v594h236v-1400h-236v602h-616v-602h-236z" />
    <glyph glyph-name="hcircumflex" unicode="&#x125;" horiz-adv-x="1220" 
d="M368 688l0.000976562 -688.001h-228v1460h228v-544c39.333 43.333 86.5 78.166 141.5 104.499s111.167 39.5 168.5 39.5c125.333 0 227 -39.667 305 -119s117 -183.666 117 -312.999v-628h-228v616c0 70.667 -22 128.334 -66 173.001s-101.333 67 -172 67
c-49.333 0 -98.333 -16.5 -147 -49.5s-88.334 -72.5 -119.001 -118.5zM332.001 1910l292 -342h-222l-148 170l-148 -170h-222l292 342h156z" />
    <glyph glyph-name="Hbar" unicode="&#x126;" horiz-adv-x="1428" 
d="M170 0v1032h-120v172h120v196h236v-196h616v196h236v-196h120v-172h-120v-1032h-236v602h-616v-602h-236zM406 806h616v226h-616v-226z" />
    <glyph glyph-name="hbar" unicode="&#x127;" horiz-adv-x="1240" 
d="M20 1160l0.000976562 151.999h140v148h228v-148h322v-152h-322v-244c39.333 43.333 86.5 78.166 141.5 104.499s111.167 39.5 168.5 39.5c125.333 0 227 -39.667 305 -119s117 -183.666 117 -312.999v-628h-228v616c0 70.667 -22 128.334 -66 173.001
s-101.333 67 -172 67c-49.333 0 -98.333 -16.5 -147 -49.5s-88.334 -72.5 -119.001 -118.5v-688h-228v1160h-140z" />
    <glyph glyph-name="Itilde" unicode="&#x128;" horiz-adv-x="576" 
d="M170 1400h236v-1400h-236v1400zM302 1566c-48 26.667 -82.667 40 -104 40c-31.333 0 -52.666 -25.667 -63.999 -77l-193 39c14.667 73.333 37.667 128 69 164s72.666 54 123.999 54c39.333 0 86 -15.333 140 -46c48 -26.667 82.667 -40 104 -40
c31.333 0 52.666 25.667 63.999 77l193 -39c-14.667 -73.333 -37.667 -128 -69 -164s-72.666 -54 -123.999 -54c-40 0 -86.667 15.333 -140 46z" />
    <glyph glyph-name="itilde" unicode="&#x129;" horiz-adv-x="528" 
d="M150 0v1036h228v-1036h-228zM278 1242c-48 26.667 -82.667 40 -104 40c-31.333 0 -52.666 -25.667 -63.999 -77l-193 39c14.667 73.333 37.667 128 69 164s72.666 54 123.999 54c40 0 86.667 -15.333 140 -46c48 -26.667 82.667 -40 104 -40
c31.333 0 52.666 25.667 63.999 77l193 -39c-14.667 -73.333 -37.667 -128 -69 -164s-72.666 -54 -123.999 -54c-40 0 -86.667 15.333 -140 46z" />
    <glyph glyph-name="Imacron" unicode="&#x12a;" horiz-adv-x="576" 
d="M170 1400h236v-1400h-236v1400zM-12 1570v176h600v-176h-600z" />
    <glyph glyph-name="imacron" unicode="&#x12b;" horiz-adv-x="528" 
d="M150 0v1036h228v-1036h-228zM-36 1246v176h600v-176h-600z" />
    <glyph glyph-name="Ibreve" unicode="&#x12c;" horiz-adv-x="576" 
d="M170 1400h236v-1400h-236v1400zM288 1488c-89.333 0 -166.833 29.667 -232.5 89s-100.834 134.333 -105.501 225h200c0.666992 -42 14.334 -76.833 41.001 -104.5s59 -41.5 97 -41.5s70.333 13.833 97 41.5s40.334 62.5 41.001 104.5h200
c-4.66699 -90.667 -39.834 -165.667 -105.501 -225s-143.167 -89 -232.5 -89z" />
    <glyph glyph-name="ibreve" unicode="&#x12d;" horiz-adv-x="528" 
d="M150 0v1036h228v-1036h-228zM264 1164c-89.333 0 -166.833 29.667 -232.5 89s-100.834 134.333 -105.501 225h200c0.666992 -42 14.334 -76.833 41.001 -104.5s59 -41.5 97 -41.5s70.333 13.833 97 41.5s40.334 62.5 41.001 104.5h200
c-4.66699 -90.667 -39.834 -165.667 -105.501 -225s-143.167 -89 -232.5 -89z" />
    <glyph glyph-name="Iogonek" unicode="&#x12e;" horiz-adv-x="576" 
d="M242 0h-72v1400h236v-1400c-105.333 -87.333 -158 -161.333 -158 -222c0 -27.333 9.16699 -49.833 27.5 -67.5s41.166 -26.5 68.499 -26.5c28.667 0 53.334 7.33301 74.001 22l50 -118c-46 -30.667 -100.667 -46 -164 -46c-65.333 0 -120 20 -164 60s-66 89.333 -66 148
c0 45.333 15 89.5 45 132.5s71 82.167 123 117.5z" />
    <glyph glyph-name="iogonek" unicode="&#x12f;" horiz-adv-x="528" 
d="M150 0v1036h228v-1036c-105.333 -87.333 -158 -161.333 -158 -222c0 -27.333 9.16699 -49.833 27.5 -67.5s41.166 -26.5 68.499 -26.5c28.667 0 53.334 7.33301 74.001 22l50 -118c-46 -30.667 -100.667 -46 -164 -46c-65.333 0 -120 20 -164 60s-66 89.333 -66 148
c0 45.333 15 89.5 45 132.5s71 82.167 123 117.5h-64zM122 1318c0 40 13.667 73.667 41 101s61 41 101 41s73.667 -13.667 101 -41s41 -61 41 -101s-13.667 -73.667 -41 -101s-61 -41 -101 -41s-73.667 13.667 -101 41s-41 61 -41 101z" />
    <glyph glyph-name="Idotaccent" unicode="&#x130;" horiz-adv-x="576" 
d="M170 1400h236v-1400h-236v1400zM156 1664c0 37.333 12.667 68.666 38 93.999s56.666 38 93.999 38s68.666 -12.667 93.999 -38s38 -56.666 38 -93.999s-12.667 -68.666 -38 -93.999s-56.666 -38 -93.999 -38s-68.666 12.667 -93.999 38s-38 56.666 -38 93.999z" />
    <glyph glyph-name="dotlessi" unicode="&#x131;" horiz-adv-x="528" 
d="M150 0v1036h228v-1036h-228z" />
    <glyph glyph-name="IJ" unicode="&#x132;" horiz-adv-x="1460" 
d="M170 1400h236v-1400h-236v1400zM1074 446v954h236v-954c0 -162 -38 -280.833 -114 -356.5s-189.333 -113.5 -340 -113.5c-48.667 0 -98.667 6.16699 -150 18.5s-94.666 28.833 -129.999 49.5l76 198c65.333 -38.667 132 -58 200 -58c73.333 0 128.666 20.667 165.999 62
s56 108 56 200z" />
    <glyph glyph-name="ij" unicode="&#x133;" horiz-adv-x="1056" 
d="M150 0v1036h228v-1036h-228zM122 1318c0 40 13.667 73.667 41 101s61 41 101 41s73.667 -13.667 101 -41s41 -61 41 -101s-13.667 -73.667 -41 -101s-61 -41 -101 -41s-73.667 13.667 -101 41s-41 61 -41 101zM650 1318c0 40 13.667 73.667 41 101s61 41 101 41
s73.667 -13.667 101 -41s41 -61 41 -101s-13.667 -73.667 -41 -101s-61 -41 -101 -41s-73.667 13.667 -101 41s-41 61 -41 101zM678 -108l-0.000976562 1144h228v-1140c0 -129.333 -26.333 -221.666 -79 -276.999s-139 -83 -259 -83c-29.333 0 -56 1.33301 -80 4v196h52
c48.667 0 83.834 11.667 105.501 35s32.5 63.666 32.5 120.999z" />
    <glyph glyph-name="Jcircumflex" unicode="&#x134;" horiz-adv-x="924" 
d="M538 446v954h236v-954c0 -162 -38 -280.833 -114 -356.5s-189.333 -113.5 -340 -113.5c-48.667 0 -98.667 6.16699 -150 18.5s-94.666 28.833 -129.999 49.5l76 198c65.333 -38.667 132 -58 200 -58c73.333 0 128.666 20.667 165.999 62s56 108 56 200zM734 1850
l292 -342h-222l-148 170l-148 -170h-222l292 342h156z" />
    <glyph glyph-name="jcircumflex" unicode="&#x135;" horiz-adv-x="528" 
d="M150 -108l-0.000976562 1144h228v-1140c0 -129.333 -26.333 -221.666 -79 -276.999s-139 -83 -259 -83c-29.333 0 -56 1.33301 -80 4v196h52c48.667 0 83.834 11.667 105.501 35s32.5 63.666 32.5 120.999zM341.999 1526l292 -342h-222l-148 170l-148 -170h-222l292 342
h156z" />
    <glyph glyph-name="Kcommaaccent" unicode="&#x136;" horiz-adv-x="1216" 
d="M396 1400v-594h85l397 594h268l-466 -692l546 -708h-276l-462 602h-92v-602h-236v1400h236zM608 -470h-205l154 342h229z" />
    <glyph glyph-name="kcommaaccent" unicode="&#x137;" horiz-adv-x="1040" 
d="M780 0l-314 478h-98v-478h-228v1460h228v-786h101l249 362h268l-330 -460l384 -576h-260zM492 -470h-205l154 342h229z" />
    <glyph glyph-name="kgreenlandic" unicode="&#x138;" horiz-adv-x="1040" 
d="M780 0l-314 478h-98v-478h-228v1036h228v-362h101l249 362h268l-330 -460l384 -576h-260z" />
    <glyph glyph-name="Lacute" unicode="&#x139;" horiz-adv-x="1030" 
d="M160 0v1400h236v-1196h594v-204h-830zM160 1508l272 342h229l-279 -342h-222z" />
    <glyph glyph-name="lacute" unicode="&#x13a;" horiz-adv-x="528" 
d="M150 0v1460h228v-1460h-228zM100 1568l272 342h229l-279 -342h-222z" />
    <glyph glyph-name="Lcommaaccent" unicode="&#x13b;" horiz-adv-x="1030" 
d="M160 0v1400h236v-1196h594v-204h-830zM548 -470h-205l154 342h229z" />
    <glyph glyph-name="lcommaaccent" unicode="&#x13c;" horiz-adv-x="528" 
d="M150 0v1460h228v-1460h-228zM224 -470h-205l154 342h229z" />
    <glyph glyph-name="Lcaron" unicode="&#x13d;" horiz-adv-x="1030" 
d="M160 0v1400h236v-1196h594v-204h-830zM626 1282c0 40 13.668 73.667 41.001 101s61 41 101 41s73.667 -13.667 101 -41s41 -61 41 -101c0 -20.667 -5.33301 -42.667 -16 -66l-136 -294h-144l102 226c-26.667 10 -48.334 27 -65.001 51s-25 51.667 -25 83z" />
    <glyph glyph-name="lcaron" unicode="&#x13e;" horiz-adv-x="830" 
d="M150 0v1460h228v-1460h-228zM506 1342c0 40 13.668 73.667 41.001 101s61 41 101 41s73.667 -13.667 101 -41s41 -61 41 -101c0 -20.667 -5.33301 -42.667 -16 -66l-136 -294h-144l102 226c-26.667 10 -48.334 27 -65.001 51s-25 51.667 -25 83z" />
    <glyph glyph-name="Ldot" unicode="&#x13f;" horiz-adv-x="1030" 
d="M160 0v1400h236v-1196h594v-204h-830zM602 752c0 37.333 12.667 68.666 38 93.999s56.666 38 93.999 38s68.666 -12.667 93.999 -38s38 -56.666 38 -93.999s-12.667 -68.666 -38 -93.999s-56.666 -38 -93.999 -38s-68.666 12.667 -93.999 38s-38 56.666 -38 93.999z" />
    <glyph glyph-name="ldot" unicode="&#x140;" horiz-adv-x="826" 
d="M150 0v1460h228v-1460h-228zM514 752c0 37.333 12.667 68.666 38 93.999s56.666 38 93.999 38s68.666 -12.667 93.999 -38s38 -56.666 38 -93.999s-12.667 -68.666 -38 -93.999s-56.666 -38 -93.999 -38s-68.666 12.667 -93.999 38s-38 56.666 -38 93.999z" />
    <glyph glyph-name="Lslash" unicode="&#x141;" horiz-adv-x="1060" 
d="M190 0v528l-140 -72v188l140 72v684h236v-563l348 179v-188l-348 -179v-445h594v-204h-830z" />
    <glyph glyph-name="lslash" unicode="&#x142;" horiz-adv-x="588" 
d="M568 812l-160 -81v-731h-228v616l-160 -80v172l160 80v672h228v-557l160 81v-172z" />
    <glyph glyph-name="Nacute" unicode="&#x143;" horiz-adv-x="1408" 
d="M160 0v1400h228l632 -992v992h228v-1400h-228l-632 992v-992h-228zM536 1508l272 342h229l-279 -342h-222z" />
    <glyph glyph-name="nacute" unicode="&#x144;" horiz-adv-x="1220" 
d="M368 688l0.000976562 -688.001h-228v1036h228v-120c39.333 43.333 86.5 78.166 141.5 104.499s111.167 39.5 168.5 39.5c125.333 0 227 -39.667 305 -119s117 -183.666 117 -312.999v-628h-228v616c0 70.667 -22 128.334 -66 173.001s-101.333 67 -172 67
c-49.333 0 -98.333 -16.5 -147 -49.5s-88.334 -72.5 -119.001 -118.5zM453.001 1184l272 342h229l-279 -342h-222z" />
    <glyph glyph-name="Ncommaaccent" unicode="&#x145;" horiz-adv-x="1408" 
d="M160 0v1400h228l632 -992v992h228v-1400h-228l-632 992v-992h-228zM684 -470h-205l154 342h229z" />
    <glyph glyph-name="ncommaaccent" unicode="&#x146;" horiz-adv-x="1220" 
d="M368 688l0.000976562 -688.001h-228v1036h228v-120c39.333 43.333 86.5 78.166 141.5 104.499s111.167 39.5 168.5 39.5c125.333 0 227 -39.667 305 -119s117 -183.666 117 -312.999v-628h-228v616c0 70.667 -22 128.334 -66 173.001s-101.333 67 -172 67
c-49.333 0 -98.333 -16.5 -147 -49.5s-88.334 -72.5 -119.001 -118.5zM592.001 -470.001h-205l154 342h229z" />
    <glyph glyph-name="Ncaron" unicode="&#x147;" horiz-adv-x="1408" 
d="M1074 1850l-292 -342h-156l-292 342h222l148 -170l148 170h222zM160 0v1400h228l632 -992v992h228v-1400h-228l-632 992v-992h-228z" />
    <glyph glyph-name="ncaron" unicode="&#x148;" horiz-adv-x="1220" 
d="M368 688l0.000976562 -688.001h-228v1036h228v-120c39.333 43.333 86.5 78.166 141.5 104.499s111.167 39.5 168.5 39.5c125.333 0 227 -39.667 305 -119s117 -183.666 117 -312.999v-628h-228v616c0 70.667 -22 128.334 -66 173.001s-101.333 67 -172 67
c-49.333 0 -98.333 -16.5 -147 -49.5s-88.334 -72.5 -119.001 -118.5zM956.001 1506l-292 -342h-156l-292 342h222l148 -170l148 170h222z" />
    <glyph glyph-name="napostrophe" unicode="&#x149;" horiz-adv-x="1420" 
d="M568 688l0.000976562 -688.001h-228v1036h228v-120c39.333 43.333 86.5 78.166 141.5 104.499s111.167 39.5 168.5 39.5c125.333 0 227 -39.667 305 -119s117 -183.666 117 -312.999v-628h-228v616c0 70.667 -22 128.334 -66 173.001s-101.333 67 -172 67
c-49.333 0 -98.333 -16.5 -147 -49.5s-88.334 -72.5 -119.001 -118.5zM60.001 1342c0 40 13.668 73.667 41.001 101s61 41 101 41s73.667 -13.667 101 -41s41 -61 41 -101c0 -20.667 -5.33301 -42.667 -16 -66l-136 -294h-144l102 226c-26.667 10 -48.334 27 -65.001 51
s-25 51.667 -25 83z" />
    <glyph glyph-name="Eng" unicode="&#x14a;" horiz-adv-x="1408" 
d="M1020 -96v96.002l-632 992v-992h-228v1400h228l632 -992v992h228v-1498c0 -126.667 -31.5 -219.334 -94.5 -278.001s-162.167 -88 -297.5 -88c-44 0 -80.667 2.66699 -110 8v196c34.667 -2.66699 64.667 -4 90 -4c66.667 0 114 13.167 142 39.5s42 69.166 42 128.499z
" />
    <glyph glyph-name="eng" unicode="&#x14b;" horiz-adv-x="1220" 
d="M872 -96l0.000976562 712.001c0 70.667 -22 128.334 -66 173.001s-101.333 67 -172 67c-49.333 0 -98.333 -16.5 -147 -49.5s-88.334 -72.5 -119.001 -118.5v-688h-228v1036h228v-120c39.333 43.333 86.5 78.166 141.5 104.499s111.167 39.5 168.5 39.5
c125.333 0 227 -39.667 305 -119s117 -183.666 117 -312.999v-726c0 -126.667 -31.5 -219.334 -94.5 -278.001s-162.167 -88 -297.5 -88c-44 0 -80.667 2.66699 -110 8v196c26.667 -2.66699 56.667 -4 90 -4c66.667 0 114 13.167 142 39.5s42 69.166 42 128.499z" />
    <glyph glyph-name="Omacron" unicode="&#x14c;" horiz-adv-x="1652" 
d="M826 184c141.333 0 261 49.667 359 149s147 221.666 147 366.999s-49 267.666 -147 366.999s-217.667 149 -359 149s-261 -49.667 -359 -149s-147 -221.666 -147 -366.999s49 -267.666 147 -366.999s217.667 -149 359 -149zM826 1424c138.667 0 265 -31.833 379 -95.5
s203.667 -150.834 269 -261.501s98 -233 98 -367s-32.667 -256.333 -98 -367s-155 -197.834 -269 -261.501s-240.333 -95.5 -379 -95.5s-265 31.833 -379 95.5s-203.667 150.834 -269 261.501s-98 233 -98 367s32.667 256.333 98 367s155 197.834 269 261.501
s240.333 95.5 379 95.5zM526 1570v176h600v-176h-600z" />
    <glyph glyph-name="omacron" unicode="&#x14d;" horiz-adv-x="1280" 
d="M340 1246v176h600v-176h-600zM640 180c94.667 0 174.667 32.667 240 98s98 145.333 98 240s-32.667 174.667 -98 240s-145.333 98 -240 98s-174.667 -32.667 -240 -98s-98 -145.333 -98 -240s32.667 -174.667 98 -240s145.333 -98 240 -98zM640 1060
c107.333 0 204.666 -24 291.999 -72s155.5 -113.5 204.5 -196.5s73.5 -174.167 73.5 -273.5s-24.5 -190.5 -73.5 -273.5s-117.167 -148.5 -204.5 -196.5s-184.666 -72 -291.999 -72s-204.666 24 -291.999 72s-155.5 113.5 -204.5 196.5s-73.5 174.167 -73.5 273.5
s24.5 190.5 73.5 273.5s117.167 148.5 204.5 196.5s184.666 72 291.999 72z" />
    <glyph glyph-name="Obreve" unicode="&#x14e;" horiz-adv-x="1652" 
d="M826 1488c-89.333 0 -166.833 29.667 -232.5 89s-100.834 134.333 -105.501 225h200c0.666992 -42 14.334 -76.833 41.001 -104.5s59 -41.5 97 -41.5s70.333 13.833 97 41.5s40.334 62.5 41.001 104.5h200c-4.66699 -90.667 -39.834 -165.667 -105.501 -225
s-143.167 -89 -232.5 -89zM826 184c141.333 0 261 49.667 359 149s147 221.666 147 366.999s-49 267.666 -147 366.999s-217.667 149 -359 149s-261 -49.667 -359 -149s-147 -221.666 -147 -366.999s49 -267.666 147 -366.999s217.667 -149 359 -149zM826 1424
c138.667 0 265 -31.833 379 -95.5s203.667 -150.834 269 -261.501s98 -233 98 -367s-32.667 -256.333 -98 -367s-155 -197.834 -269 -261.501s-240.333 -95.5 -379 -95.5s-265 31.833 -379 95.5s-203.667 150.834 -269 261.501s-98 233 -98 367s32.667 256.333 98 367
s155 197.834 269 261.501s240.333 95.5 379 95.5z" />
    <glyph glyph-name="obreve" unicode="&#x14f;" horiz-adv-x="1280" 
d="M640 1164c-89.333 0 -166.833 29.667 -232.5 89s-100.834 134.333 -105.501 225h200c0.666992 -42 14.334 -76.833 41.001 -104.5s59 -41.5 97 -41.5s70.333 13.833 97 41.5s40.334 62.5 41.001 104.5h200c-4.66699 -90.667 -39.834 -165.667 -105.501 -225
s-143.167 -89 -232.5 -89zM640 180c94.667 0 174.667 32.667 240 98s98 145.333 98 240s-32.667 174.667 -98 240s-145.333 98 -240 98s-174.667 -32.667 -240 -98s-98 -145.333 -98 -240s32.667 -174.667 98 -240s145.333 -98 240 -98zM640 1060
c107.333 0 204.666 -24 291.999 -72s155.5 -113.5 204.5 -196.5s73.5 -174.167 73.5 -273.5s-24.5 -190.5 -73.5 -273.5s-117.167 -148.5 -204.5 -196.5s-184.666 -72 -291.999 -72s-204.666 24 -291.999 72s-155.5 113.5 -204.5 196.5s-73.5 174.167 -73.5 273.5
s24.5 190.5 73.5 273.5s117.167 148.5 204.5 196.5s184.666 72 291.999 72z" />
    <glyph glyph-name="Ohungarumlaut" unicode="&#x150;" horiz-adv-x="1652" 
d="M826 184c141.333 0 261 49.667 359 149s147 221.666 147 366.999s-49 267.666 -147 366.999s-217.667 149 -359 149s-261 -49.667 -359 -149s-147 -221.666 -147 -366.999s49 -267.666 147 -366.999s217.667 -149 359 -149zM826 1424c138.667 0 265 -31.833 379 -95.5
s203.667 -150.834 269 -261.501s98 -233 98 -367s-32.667 -256.333 -98 -367s-155 -197.834 -269 -261.501s-240.333 -95.5 -379 -95.5s-265 31.833 -379 95.5s-203.667 150.834 -269 261.501s-98 233 -98 367s32.667 256.333 98 367s155 197.834 269 261.501
s240.333 95.5 379 95.5zM521 1508l272 342h229l-279 -342h-222zM851 1508l272 342h229l-279 -342h-222z" />
    <glyph glyph-name="ohungarumlaut" unicode="&#x151;" horiz-adv-x="1280" 
d="M640 180c94.667 0 174.667 32.667 240 98s98 145.333 98 240s-32.667 174.667 -98 240s-145.333 98 -240 98s-174.667 -32.667 -240 -98s-98 -145.333 -98 -240s32.667 -174.667 98 -240s145.333 -98 240 -98zM640 1060c107.333 0 204.666 -24 291.999 -72
s155.5 -113.5 204.5 -196.5s73.5 -174.167 73.5 -273.5s-24.5 -190.5 -73.5 -273.5s-117.167 -148.5 -204.5 -196.5s-184.666 -72 -291.999 -72s-204.666 24 -291.999 72s-155.5 113.5 -204.5 196.5s-73.5 174.167 -73.5 273.5s24.5 190.5 73.5 273.5
s117.167 148.5 204.5 196.5s184.666 72 291.999 72zM313 1184l272 342h229l-279 -342h-222zM643 1184l272 342h229l-279 -342h-222z" />
    <glyph glyph-name="OE" unicode="&#x152;" horiz-adv-x="1806" 
d="M826 208l20 -0.00195312v984h-20c-142.667 0 -262.667 -47.167 -360 -141.5s-146 -211.166 -146 -350.499s48.667 -256.166 146 -350.499s217.333 -141.5 360 -141.5zM1696 -0.00195312h-870c-102.667 0 -200 18 -292 54s-171.167 85 -237.5 147s-119 136.333 -158 223
s-58.5 178.667 -58.5 276s19.5 189.333 58.5 276s91.667 161 158 223s145.5 111 237.5 147s189.333 54 292 54h852v-204h-596v-390h548v-204h-548v-398h614v-204z" />
    <glyph glyph-name="oe" unicode="&#x153;" horiz-adv-x="2146" 
d="M640 1060c93.333 0 179.996 -20.6689 259.996 -62.002s144.667 -96.666 194 -165.999c46.667 68 109.667 123 189 165s164.333 63 255 63c102.667 0 195.334 -23.667 278.001 -71s146.667 -110.666 192 -189.999s68 -166.333 68 -261c0 -34 -3.33301 -65.333 -10 -94
h-854c13.333 -79.333 51.5 -144.5 114.5 -195.5s136.833 -76.5 221.5 -76.5c116.667 0 219.334 45.333 308.001 136l156 -144c-115.333 -125.333 -268 -188 -458 -188c-97.333 0 -187 20.833 -269 62.5s-146.333 96.167 -193 163.5
c-49.333 -69.333 -113.666 -124.333 -192.999 -165s-165.666 -61 -258.999 -61c-107.333 0 -204.666 24 -291.999 72s-155.5 113.5 -204.5 196.5s-73.5 174.167 -73.5 273.5s24.5 190.5 73.5 273.5s117.167 148.5 204.5 196.5s184.666 72 291.999 72zM639.996 179.998
c94.667 0 174.667 32.667 240 98s98 145.333 98 240s-32.667 174.667 -98 240s-145.333 98 -240 98s-174.667 -32.667 -240 -98s-98 -145.333 -98 -240s32.667 -174.667 98 -240s145.333 -98 240 -98zM1538 863.998c-72 0 -137.333 -21.667 -196 -65s-98.667 -99 -120 -167
h614c-18.667 68 -55 123.667 -109 167s-117 65 -189 65z" />
    <glyph glyph-name="Racute" unicode="&#x154;" horiz-adv-x="1214" 
d="M160 1400l472 -0.000976562c150 0 268.167 -40.333 354.5 -121s129.5 -189 129.5 -325c0 -110.667 -29.333 -203.667 -88 -279s-140.667 -125.666 -246 -150.999l362 -524h-260l-349 508h-139v-508h-236v1400zM622 1196h-226v-484h226c82 0 144.833 21.5 188.5 64.5
s65.5 102.167 65.5 177.5s-21.833 134.5 -65.5 177.5s-106.5 64.5 -188.5 64.5zM429 1508l272 342h229l-279 -342h-222z" />
    <glyph glyph-name="racute" unicode="&#x155;" horiz-adv-x="810" 
d="M642 856c-54.667 0 -105.832 -17.168 -153.499 -51.501s-87.834 -81.166 -120.501 -140.499v-664h-228v1036h228v-132c88 104 189.333 156 304 156c36 0 67.333 -6.66699 94 -20l-18 -202c-34 12 -69.333 18 -106 18zM233.002 1184l272 342h229l-279 -342h-222z" />
    <glyph glyph-name="Rcommaaccent" unicode="&#x156;" horiz-adv-x="1214" 
d="M160 1400l472 -0.000976562c150 0 268.167 -40.333 354.5 -121s129.5 -189 129.5 -325c0 -110.667 -29.333 -203.667 -88 -279s-140.667 -125.666 -246 -150.999l362 -524h-260l-349 508h-139v-508h-236v1400zM622 1196h-226v-484h226c82 0 144.833 21.5 188.5 64.5
s65.5 102.167 65.5 177.5s-21.833 134.5 -65.5 177.5s-106.5 64.5 -188.5 64.5zM568 -470.001h-205l154 342h229z" />
    <glyph glyph-name="rcommaaccent" unicode="&#x157;" horiz-adv-x="810" 
d="M642 856c-54.667 0 -105.832 -17.168 -153.499 -51.501s-87.834 -81.166 -120.501 -140.499v-664h-228v1036h228v-132c88 104 189.333 156 304 156c36 0 67.333 -6.66699 94 -20l-18 -202c-34 12 -69.333 18 -106 18zM214.002 -470.001h-205l154 342h229z" />
    <glyph glyph-name="Rcaron" unicode="&#x158;" horiz-adv-x="1214" 
d="M160 1400l472 -0.000976562c150 0 268.167 -40.333 354.5 -121s129.5 -189 129.5 -325c0 -110.667 -29.333 -203.667 -88 -279s-140.667 -125.666 -246 -150.999l362 -524h-260l-349 508h-139v-508h-236v1400zM622 1196h-226v-484h226c82 0 144.833 21.5 188.5 64.5
s65.5 102.167 65.5 177.5s-21.833 134.5 -65.5 177.5s-106.5 64.5 -188.5 64.5zM958 1850l-292 -342h-156l-292 342h222l148 -170l148 170h222z" />
    <glyph glyph-name="rcaron" unicode="&#x159;" horiz-adv-x="810" 
d="M642 856c-54.667 0 -105.832 -17.168 -153.499 -51.501s-87.834 -81.166 -120.501 -140.499v-664h-228v1036h228v-132c88 104 189.333 156 304 156c36 0 67.333 -6.66699 94 -20l-18 -202c-34 12 -69.333 18 -106 18zM776.002 1506l-292 -342h-156l-292 342h222l148 -170
l148 170h222z" />
    <glyph glyph-name="Sacute" unicode="&#x15a;" horiz-adv-x="1188" 
d="M98 202l147.997 160.001c48.667 -53.333 103 -96.333 163 -129s121.667 -49 185 -49c82 0 148.167 18 198.5 54s75.5 84.667 75.5 146c0 57.333 -22.667 106.166 -68 146.499s-124.666 72.166 -237.999 95.499c-145.333 30.667 -254 80.834 -326 150.501
s-108 156.167 -108 259.5c0 115.333 42.333 208.833 127 280.5s194.334 107.5 329.001 107.5c184.667 0 335.334 -59.333 452.001 -178l-140 -168c-101.333 92 -202 138 -302 138c-66 0 -120.167 -15 -162.5 -45s-63.5 -69.667 -63.5 -119c0 -56.667 23 -103.5 69 -140.5
s121 -67.5 225 -91.5c159.333 -36.667 273.5 -90.5 342.5 -161.5s103.5 -162.5 103.5 -274.5c0 -122 -45 -220.5 -135 -295.5s-213 -112.5 -369 -112.5c-98.667 0 -193 20 -283 60s-164.333 95.333 -223 166zM438.997 1508l272 342h229l-279 -342h-222z" />
    <glyph glyph-name="sacute" unicode="&#x15b;" horiz-adv-x="942" 
d="M70 148l128.001 151.999c33.333 -38.667 73.333 -69.667 120 -93s96 -35 148 -35c54.667 0 98 11.167 130 33.5s48 52.5 48 90.5c0 37.333 -14.833 67.333 -44.5 90s-80.834 41.334 -153.501 56.001c-115.333 22.667 -200.5 61 -255.5 115s-82.5 124.333 -82.5 211
c0 85.333 33.167 155.333 99.5 210s154.5 82 264.5 82c69.333 0 135 -12.833 197 -38.5s115.667 -59.5 161 -101.5l-122 -154c-40.667 32.667 -77.667 57.167 -111 73.5s-69 24.5 -107 24.5c-44.667 0 -81.5 -9 -110.5 -27s-43.5 -42.333 -43.5 -73
c0 -70 61.333 -117.333 184 -142c121.333 -24.667 210.333 -63.667 267 -117s85 -124.333 85 -213c0 -92.667 -35 -168.5 -105 -227.5s-165 -88.5 -285 -88.5c-84 0 -162.333 15.333 -235 46s-131.667 72.667 -177 126zM303.001 1184l272 342h229l-279 -342h-222z" />
    <glyph glyph-name="Scircumflex" unicode="&#x15c;" horiz-adv-x="1188" 
d="M98 202l147.997 160.001c48.667 -53.333 103 -96.333 163 -129s121.667 -49 185 -49c82 0 148.167 18 198.5 54s75.5 84.667 75.5 146c0 57.333 -22.667 106.166 -68 146.499s-124.666 72.166 -237.999 95.499c-145.333 30.667 -254 80.834 -326 150.501
s-108 156.167 -108 259.5c0 115.333 42.333 208.833 127 280.5s194.334 107.5 329.001 107.5c184.667 0 335.334 -59.333 452.001 -178l-140 -168c-101.333 92 -202 138 -302 138c-66 0 -120.167 -15 -162.5 -45s-63.5 -69.667 -63.5 -119c0 -56.667 23 -103.5 69 -140.5
s121 -67.5 225 -91.5c159.333 -36.667 273.5 -90.5 342.5 -161.5s103.5 -162.5 103.5 -274.5c0 -122 -45 -220.5 -135 -295.5s-213 -112.5 -369 -112.5c-98.667 0 -193 20 -283 60s-164.333 95.333 -223 166zM657.997 1850l292 -342h-222l-148 170l-148 -170h-222l292 342
h156z" />
    <glyph glyph-name="scircumflex" unicode="&#x15d;" horiz-adv-x="942" 
d="M70 148l128.001 151.999c33.333 -38.667 73.333 -69.667 120 -93s96 -35 148 -35c54.667 0 98 11.167 130 33.5s48 52.5 48 90.5c0 37.333 -14.833 67.333 -44.5 90s-80.834 41.334 -153.501 56.001c-115.333 22.667 -200.5 61 -255.5 115s-82.5 124.333 -82.5 211
c0 85.333 33.167 155.333 99.5 210s154.5 82 264.5 82c69.333 0 135 -12.833 197 -38.5s115.667 -59.5 161 -101.5l-122 -154c-40.667 32.667 -77.667 57.167 -111 73.5s-69 24.5 -107 24.5c-44.667 0 -81.5 -9 -110.5 -27s-43.5 -42.333 -43.5 -73
c0 -70 61.333 -117.333 184 -142c121.333 -24.667 210.333 -63.667 267 -117s85 -124.333 85 -213c0 -92.667 -35 -168.5 -105 -227.5s-165 -88.5 -285 -88.5c-84 0 -162.333 15.333 -235 46s-131.667 72.667 -177 126zM538.001 1526l292 -342h-222l-148 170l-148 -170h-222
l292 342h156z" />
    <glyph glyph-name="Scedilla" unicode="&#x15e;" horiz-adv-x="1188" 
d="M554 -216c-16 0 -34.6699 -1.33105 -56.0029 -3.99805l-40 44l82 156c-88 8 -170.833 31.167 -248.5 69.5s-142.167 89.166 -193.5 152.499l148 160c48.667 -53.333 103 -96.333 163 -129s121.667 -49 185 -49c82 0 148.167 18 198.5 54s75.5 84.667 75.5 146
c0 57.333 -22.667 106.166 -68 146.499s-124.666 72.166 -237.999 95.499c-145.333 30.667 -254 80.834 -326 150.501s-108 156.167 -108 259.5c0 115.333 42.333 208.833 127 280.5s194.334 107.5 329.001 107.5c184.667 0 335.334 -59.333 452.001 -178l-140 -168
c-101.333 92 -202 138 -302 138c-66 0 -120.167 -15 -162.5 -45s-63.5 -69.667 -63.5 -119c0 -56.667 23 -103.5 69 -140.5s121 -67.5 225 -91.5c159.333 -36.667 273.5 -90.5 342.5 -161.5s103.5 -162.5 103.5 -274.5c0 -106 -35 -195 -105 -267
s-166.333 -116.333 -289 -133l-56 -88c52 -14 93.333 -39.333 124 -76s46 -78 46 -124c0 -62 -24.833 -113.5 -74.5 -154.5s-112.167 -61.5 -187.5 -61.5c-74 0 -136 20 -186 60l76 108c28 -21.333 60.667 -32 98 -32c29.333 0 53.333 8 72 24s28 36 28 60
s-9.33301 44 -28 60s-42.667 24 -72 24z" />
    <glyph glyph-name="scedilla" unicode="&#x15f;" horiz-adv-x="942" 
d="M420 -216c-16 0 -34.665 -1.33301 -55.998 -4l-40 44l82 156c-68.667 8 -132.334 26.667 -191.001 56s-107 66.666 -145 111.999l128 152c33.333 -38.667 73.333 -69.667 120 -93s96 -35 148 -35c54.667 0 98 11.167 130 33.5s48 52.5 48 90.5
c0 37.333 -14.833 67.333 -44.5 90s-80.834 41.334 -153.501 56.001c-115.333 22.667 -200.5 61 -255.5 115s-82.5 124.333 -82.5 211c0 85.333 33.167 155.333 99.5 210s154.5 82 264.5 82c69.333 0 135 -12.833 197 -38.5s115.667 -59.5 161 -101.5l-122 -154
c-40.667 32.667 -77.667 57.167 -111 73.5s-69 24.5 -107 24.5c-44.667 0 -81.5 -9 -110.5 -27s-43.5 -42.333 -43.5 -73c0 -70 61.333 -117.333 184 -142c121.333 -24.667 210.333 -63.667 267 -117s85 -124.333 85 -213c0 -78 -25.667 -144.833 -77 -200.5
s-122.333 -91.5 -213 -107.5l-58 -88c52 -14 93.333 -39.333 124 -76s46 -78 46 -124c0 -62 -24.833 -113.5 -74.5 -154.5s-112.167 -61.5 -187.5 -61.5c-74 0 -136 20 -186 60l76 108c28 -21.333 60.667 -32 98 -32c29.333 0 53.333 8 72 24s28 36 28 60
s-9.33301 44 -28 60s-42.667 24 -72 24z" />
    <glyph glyph-name="Scaron" unicode="&#x160;" horiz-adv-x="1188" 
d="M98 202l147.997 160.001c48.667 -53.333 103 -96.333 163 -129s121.667 -49 185 -49c82 0 148.167 18 198.5 54s75.5 84.667 75.5 146c0 57.333 -22.667 106.166 -68 146.499s-124.666 72.166 -237.999 95.499c-145.333 30.667 -254 80.834 -326 150.501
s-108 156.167 -108 259.5c0 115.333 42.333 208.833 127 280.5s194.334 107.5 329.001 107.5c184.667 0 335.334 -59.333 452.001 -178l-140 -168c-101.333 92 -202 138 -302 138c-66 0 -120.167 -15 -162.5 -45s-63.5 -69.667 -63.5 -119c0 -56.667 23 -103.5 69 -140.5
s121 -67.5 225 -91.5c159.333 -36.667 273.5 -90.5 342.5 -161.5s103.5 -162.5 103.5 -274.5c0 -122 -45 -220.5 -135 -295.5s-213 -112.5 -369 -112.5c-98.667 0 -193 20 -283 60s-164.333 95.333 -223 166zM949.997 1850l-292 -342h-156l-292 342h222l148 -170l148 170
h222z" />
    <glyph glyph-name="scaron" unicode="&#x161;" horiz-adv-x="942" 
d="M70 148l128.001 151.999c33.333 -38.667 73.333 -69.667 120 -93s96 -35 148 -35c54.667 0 98 11.167 130 33.5s48 52.5 48 90.5c0 37.333 -14.833 67.333 -44.5 90s-80.834 41.334 -153.501 56.001c-115.333 22.667 -200.5 61 -255.5 115s-82.5 124.333 -82.5 211
c0 85.333 33.167 155.333 99.5 210s154.5 82 264.5 82c69.333 0 135 -12.833 197 -38.5s115.667 -59.5 161 -101.5l-122 -154c-40.667 32.667 -77.667 57.167 -111 73.5s-69 24.5 -107 24.5c-44.667 0 -81.5 -9 -110.5 -27s-43.5 -42.333 -43.5 -73
c0 -70 61.333 -117.333 184 -142c121.333 -24.667 210.333 -63.667 267 -117s85 -124.333 85 -213c0 -92.667 -35 -168.5 -105 -227.5s-165 -88.5 -285 -88.5c-84 0 -162.333 15.333 -235 46s-131.667 72.667 -177 126zM830.001 1506l-292 -342h-156l-292 342h222l148 -170
l148 170h222z" />
    <glyph glyph-name="Tcommaaccent" unicode="&#x162;" horiz-adv-x="1108" 
d="M436 0v1196h-376v204h988v-204h-376v-1196l-68 -104c52 -14 93.333 -39.333 124 -76s46 -78 46 -124c0 -62 -24.833 -113.5 -74.5 -154.5s-112.167 -61.5 -187.5 -61.5c-74 0 -136 20 -186 60l76 108c28 -21.333 60.667 -32 98 -32c29.333 0 53.333 8 72 24s28 36 28 60
s-9.33301 44 -28 60s-42.667 24 -72 24c-16 0 -34.667 -1.33301 -56 -4l-40 44l94 176h-62z" />
    <glyph glyph-name="tcommaaccent" unicode="&#x163;" horiz-adv-x="768" 
d="M354 -216c-16 0 -34.667 -1.33398 -56 -4.00098l-40 44l106 200c-98.667 54 -148 160 -148 318v494h-172v200h172v280l228 20v-300h262v-200h-262v-492c0 -59.333 14 -102.166 42 -128.499s75.333 -39.5 142 -39.5c33.333 0 63.333 1.33301 90 4v-196
c-29.333 -5.33301 -66 -8 -110 -8c-34.667 0 -66 2 -94 6l-56 -86c52 -14 93.333 -39.333 124 -76s46 -78 46 -124c0 -62 -24.833 -113.5 -74.5 -154.5s-112.167 -61.5 -187.5 -61.5c-74 0 -136 20 -186 60l76 108c28 -21.333 60.667 -32 98 -32c29.333 0 53.333 8 72 24
s28 36 28 60s-9.33301 44 -28 60s-42.667 24 -72 24z" />
    <glyph glyph-name="Tcaron" unicode="&#x164;" horiz-adv-x="1108" 
d="M924 1850l-292 -342h-156l-292 342h222l148 -170l148 170h222zM436 0v1196h-376v204h988v-204h-376v-1196h-236z" />
    <glyph glyph-name="tcaron" unicode="&#x165;" horiz-adv-x="1100" 
d="M444 836v-492.002c0 -59.333 14 -102.166 42 -128.499s75.333 -39.5 142 -39.5c33.333 0 63.333 1.33301 90 4v-196c-29.333 -5.33301 -66 -8 -110 -8c-135.333 0 -234.5 29.333 -297.5 88s-94.5 151.334 -94.5 278.001v494h-172v200h172v280l228 20v-300h262v-200h-262z
M776 1342c0 40 13.668 73.667 41.001 101s61 41 101 41s73.667 -13.667 101 -41s41 -61 41 -101c0 -20.667 -5.33301 -42.667 -16 -66l-136 -294h-144l102 226c-26.667 10 -48.334 27 -65.001 51s-25 51.667 -25 83z" />
    <glyph glyph-name="Tbar" unicode="&#x166;" horiz-adv-x="1108" 
d="M924 614h-252v-614h-236v614h-252v172h252v410h-376v204h988v-204h-376v-410h252v-172z" />
    <glyph glyph-name="tbar" unicode="&#x167;" horiz-adv-x="768" 
d="M66 460v151.998h150v224h-172v200h172v280l228 20v-300h262v-200h-262v-224h222v-152h-222v-116c0 -59.333 14 -102.166 42 -128.499s75.333 -39.5 142 -39.5c33.333 0 63.333 1.33301 90 4v-196c-29.333 -5.33301 -66 -8 -110 -8c-135.333 0 -234.5 29.333 -297.5 88
s-94.5 151.334 -94.5 278.001v118h-150z" />
    <glyph glyph-name="Utilde" unicode="&#x168;" horiz-adv-x="1336" 
d="M682 1566c-48 26.667 -82.667 40 -104 40c-31.333 0 -52.666 -25.667 -63.999 -77l-193 39c14.667 73.333 37.667 128 69 164s72.666 54 123.999 54c40 0 86.667 -15.333 140 -46c48 -26.667 82.667 -40 104 -40c31.333 0 52.666 25.667 63.999 77l193 -39
c-14.667 -73.333 -37.667 -128 -69 -164s-72.666 -54 -123.999 -54c-40 0 -86.667 15.333 -140 46zM1186 1400l-0.00195312 -904c0 -102.667 -23.333 -193.834 -70 -273.501s-109.167 -140.334 -187.5 -182.001s-165.166 -62.5 -260.499 -62.5
s-182.166 20.833 -260.499 62.5s-140.833 102.334 -187.5 182.001s-70 170.834 -70 273.501v904h236v-932c0 -84 27 -152 81 -204s121 -78 201 -78s147 26 201 78s81 120 81 204v932h236z" />
    <glyph glyph-name="utilde" unicode="&#x169;" horiz-adv-x="1220" 
d="M852 348l-0.000976562 688.001h228v-1036h-228v120c-39.333 -43.333 -86.5 -78.166 -141.5 -104.499s-111.167 -39.5 -168.5 -39.5c-125.333 0 -227 39.667 -305 119s-117 183.666 -117 312.999v628h228v-616c0 -70.667 22 -128.334 66 -173.001s101.333 -67 172 -67
c49.333 0 98.333 16.5 147 49.5s88.334 72.5 119.001 118.5zM603.999 1242c-48 26.667 -82.667 40 -104 40c-31.333 0 -52.666 -25.667 -63.999 -77l-193 39c14.667 73.333 37.667 128 69 164s72.666 54 123.999 54c39.333 0 86 -15.333 140 -46
c48 -26.667 82.667 -40 104 -40c31.333 0 52.666 25.667 63.999 77l193 -39c-14.667 -73.333 -37.667 -128 -69 -164s-72.666 -54 -123.999 -54c-40 0 -86.667 15.333 -140 46z" />
    <glyph glyph-name="Umacron" unicode="&#x16a;" horiz-adv-x="1336" 
d="M368 1570v176h600v-176h-600zM1186 1400l-0.00195312 -904c0 -102.667 -23.333 -193.834 -70 -273.501s-109.167 -140.334 -187.5 -182.001s-165.166 -62.5 -260.499 -62.5s-182.166 20.833 -260.499 62.5s-140.833 102.334 -187.5 182.001s-70 170.834 -70 273.501v904
h236v-932c0 -84 27 -152 81 -204s121 -78 201 -78s147 26 201 78s81 120 81 204v932h236z" />
    <glyph glyph-name="umacron" unicode="&#x16b;" horiz-adv-x="1220" 
d="M852 348l-0.000976562 688.001h228v-1036h-228v120c-39.333 -43.333 -86.5 -78.166 -141.5 -104.499s-111.167 -39.5 -168.5 -39.5c-125.333 0 -227 39.667 -305 119s-117 183.666 -117 312.999v628h228v-616c0 -70.667 22 -128.334 66 -173.001s101.333 -67 172 -67
c49.333 0 98.333 16.5 147 49.5s88.334 72.5 119.001 118.5zM295.999 1246v176h600v-176h-600z" />
    <glyph glyph-name="Ubreve" unicode="&#x16c;" horiz-adv-x="1336" 
d="M668 1488c-89.333 0 -166.833 29.667 -232.5 89s-100.834 134.333 -105.501 225h200c0.666992 -42 14.334 -76.833 41.001 -104.5s59 -41.5 97 -41.5s70.333 13.833 97 41.5s40.334 62.5 41.001 104.5h200c-4.66699 -90.667 -39.834 -165.667 -105.501 -225
s-143.167 -89 -232.5 -89zM1186 1400l-0.00195312 -904c0 -102.667 -23.333 -193.834 -70 -273.501s-109.167 -140.334 -187.5 -182.001s-165.166 -62.5 -260.499 -62.5s-182.166 20.833 -260.499 62.5s-140.833 102.334 -187.5 182.001s-70 170.834 -70 273.501v904h236
v-932c0 -84 27 -152 81 -204s121 -78 201 -78s147 26 201 78s81 120 81 204v932h236z" />
    <glyph glyph-name="ubreve" unicode="&#x16d;" horiz-adv-x="1220" 
d="M852 348l-0.000976562 688.001h228v-1036h-228v120c-39.333 -43.333 -86.5 -78.166 -141.5 -104.499s-111.167 -39.5 -168.5 -39.5c-125.333 0 -227 39.667 -305 119s-117 183.666 -117 312.999v628h228v-616c0 -70.667 22 -128.334 66 -173.001s101.333 -67 172 -67
c49.333 0 98.333 16.5 147 49.5s88.334 72.5 119.001 118.5zM589.999 1164c-89.333 0 -166.833 29.667 -232.5 89s-100.834 134.333 -105.501 225h200c0.666992 -42 14.334 -76.833 41.001 -104.5s59 -41.5 97 -41.5s70.333 13.833 97 41.5s40.334 62.5 41.001 104.5h200
c-4.66699 -90.667 -39.834 -165.667 -105.501 -225s-143.167 -89 -232.5 -89z" />
    <glyph glyph-name="Uring" unicode="&#x16e;" horiz-adv-x="1336" 
d="M596 1686c0 -20 6.83301 -36.667 20.5 -50s30.834 -20 51.501 -20s37.834 6.66699 51.501 20s20.5 30 20.5 50s-6.83301 36.667 -20.5 50s-30.834 20 -51.501 20s-37.834 -6.66699 -51.501 -20s-20.5 -30 -20.5 -50zM452 1686c0 56 20.5 103 61.5 141s92.5 57 154.5 57
s113.5 -19 154.5 -57s61.5 -85 61.5 -141s-20.5 -103 -61.5 -141s-92.5 -57 -154.5 -57s-113.5 19 -154.5 57s-61.5 85 -61.5 141zM1186 1400l-0.00195312 -904c0 -102.667 -23.333 -193.834 -70 -273.501s-109.167 -140.334 -187.5 -182.001s-165.166 -62.5 -260.499 -62.5
s-182.166 20.833 -260.499 62.5s-140.833 102.334 -187.5 182.001s-70 170.834 -70 273.501v904h236v-932c0 -84 27 -152 81 -204s121 -78 201 -78s147 26 201 78s81 120 81 204v932h236z" />
    <glyph glyph-name="uring" unicode="&#x16f;" horiz-adv-x="1220" 
d="M852 348l-0.000976562 688.001h228v-1036h-228v120c-39.333 -43.333 -86.5 -78.166 -141.5 -104.499s-111.167 -39.5 -168.5 -39.5c-125.333 0 -227 39.667 -305 119s-117 183.666 -117 312.999v628h228v-616c0 -70.667 22 -128.334 66 -173.001s101.333 -67 172 -67
c49.333 0 98.333 16.5 147 49.5s88.334 72.5 119.001 118.5zM507.999 1362c0 -20 6.83301 -36.667 20.5 -50s30.834 -20 51.501 -20s37.834 6.66699 51.501 20s20.5 30 20.5 50s-6.83301 36.667 -20.5 50s-30.834 20 -51.501 20s-37.834 -6.66699 -51.501 -20
s-20.5 -30 -20.5 -50zM363.999 1362c0 56 20.5 103 61.5 141s92.5 57 154.5 57s113.5 -19 154.5 -57s61.5 -85 61.5 -141s-20.5 -103 -61.5 -141s-92.5 -57 -154.5 -57s-113.5 19 -154.5 57s-61.5 85 -61.5 141z" />
    <glyph glyph-name="Uhungarumlaut" unicode="&#x170;" horiz-adv-x="1336" 
d="M1186 1400l-0.00195312 -904c0 -102.667 -23.333 -193.834 -70 -273.501s-109.167 -140.334 -187.5 -182.001s-165.166 -62.5 -260.499 -62.5s-182.166 20.833 -260.499 62.5s-140.833 102.334 -187.5 182.001s-70 170.834 -70 273.501v904h236v-932
c0 -84 27 -152 81 -204s121 -78 201 -78s147 26 201 78s81 120 81 204v932h236zM372.998 1508l272 342h229l-279 -342h-222zM702.998 1508l272 342h229l-279 -342h-222z" />
    <glyph glyph-name="uhungarumlaut" unicode="&#x171;" horiz-adv-x="1220" 
d="M852 348l-0.000976562 688.001h228v-1036h-228v120c-39.333 -43.333 -86.5 -78.166 -141.5 -104.499s-111.167 -39.5 -168.5 -39.5c-125.333 0 -227 39.667 -305 119s-117 183.666 -117 312.999v628h228v-616c0 -70.667 22 -128.334 66 -173.001s101.333 -67 172 -67
c49.333 0 98.333 16.5 147 49.5s88.334 72.5 119.001 118.5zM282.999 1184l272 342h229l-279 -342h-222zM612.999 1184l272 342h229l-279 -342h-222z" />
    <glyph glyph-name="Uogonek" unicode="&#x172;" horiz-adv-x="1336" 
d="M1186 1400l-0.000976562 -904.001c0 -130.667 -36.667 -241.167 -110 -331.5s-168 -147.833 -284 -172.5c-97.333 -84 -146 -155.333 -146 -214c0 -27.333 9.16699 -49.833 27.5 -67.5s41.166 -26.5 68.499 -26.5c28.667 0 53.334 7.33301 74.001 22l50 -118
c-46 -30.667 -100.667 -46 -164 -46c-65.333 0 -120 20 -164 60s-66 89.333 -66 148c0 82 46.667 158.667 140 230c-133.333 12 -243.666 64.833 -330.999 158.5s-131 212.834 -131 357.501v904h236v-932c0 -84 27 -152 81 -204s121 -78 201 -78s147 26 201 78
s81 120 81 204v932h236z" />
    <glyph glyph-name="uogonek" unicode="&#x173;" horiz-adv-x="1220" 
d="M852 0l-0.000976562 120.001c-39.333 -43.333 -86.5 -78.166 -141.5 -104.499s-111.167 -39.5 -168.5 -39.5c-125.333 0 -227 39.667 -305 119s-117 183.666 -117 312.999v628h228v-616c0 -70.667 22 -128.334 66 -173.001s101.333 -67 172 -67
c49.333 0 98.333 16.5 147 49.5s88.334 72.5 119.001 118.5v688h228v-1036c-105.333 -87.333 -158 -161.333 -158 -222c0 -27.333 9.16699 -49.833 27.5 -67.5s41.166 -26.5 68.499 -26.5c28.667 0 53.334 7.33301 74.001 22l50 -118c-46 -30.667 -100.667 -46 -164 -46
c-65.333 0 -120 20 -164 60s-66 89.333 -66 148c0 45.333 15 89.5 45 132.5s71 82.167 123 117.5h-64z" />
    <glyph glyph-name="Wcircumflex" unicode="&#x174;" horiz-adv-x="1960" 
d="M864 1400h232l302 -1054l274 1054h248l-398 -1400h-232l-310 1076l-310 -1076h-232l-398 1400h248l274 -1054zM1058 1850l292 -342h-222l-148 170l-148 -170h-222l292 342h156z" />
    <glyph glyph-name="wcircumflex" unicode="&#x175;" horiz-adv-x="1576" 
d="M670 1036h236l206 -738l208 738h236l-324 -1036h-236l-208 744l-208 -744h-236l-324 1036h236l208 -738zM866 1526l292 -342h-222l-148 170l-148 -170h-222l292 342h156z" />
    <glyph glyph-name="Ycircumflex" unicode="&#x176;" horiz-adv-x="1292" 
d="M292 1400l354 -596l354 596h252l-488 -826v-574h-236v574l-488 826h252zM724 1850l292 -342h-222l-148 170l-148 -170h-222l292 342h156z" />
    <glyph glyph-name="ycircumflex" unicode="&#x177;" horiz-adv-x="1056" 
d="M234 -464l176 464l-390 1036h236l270 -748l274 748h236l-566 -1500h-236zM604 1526l292 -342h-222l-148 170l-148 -170h-222l292 342h156z" />
    <glyph glyph-name="Ydieresis" unicode="&#x178;" horiz-adv-x="1292" 
d="M292 1400l354 -596l354 596h252l-488 -826v-574h-236v574l-488 826h252zM330 1664c0 37.333 12.667 68.666 38 93.999s56.666 38 93.999 38s68.666 -12.667 93.999 -38s38 -56.666 38 -93.999s-12.667 -68.666 -38 -93.999s-56.666 -38 -93.999 -38
s-68.666 12.667 -93.999 38s-38 56.666 -38 93.999zM698 1664c0 37.333 12.667 68.666 38 93.999s56.666 38 93.999 38s68.666 -12.667 93.999 -38s38 -56.666 38 -93.999s-12.667 -68.666 -38 -93.999s-56.666 -38 -93.999 -38s-68.666 12.667 -93.999 38
s-38 56.666 -38 93.999z" />
    <glyph glyph-name="Zacute" unicode="&#x179;" horiz-adv-x="1214" 
d="M120 204l680 992h-650v204h934v-204l-680 -992h700v-204h-984v204zM421 1508l272 342h229l-279 -342h-222z" />
    <glyph glyph-name="zacute" unicode="&#x17a;" horiz-adv-x="1022" 
d="M96 0v200l532 636h-506v200h780v-200l-532 -636h552v-200h-826zM325 1184l272 342h229l-279 -342h-222z" />
    <glyph glyph-name="Zdotaccent" unicode="&#x17b;" horiz-adv-x="1214" 
d="M120 204l680 992h-650v204h934v-204l-680 -992h700v-204h-984v204zM476 1664c0 37.333 12.667 68.666 38 93.999s56.666 38 93.999 38s68.666 -12.667 93.999 -38s38 -56.666 38 -93.999s-12.667 -68.666 -38 -93.999s-56.666 -38 -93.999 -38s-68.666 12.667 -93.999 38
s-38 56.666 -38 93.999z" />
    <glyph glyph-name="zdotaccent" unicode="&#x17c;" horiz-adv-x="1022" 
d="M96 0v200l532 636h-506v200h780v-200l-532 -636h552v-200h-826zM380 1340c0 37.333 12.667 68.666 38 93.999s56.666 38 93.999 38s68.666 -12.667 93.999 -38s38 -56.666 38 -93.999s-12.667 -68.666 -38 -93.999s-56.666 -38 -93.999 -38s-68.666 12.667 -93.999 38
s-38 56.666 -38 93.999z" />
    <glyph glyph-name="Zcaron" unicode="&#x17d;" horiz-adv-x="1214" 
d="M120 204l680 992h-650v204h934v-204l-680 -992h700v-204h-984v204zM978 1850l-292 -342h-156l-292 342h222l148 -170l148 170h222z" />
    <glyph glyph-name="zcaron" unicode="&#x17e;" horiz-adv-x="1022" 
d="M96 0v200l532 636h-506v200h780v-200l-532 -636h552v-200h-826zM870 1506l-292 -342h-156l-292 342h222l148 -170l148 170h222z" />
    <glyph glyph-name="longs" unicode="&#x17f;" horiz-adv-x="754" 
d="M710 1452v-196.002c-26.667 2.66699 -56.667 4 -90 4c-66.667 0 -114 -13.167 -142 -39.5s-42 -69.166 -42 -128.499v-1092h-228v836h-164v200h164v58c0 126.667 31.5 219.334 94.5 278.001s162.167 88 297.5 88c44 0 80.667 -2.66699 110 -8z" />
    <glyph glyph-name="uni0191" unicode="&#x191;" horiz-adv-x="1072" 
d="M396 602v-700c0 -124.667 -31.5 -216.834 -94.5 -276.501s-159.5 -89.5 -289.5 -89.5c-36 0 -71.333 2.66699 -106 8v196c26.667 -2.66699 54 -4 82 -4c61.333 0 105.333 13.333 132 40s40 69.334 40 128.001v1496h832v-204h-596v-390h548v-204h-548z" />
    <glyph glyph-name="florin" unicode="&#x192;" horiz-adv-x="754" 
d="M436 836v-934c0 -126.667 -31.5 -219.334 -94.5 -278.001s-162.167 -88 -297.5 -88c-44 0 -80.667 2.66699 -110 8v196c26.667 -2.66699 56.667 -4 90 -4c66.667 0 114 13.167 142 39.5s42 69.166 42 128.499v932h-164v200h164v58c0 126.667 31.5 219.334 94.5 278.001
s162.167 88 297.5 88c44 0 80.667 -2.66699 110 -8v-196c-26.667 2.66699 -56.667 4 -90 4c-66.667 0 -114 -13.167 -142 -39.5s-42 -69.166 -42 -128.499v-56h274v-200h-274z" />
    <glyph glyph-name="Aringacute" unicode="&#x1fa;" horiz-adv-x="1376" 
d="M472 1470c0 56 20.5 103 61.5 141s92.5 57 154.5 57s113.5 -19 154.5 -57s61.5 -85 61.5 -141c0 -54.667 -19.667 -101 -59 -139l491 -1331h-256l-116 338h-552l-116 -338h-256l491 1331c-39.333 38 -59 84.333 -59 139zM688 1142l-206 -600h412zM779 1708h-218l189 242
h227zM616 1470c0 -19.333 6.16895 -35.5 18.502 -48.5s28.166 -20.167 47.499 -21.5h6c20.667 0 37.834 6.66699 51.501 20s20.5 30 20.5 50s-6.83301 36.667 -20.5 50s-30.834 20 -51.501 20s-37.834 -6.66699 -51.501 -20s-20.5 -30 -20.5 -50z" />
    <glyph glyph-name="aringacute" unicode="&#x1fb;" horiz-adv-x="1312" 
d="M640 180c66.667 0 127.168 16.832 181.501 50.499s95.166 78.834 122.499 135.501v302c-27.333 56.667 -68.333 102.167 -123 136.5s-115 51.5 -181 51.5c-94.667 0 -174.667 -32.667 -240 -98s-98 -145.333 -98 -240s32.667 -174.667 98 -240s145.333 -98 240 -98z
M600.001 1060c138.667 0 253.334 -45.333 344.001 -136v112h228v-1036h-228v112c-90.667 -90.667 -205.334 -136 -344.001 -136c-100 0 -190.833 24.667 -272.5 74s-145 115.333 -190 198s-67.5 172.667 -67.5 270s22.5 187.333 67.5 270s108.333 148.667 190 198
s172.5 74 272.5 74zM560.001 1330c0 -20 6.83301 -36.667 20.5 -50s30.834 -20 51.501 -20s37.834 6.66699 51.501 20s20.5 30 20.5 50s-6.83301 36.667 -20.5 50s-30.834 20 -51.501 20s-37.834 -6.66699 -51.501 -20s-20.5 -30 -20.5 -50zM416.001 1330
c0 56 20.5 103 61.5 141s92.5 57 154.5 57s113.5 -19 154.5 -57s61.5 -85 61.5 -141s-20.5 -103 -61.5 -141s-92.5 -57 -154.5 -57s-113.5 19 -154.5 57s-61.5 85 -61.5 141zM719.001 1568h-218l205 262h227z" />
    <glyph glyph-name="AEacute" unicode="&#x1fc;" horiz-adv-x="1850" 
d="M268 0h-268l792 1400h930v-204h-596v-390h548v-204h-548v-398h614v-204h-850v338h-437zM890 1132l-325 -590h325v590zM759 1508l272 342h229l-279 -342h-222z" />
    <glyph glyph-name="aeacute" unicode="&#x1fd;" horiz-adv-x="2034" 
d="M1954 444l-853.001 0.00292969c13.333 -79.333 51.166 -144.5 113.499 -195.5s136.166 -76.5 221.499 -76.5c116.667 0 219.334 45.333 308.001 136l156 -144c-115.333 -125.333 -268 -188 -458 -188c-92.667 0 -177.834 17.667 -255.501 53s-140.5 83 -188.5 143
c-45.333 -60 -105.666 -107.667 -180.999 -143s-157.666 -53 -246.999 -53c-143.333 0 -262.5 33.333 -357.5 100s-142.5 149.334 -142.5 248.001c0 61.333 21.167 117.166 63.5 167.499s99.333 89.666 171 117.999s150.167 42.5 235.5 42.5
c61.333 0 121.833 -7.83301 181.5 -23.5s108.5 -35.834 146.5 -60.501v46c0 70 -28.667 129.167 -86 177.5s-130 72.5 -218 72.5c-59.333 0 -118.333 -11.333 -177 -34s-110.334 -52.667 -155.001 -90l-86 172c58 47.333 123.667 83.833 197 109.5s149 38.5 227 38.5
c90 0 172.833 -17.833 248.5 -53.5s135.834 -83.834 180.501 -144.501c47.333 61.333 108.5 109.666 183.5 144.999s156.167 53 243.5 53c102.667 0 195.334 -23.667 278.001 -71s146.667 -110.666 192 -189.999s68 -166.333 68 -261c0 -34 -3.33301 -65.333 -10 -94z
M297.999 324.003c0 -42.667 26.668 -78.667 80.001 -108s121.333 -44 204 -44c136 0 230.667 40.667 284 122v99c-70.667 55.333 -165.334 83 -284.001 83c-82.667 0 -150.667 -14.667 -204 -44s-80 -65.333 -80 -108zM1426 864.003c-72 0 -137.333 -21.667 -196 -65
s-98.667 -99 -120 -167h615c-18 68 -54 123.667 -108 167s-117.667 65 -191 65zM838 1184l272 342h229l-279 -342h-222z" />
    <glyph glyph-name="Oslashacute" unicode="&#x1fe;" horiz-adv-x="1652" 
d="M826 1424c136.667 0 262.667 -32 378 -96l104 132h206l-178 -226c74.667 -66.667 132.667 -146 174 -238s62 -190.667 62 -296c0 -134 -32.667 -256.333 -98 -367s-155 -197.834 -269 -261.501s-240.333 -95.5 -379 -95.5c-146.667 0 -279.334 35.333 -398.001 106
l-112 -142h-206l189 240c-69.333 66.667 -123.166 144.5 -161.499 233.5s-57.5 184.5 -57.5 286.5c0 134 32.667 256.333 98 367s155 197.834 269 261.501s240.333 95.5 379 95.5zM826 184c141.333 0 261 49.667 359 149s147 221.666 147 366.999
c0 138.667 -45.667 257.334 -137 356.001l-630 -801c80 -47.333 167 -71 261 -71zM320 700c0 -131.333 40.333 -244.334 121 -339.001l626 794c-74 40.667 -154.333 61 -241 61c-141.333 0 -261 -49.667 -359 -149s-147 -221.666 -147 -366.999zM659 1508l272 342h229
l-279 -342h-222z" />
    <glyph glyph-name="oslashacute" unicode="&#x1ff;" horiz-adv-x="1280" 
d="M996 1096l198.001 0.000976562l-150 -190c52.667 -49.333 93.5 -107.5 122.5 -174.5s43.5 -138.167 43.5 -213.5c0 -99.333 -24.5 -190.5 -73.5 -273.5s-117.167 -148.5 -204.5 -196.5s-184.666 -72 -291.999 -72c-100 0 -192.667 21.667 -278 65l-80 -101h-198l151 191
c-52.667 50 -93.334 108.167 -122.001 174.5s-43 137.166 -43 212.499c0 99.333 24.5 190.5 73.5 273.5s117.167 148.5 204.5 196.5s184.666 72 291.999 72c99.333 0 191.333 -21.667 276 -65zM640.001 180.001c94.667 0 174.667 32.667 240 98s98 145.333 98 240
c0 80 -24.333 150.667 -73 212l-409 -519c44.667 -20.667 92.667 -31 144 -31zM302.001 518.001c0 -80.667 23.667 -151 71 -211l409 518c-44.667 20.667 -92 31 -142 31c-94.667 0 -174.667 -32.667 -240 -98s-98 -145.333 -98 -240zM480.001 1184l272 342h229l-279 -342
h-222z" />
    <glyph glyph-name="Scommaaccent" unicode="&#x218;" horiz-adv-x="1188" 
d="M98 202l147.997 160.001c48.667 -53.333 103 -96.333 163 -129s121.667 -49 185 -49c82 0 148.167 18 198.5 54s75.5 84.667 75.5 146c0 57.333 -22.667 106.166 -68 146.499s-124.666 72.166 -237.999 95.499c-145.333 30.667 -254 80.834 -326 150.501
s-108 156.167 -108 259.5c0 115.333 42.333 208.833 127 280.5s194.334 107.5 329.001 107.5c184.667 0 335.334 -59.333 452.001 -178l-140 -168c-101.333 92 -202 138 -302 138c-66 0 -120.167 -15 -162.5 -45s-63.5 -69.667 -63.5 -119c0 -56.667 23 -103.5 69 -140.5
s121 -67.5 225 -91.5c159.333 -36.667 273.5 -90.5 342.5 -161.5s103.5 -162.5 103.5 -274.5c0 -122 -45 -220.5 -135 -295.5s-213 -112.5 -369 -112.5c-98.667 0 -193 20 -283 60s-164.333 95.333 -223 166zM589.997 -469.999h-205l154 342h229z" />
    <glyph glyph-name="scommaaccent" unicode="&#x219;" horiz-adv-x="942" 
d="M70 148l128.001 151.999c33.333 -38.667 73.333 -69.667 120 -93s96 -35 148 -35c54.667 0 98 11.167 130 33.5s48 52.5 48 90.5c0 37.333 -14.833 67.333 -44.5 90s-80.834 41.334 -153.501 56.001c-115.333 22.667 -200.5 61 -255.5 115s-82.5 124.333 -82.5 211
c0 85.333 33.167 155.333 99.5 210s154.5 82 264.5 82c69.333 0 135 -12.833 197 -38.5s115.667 -59.5 161 -101.5l-122 -154c-40.667 32.667 -77.667 57.167 -111 73.5s-69 24.5 -107 24.5c-44.667 0 -81.5 -9 -110.5 -27s-43.5 -42.333 -43.5 -73
c0 -70 61.333 -117.333 184 -142c121.333 -24.667 210.333 -63.667 267 -117s85 -124.333 85 -213c0 -92.667 -35 -168.5 -105 -227.5s-165 -88.5 -285 -88.5c-84 0 -162.333 15.333 -235 46s-131.667 72.667 -177 126zM452.001 -470.001h-205l154 342h229z" />
    <glyph glyph-name="uni021A" unicode="&#x21a;" horiz-adv-x="1108" 
d="M436 0v1196h-376v204h988v-204h-376v-1196h-236zM530 -470h-205l154 342h229z" />
    <glyph glyph-name="uni021B" unicode="&#x21b;" horiz-adv-x="768" 
d="M444 836v-492.002c0 -59.333 14 -102.166 42 -128.499s75.333 -39.5 142 -39.5c33.333 0 63.333 1.33301 90 4v-196c-29.333 -5.33301 -66 -8 -110 -8c-135.333 0 -234.5 29.333 -297.5 88s-94.5 151.334 -94.5 278.001v494h-172v200h172v280l228 20v-300h262v-200h-262z
M372 -470.002h-205l154 342h229z" />
    <glyph glyph-name="dotlessj" unicode="&#x237;" horiz-adv-x="528" 
d="M150 -108l-0.000976562 1144h228v-1140c0 -129.333 -26.333 -221.666 -79 -276.999s-139 -83 -259 -83c-29.333 0 -56 1.33301 -80 4v196h52c48.667 0 83.834 11.667 105.501 35s32.5 63.666 32.5 120.999z" />
    <glyph glyph-name="apostrophe" unicode="&#x2bc;" horiz-adv-x="840" 
d="M284 1342c0 40 13.668 73.667 41.001 101s61 41 101 41s73.667 -13.667 101 -41s41 -61 41 -101c0 -20.667 -5.33301 -42.667 -16 -66l-136 -294h-144l102 226c-26.667 10 -48.334 27 -65.001 51s-25 51.667 -25 83z" />
    <glyph glyph-name="circumflex" unicode="&#x2c6;" horiz-adv-x="840" 
d="M498 1460l292 -342h-222l-148 170l-148 -170h-222l292 342h156z" />
    <glyph glyph-name="caron" unicode="&#x2c7;" horiz-adv-x="840" 
d="M790 1460l-292 -342h-156l-292 342h222l148 -170l148 170h222z" />
    <glyph glyph-name="uni02C9" unicode="&#x2c9;" horiz-adv-x="840" 
d="M120 1200v176h600v-176h-600z" />
    <glyph glyph-name="breve" unicode="&#x2d8;" horiz-adv-x="840" 
d="M420 1126c-89.333 0 -166.833 29.667 -232.5 89s-100.834 134.333 -105.501 225h200c0.666992 -42 14.334 -76.833 41.001 -104.5s59 -41.5 97 -41.5s70.333 13.833 97 41.5s40.334 62.5 41.001 104.5h200c-4.66699 -90.667 -39.834 -165.667 -105.501 -225
s-143.167 -89 -232.5 -89z" />
    <glyph glyph-name="dotaccent" unicode="&#x2d9;" horiz-adv-x="840" 
d="M288 1292c0 37.333 12.667 68.666 38 93.999s56.666 38 93.999 38s68.666 -12.667 93.999 -38s38 -56.666 38 -93.999s-12.667 -68.666 -38 -93.999s-56.666 -38 -93.999 -38s-68.666 12.667 -93.999 38s-38 56.666 -38 93.999z" />
    <glyph glyph-name="ring" unicode="&#x2da;" horiz-adv-x="840" 
d="M348 1286c0 -20 6.83301 -36.667 20.5 -50s30.834 -20 51.501 -20s37.834 6.66699 51.501 20s20.5 30 20.5 50s-6.83301 36.667 -20.5 50s-30.834 20 -51.501 20s-37.834 -6.66699 -51.501 -20s-20.5 -30 -20.5 -50zM204 1286c0 56 20.5 103 61.5 141s92.5 57 154.5 57
s113.5 -19 154.5 -57s61.5 -85 61.5 -141s-20.5 -103 -61.5 -141s-92.5 -57 -154.5 -57s-113.5 19 -154.5 57s-61.5 85 -61.5 141z" />
    <glyph glyph-name="ogonek" unicode="&#x2db;" horiz-adv-x="840" 
d="M402 0h164c-105.333 -87.333 -158 -161.333 -158 -222c0 -27.333 9.16699 -49.833 27.5 -67.5s41.166 -26.5 68.499 -26.5c28.667 0 53.334 7.33301 74.001 22l50 -118c-46 -30.667 -100.667 -46 -164 -46c-65.333 0 -120 20 -164 60s-66 89.333 -66 148
c0 45.333 15 89.5 45 132.5s71 82.167 123 117.5z" />
    <glyph glyph-name="tilde" unicode="&#x2dc;" horiz-adv-x="840" 
d="M434 1196c-48 26.667 -82.667 40 -104 40c-31.333 0 -52.666 -25.667 -63.999 -77l-193 39c14.667 73.333 37.667 128 69 164s72.666 54 123.999 54c40 0 86.667 -15.333 140 -46c48 -26.667 82.667 -40 104 -40c31.333 0 52.666 25.667 63.999 77l193 -39
c-14.667 -73.333 -37.667 -128 -69 -164s-72.666 -54 -123.999 -54c-40 0 -86.667 15.333 -140 46z" />
    <glyph glyph-name="hungarumlaut" unicode="&#x2dd;" horiz-adv-x="840" 
d="M59 1118l272 342h229l-279 -342h-222zM389 1118l272 342h229l-279 -342h-222z" />
    <glyph glyph-name="gravecomb" unicode="&#x300;" horiz-adv-x="0" 
d="M-501 1460l272 -342h-222l-279 342h229z" />
    <glyph glyph-name="acutecomb" unicode="&#x301;" horiz-adv-x="0" 
d="M-611 1118l272 342h229l-279 -342h-222z" />
    <glyph glyph-name="uni0302" unicode="&#x302;" horiz-adv-x="0" 
d="M-342 1460l292 -342h-222l-148 170l-148 -170h-222l292 342h156z" />
    <glyph glyph-name="tildecomb" unicode="&#x303;" horiz-adv-x="0" 
d="M-406 1196c-48 26.667 -82.667 40 -104 40c-31.333 0 -52.666 -25.667 -63.999 -77l-193 39c14.667 73.333 37.667 128 69 164s72.666 54 123.999 54c40 0 86.667 -15.333 140 -46c48 -26.667 82.667 -40 104 -40c31.333 0 52.666 25.667 63.999 77l193 -39
c-14.667 -73.333 -37.667 -128 -69 -164s-72.666 -54 -123.999 -54c-40 0 -86.667 15.333 -140 46z" />
    <glyph glyph-name="uni0304" unicode="&#x304;" horiz-adv-x="0" 
d="M-720 1202v176h600v-176h-600z" />
    <glyph glyph-name="uni0306" unicode="&#x306;" horiz-adv-x="0" 
d="M-420 1126c-89.333 0 -166.833 29.667 -232.5 89s-100.834 134.333 -105.501 225h200c0.666992 -42 14.334 -76.833 41.001 -104.5s59 -41.5 97 -41.5s70.333 13.833 97 41.5s40.334 62.5 41.001 104.5h200c-4.66699 -90.667 -39.834 -165.667 -105.501 -225
s-143.167 -89 -232.5 -89z" />
    <glyph glyph-name="uni0307" unicode="&#x307;" horiz-adv-x="0" 
d="M-552 1292c0 37.333 12.667 68.666 38 93.999s56.666 38 93.999 38s68.666 -12.667 93.999 -38s38 -56.666 38 -93.999s-12.667 -68.666 -38 -93.999s-56.666 -38 -93.999 -38s-68.666 12.667 -93.999 38s-38 56.666 -38 93.999z" />
    <glyph glyph-name="uni0308" unicode="&#x308;" horiz-adv-x="0" 
d="M-736 1292c0 37.333 12.667 68.666 38 93.999s56.666 38 93.999 38s68.666 -12.667 93.999 -38s38 -56.666 38 -93.999s-12.667 -68.666 -38 -93.999s-56.666 -38 -93.999 -38s-68.666 12.667 -93.999 38s-38 56.666 -38 93.999zM-368 1292
c0 37.333 12.667 68.666 38 93.999s56.666 38 93.999 38s68.666 -12.667 93.999 -38s38 -56.666 38 -93.999s-12.667 -68.666 -38 -93.999s-56.666 -38 -93.999 -38s-68.666 12.667 -93.999 38s-38 56.666 -38 93.999z" />
    <glyph glyph-name="uni030A" unicode="&#x30a;" horiz-adv-x="0" 
d="M-492 1286c0 -20 6.83301 -36.667 20.5 -50s30.834 -20 51.501 -20s37.834 6.66699 51.501 20s20.5 30 20.5 50s-6.83301 36.667 -20.5 50s-30.834 20 -51.501 20s-37.834 -6.66699 -51.501 -20s-20.5 -30 -20.5 -50zM-636 1286c0 56 20.5 103 61.5 141s92.5 57 154.5 57
s113.5 -19 154.5 -57s61.5 -85 61.5 -141s-20.5 -103 -61.5 -141s-92.5 -57 -154.5 -57s-113.5 19 -154.5 57s-61.5 85 -61.5 141z" />
    <glyph glyph-name="uni030C" unicode="&#x30c;" horiz-adv-x="0" 
d="M-50 1460l-292 -342h-156l-292 342h222l148 -170l148 170h222z" />
    <glyph glyph-name="uni0327" unicode="&#x327;" horiz-adv-x="0" 
d="M-464 -216c-16 0 -34.667 -1.33301 -56 -4l-40 44l94 176h174l-68 -104c52 -14 93.333 -39.333 124 -76s46 -78 46 -124c0 -62 -24.833 -113.5 -74.5 -154.5s-112.167 -61.5 -187.5 -61.5c-74 0 -136 20 -186 60l76 108c28 -21.333 60.667 -32 98 -32
c29.333 0 53.333 8 72 24s28 36 28 60s-9.33301 44 -28 60s-42.667 24 -72 24z" />
    <glyph glyph-name="tonos" unicode="&#x384;" horiz-adv-x="840" 
d="M448 1088h-205l154 372h229z" />
    <glyph glyph-name="dieresistonos" unicode="&#x385;" horiz-adv-x="840" 
d="M96 1140c0 39.333 13.167 72.166 39.5 98.499s59.833 39.5 100.5 39.5s74.167 -13.167 100.5 -39.5s39.5 -59.166 39.5 -98.499s-13.167 -72.166 -39.5 -98.499s-59.833 -39.5 -100.5 -39.5s-74.167 13.167 -100.5 39.5s-39.5 59.166 -39.5 98.499zM464 1140
c0 39.333 13.167 72.166 39.5 98.499s59.833 39.5 100.5 39.5s74.167 -13.167 100.5 -39.5s39.5 -59.166 39.5 -98.499s-13.167 -72.166 -39.5 -98.499s-59.833 -39.5 -100.5 -39.5s-74.167 13.167 -100.5 39.5s-39.5 59.166 -39.5 98.499zM507 1314h-218l205 262h227z" />
    <glyph glyph-name="Alphatonos" unicode="&#x386;" horiz-adv-x="1396" 
d="M840 1400l516 -1400h-256l-116 338h-552l-116 -338h-256l516 1400h264zM708 1142l-206 -600h412zM230 1028h-205l154 372h229z" />
    <glyph glyph-name="anoteleia" unicode="&#x387;" horiz-adv-x="600" 
d="M152 650c0 42 14.167 77.167 42.5 105.5s63.5 42.5 105.5 42.5s77.167 -14.167 105.5 -42.5s42.5 -63.5 42.5 -105.5s-14.167 -77.167 -42.5 -105.5s-63.5 -42.5 -105.5 -42.5s-77.167 14.167 -105.5 42.5s-42.5 63.5 -42.5 105.5z" />
    <glyph glyph-name="Epsilontonos" unicode="&#x388;" horiz-adv-x="1466" 
d="M486 0v1400h852v-204h-616v-390h568v-204h-568v-398h634v-204h-870zM230 1028h-205l154 372h229z" />
    <glyph glyph-name="Etatonos" unicode="&#x389;" horiz-adv-x="1734" 
d="M486 0v1400h236v-594h616v594h236v-1400h-236v602h-616v-602h-236zM230 1028h-205l154 372h229z" />
    <glyph glyph-name="Iotatonos" unicode="&#x38a;" horiz-adv-x="892" 
d="M486 1400h236v-1400h-236v1400zM230 1028h-205l154 372h229z" />
    <glyph glyph-name="Omicrontonos" unicode="&#x38c;" horiz-adv-x="1854" 
d="M1028 184c141.333 0 261 49.667 359 149s147 221.666 147 366.999s-49 267.666 -147 366.999s-217.667 149 -359 149s-261 -49.667 -359 -149s-147 -221.666 -147 -366.999s49 -267.666 147 -366.999s217.667 -149 359 -149zM1028 1424c138.667 0 265 -31.833 379 -95.5
s203.667 -150.834 269 -261.501s98 -233 98 -367s-32.667 -256.333 -98 -367s-155 -197.834 -269 -261.501s-240.333 -95.5 -379 -95.5s-265 31.833 -379 95.5s-203.667 150.834 -269 261.501s-98 233 -98 367s32.667 256.333 98 367s155 197.834 269 261.501
s240.333 95.5 379 95.5zM230 1028h-205l154 372h229z" />
    <glyph glyph-name="Upsilontonos" unicode="&#x38e;" horiz-adv-x="1698" 
d="M698 1400l354 -596l354 596h252l-488 -826v-574h-236v574l-488 826h252zM230 1028h-205l154 372h229z" />
    <glyph glyph-name="Omegatonos" unicode="&#x38f;" horiz-adv-x="1824" 
d="M1406 208h302.002v-208h-580v200c108.667 54.667 195.167 129.834 259.5 225.501s96.5 199.167 96.5 310.5c0 134 -45.667 247.5 -137 340.5s-203 139.5 -335 139.5s-243.667 -46.5 -335 -139.5s-137 -206.5 -137 -340.5c0 -111.333 32.167 -214.833 96.5 -310.5
s150.833 -170.834 259.5 -225.501v-200h-580v208h302c-102.667 66.667 -181.334 146.5 -236.001 239.5s-82 195.833 -82 308.5c0 122 31.333 234.167 94 336.5s148.5 183.166 257.5 242.499s229.167 89 360.5 89s251.5 -29.667 360.5 -89s194.833 -140.166 257.5 -242.499
s94 -214.5 94 -336.5c0 -112.667 -27.333 -215.5 -82 -308.5s-133.334 -172.833 -236.001 -239.5zM230.002 1028h-205l154 372h229z" />
    <glyph glyph-name="iotadieresistonos" unicode="&#x390;" horiz-adv-x="552" 
d="M150 234v802h228v-740c0 -64 32 -96 96 -96h34v-196c-24 -2.66699 -50.667 -4 -80 -4c-92.667 0 -162.167 20 -208.5 60s-69.5 98 -69.5 174zM-62 1274c0 39.333 13.167 72.166 39.5 98.499s59.833 39.5 100.5 39.5s74.167 -13.167 100.5 -39.5
s39.5 -59.166 39.5 -98.499s-13.167 -72.166 -39.5 -98.499s-59.833 -39.5 -100.5 -39.5s-74.167 13.167 -100.5 39.5s-39.5 59.166 -39.5 98.499zM306 1274c0 39.333 13.167 72.166 39.5 98.499s59.833 39.5 100.5 39.5s74.167 -13.167 100.5 -39.5
s39.5 -59.166 39.5 -98.499s-13.167 -72.166 -39.5 -98.499s-59.833 -39.5 -100.5 -39.5s-74.167 13.167 -100.5 39.5s-39.5 59.166 -39.5 98.499zM349 1448h-218l205 262h227z" />
    <glyph glyph-name="Alpha" unicode="&#x391;" horiz-adv-x="1376" 
d="M820 1400l516 -1400h-256l-116 338h-552l-116 -338h-256l516 1400h264zM688 1142l-206 -600h412z" />
    <glyph glyph-name="Beta" unicode="&#x392;" horiz-adv-x="1246" 
d="M746 0l-586 0.00195312v1400h512c128 0 227.333 -33.5 298 -100.5s106 -159.5 106 -277.5c0 -132.667 -54.667 -224 -164 -274c69.333 -18.667 127.333 -58.334 174 -119.001s70 -134.334 70 -221.001c0 -122 -36.833 -220.5 -110.5 -295.5s-173.5 -112.5 -299.5 -112.5z
M836 1010c0 60 -16.333 106 -49 138s-76.334 48 -131.001 48h-260v-372h260c54.667 0 98.334 16 131.001 48s49 78 49 138zM916 416.002c0 65.333 -17.5 117 -52.5 155s-80.833 57 -137.5 57h-330v-424h330c56.667 0 102.5 19.167 137.5 57.5s52.5 89.833 52.5 154.5z" />
    <glyph glyph-name="Gamma" unicode="&#x393;" horiz-adv-x="1032" 
d="M160 0v1400h832v-204h-596v-1196h-236z" />
    <glyph glyph-name="uni0394" unicode="&#x394;" horiz-adv-x="1376" 
d="M820 1400l516 -1400h-1296l516 1400h264zM688 1142l-326 -938h652z" />
    <glyph glyph-name="Epsilon" unicode="&#x395;" horiz-adv-x="1140" 
d="M160 0v1400h852v-204h-616v-390h568v-204h-568v-398h634v-204h-870z" />
    <glyph glyph-name="Zeta" unicode="&#x396;" horiz-adv-x="1214" 
d="M120 204l680 992h-650v204h934v-204l-680 -992h700v-204h-984v204z" />
    <glyph glyph-name="Eta" unicode="&#x397;" horiz-adv-x="1408" 
d="M160 0v1400h236v-594h616v594h236v-1400h-236v602h-616v-602h-236z" />
    <glyph glyph-name="Theta" unicode="&#x398;" horiz-adv-x="1652" 
d="M538 602v196h576v-196h-576zM826 184c141.333 0 261 49.667 359 149s147 221.666 147 366.999s-49 267.666 -147 366.999s-217.667 149 -359 149s-261 -49.667 -359 -149s-147 -221.666 -147 -366.999s49 -267.666 147 -366.999s217.667 -149 359 -149zM826 1424
c138.667 0 265 -31.833 379 -95.5s203.667 -150.834 269 -261.501s98 -233 98 -367s-32.667 -256.333 -98 -367s-155 -197.834 -269 -261.501s-240.333 -95.5 -379 -95.5s-265 31.833 -379 95.5s-203.667 150.834 -269 261.501s-98 233 -98 367s32.667 256.333 98 367
s155 197.834 269 261.501s240.333 95.5 379 95.5z" />
    <glyph glyph-name="Iota" unicode="&#x399;" horiz-adv-x="576" 
d="M170 1400h236v-1400h-236v1400z" />
    <glyph glyph-name="Kappa" unicode="&#x39a;" horiz-adv-x="1216" 
d="M396 1400v-594h85l397 594h268l-466 -692l546 -708h-276l-462 602h-92v-602h-236v1400h236z" />
    <glyph glyph-name="Lambda" unicode="&#x39b;" horiz-adv-x="1376" 
d="M1080 0l-392 1122l-392 -1122h-256l516 1400h264l516 -1400h-256z" />
    <glyph glyph-name="Mu" unicode="&#x39c;" horiz-adv-x="1712" 
d="M930 428h-148l-394 586v-1014h-228v1400h220l476 -712l476 712h220v-1400h-228v1014z" />
    <glyph glyph-name="Nu" unicode="&#x39d;" horiz-adv-x="1408" 
d="M160 0v1400h228l632 -992v992h228v-1400h-228l-632 992v-992h-228z" />
    <glyph glyph-name="Xi" unicode="&#x39e;" horiz-adv-x="1170" 
d="M128 1196v204h914v-204h-914zM110 0v204h950v-204h-950zM974 602h-798v204h798v-204z" />
    <glyph glyph-name="Omicron" unicode="&#x39f;" horiz-adv-x="1652" 
d="M826 184c141.333 0 261 49.667 359 149s147 221.666 147 366.999s-49 267.666 -147 366.999s-217.667 149 -359 149s-261 -49.667 -359 -149s-147 -221.666 -147 -366.999s49 -267.666 147 -366.999s217.667 -149 359 -149zM826 1424c138.667 0 265 -31.833 379 -95.5
s203.667 -150.834 269 -261.501s98 -233 98 -367s-32.667 -256.333 -98 -367s-155 -197.834 -269 -261.501s-240.333 -95.5 -379 -95.5s-265 31.833 -379 95.5s-203.667 150.834 -269 261.501s-98 233 -98 367s32.667 256.333 98 367s155 197.834 269 261.501
s240.333 95.5 379 95.5z" />
    <glyph glyph-name="Pi" unicode="&#x3a0;" horiz-adv-x="1356" 
d="M1196 1400v-1400h-236v1196h-564v-1196h-236v1400h1036z" />
    <glyph glyph-name="Rho" unicode="&#x3a1;" horiz-adv-x="1186" 
d="M632 508h-236v-508h-236v1400h472c150 0 268.167 -40.333 354.5 -121s129.5 -189 129.5 -325s-43.167 -244.333 -129.5 -325s-204.5 -121 -354.5 -121zM876 954c0 75.333 -21.833 134.5 -65.5 177.5s-106.5 64.5 -188.5 64.5h-226v-484h226c82 0 144.833 21.5 188.5 64.5
s65.5 102.167 65.5 177.5z" />
    <glyph glyph-name="Sigma" unicode="&#x3a3;" horiz-adv-x="1170" 
d="M120 200l382 502l-382 498v200h930v-204h-642l346 -448v-94l-348 -450h644v-204h-930v200z" />
    <glyph glyph-name="Tau" unicode="&#x3a4;" horiz-adv-x="1108" 
d="M436 0v1196h-376v204h988v-204h-376v-1196h-236z" />
    <glyph glyph-name="Upsilon" unicode="&#x3a5;" horiz-adv-x="1292" 
d="M292 1400l354 -596l354 596h252l-488 -826v-574h-236v574l-488 826h252z" />
    <glyph glyph-name="Phi" unicode="&#x3a6;" horiz-adv-x="1536" 
d="M650 0v192c-106 0 -203.333 22.167 -292 66.5s-158.834 105.333 -210.501 183s-77.5 163.167 -77.5 256.5s25.833 178.833 77.5 256.5s121.834 138.667 210.501 183s186 66.5 292 66.5v196h236v-196c106 0 203.333 -22.167 292 -66.5s158.834 -105.333 210.501 -183
s77.5 -163.167 77.5 -256.5s-25.833 -178.833 -77.5 -256.5s-121.834 -138.667 -210.501 -183s-186 -66.5 -292 -66.5v-192h-236zM1226 698c0 83.333 -33 154.5 -99 213.5s-146.333 88.5 -241 88.5v-604c94.667 0 175 29.5 241 88.5s99 130.167 99 213.5zM310 698
c0 -83.333 33 -154.5 99 -213.5s146.333 -88.5 241 -88.5v604c-94.667 0 -175 -29.5 -241 -88.5s-99 -130.167 -99 -213.5z" />
    <glyph glyph-name="Chi" unicode="&#x3a7;" horiz-adv-x="1272" 
d="M986 0l-350 542l-350 -542h-256l466 712l-448 688h256l332 -518l332 518h256l-448 -688l466 -712h-256z" />
    <glyph glyph-name="Psi" unicode="&#x3a8;" horiz-adv-x="1396" 
d="M816 1400l-0.00195312 -865c64 24.667 115.667 66.5 155 125.5s59 125.5 59 199.5v540h236v-554c0 -131.333 -42.167 -246 -126.5 -344s-192.166 -159.667 -323.499 -185v-317h-236v317c-131.333 25.333 -239.166 87 -323.499 185s-126.5 212.667 -126.5 344v554h236
v-540c0 -74 19.667 -140.5 59 -199.5s91 -100.833 155 -125.5v865h236z" />
    <glyph glyph-name="uni03A9" unicode="&#x3a9;" horiz-adv-x="1604" 
d="M1196 208h302.002v-208h-580v200c108.667 54.667 195.167 129.834 259.5 225.501s96.5 199.167 96.5 310.5c0 134 -45.667 247.5 -137 340.5s-203 139.5 -335 139.5s-243.667 -46.5 -335 -139.5s-137 -206.5 -137 -340.5c0 -111.333 32.167 -214.833 96.5 -310.5
s150.833 -170.834 259.5 -225.501v-200h-580v208h302c-102.667 66.667 -181.334 146.5 -236.001 239.5s-82 195.833 -82 308.5c0 122 31.333 234.167 94 336.5s148.5 183.166 257.5 242.499s229.167 89 360.5 89s251.5 -29.667 360.5 -89s194.833 -140.166 257.5 -242.499
s94 -214.5 94 -336.5c0 -112.667 -27.333 -215.5 -82 -308.5s-133.334 -172.833 -236.001 -239.5z" />
    <glyph glyph-name="Iotadieresis" unicode="&#x3aa;" horiz-adv-x="576" 
d="M170 1400h236v-1400h-236v1400zM-28 1664c0 37.333 12.667 68.666 38 93.999s56.666 38 93.999 38s68.666 -12.667 93.999 -38s38 -56.666 38 -93.999s-12.667 -68.666 -38 -93.999s-56.666 -38 -93.999 -38s-68.666 12.667 -93.999 38s-38 56.666 -38 93.999zM340 1664
c0 37.333 12.667 68.666 38 93.999s56.666 38 93.999 38s68.666 -12.667 93.999 -38s38 -56.666 38 -93.999s-12.667 -68.666 -38 -93.999s-56.666 -38 -93.999 -38s-68.666 12.667 -93.999 38s-38 56.666 -38 93.999z" />
    <glyph glyph-name="Upsilondieresis" unicode="&#x3ab;" horiz-adv-x="1292" 
d="M292 1400l354 -596l354 596h252l-488 -826v-574h-236v574l-488 826h252zM330 1664c0 37.333 12.667 68.666 38 93.999s56.666 38 93.999 38s68.666 -12.667 93.999 -38s38 -56.666 38 -93.999s-12.667 -68.666 -38 -93.999s-56.666 -38 -93.999 -38
s-68.666 12.667 -93.999 38s-38 56.666 -38 93.999zM698 1664c0 37.333 12.667 68.666 38 93.999s56.666 38 93.999 38s68.666 -12.667 93.999 -38s38 -56.666 38 -93.999s-12.667 -68.666 -38 -93.999s-56.666 -38 -93.999 -38s-68.666 12.667 -93.999 38
s-38 56.666 -38 93.999z" />
    <glyph glyph-name="alphatonos" unicode="&#x3ac;" horiz-adv-x="1386" 
d="M1262 0c-94 0 -163.501 9.16699 -208.501 27.5s-75.5 53.833 -91.5 106.5c-90 -105.333 -210.667 -158 -362 -158c-100 0 -190.833 24.667 -272.5 74s-145 115.333 -190 198s-67.5 172.667 -67.5 270s22.5 187.333 67.5 270s108.333 148.667 190 198s172.5 74 272.5 74
c138.667 0 253.334 -45.333 344.001 -136v112h228v-720c0 -34 11 -61.833 33 -83.5s50.333 -32.5 85 -32.5h52v-196c-24 -2.66699 -50.667 -4 -80 -4zM639.999 180c66.667 0 127.168 16.832 181.501 50.499s95.166 78.834 122.499 135.501v302
c-27.333 56.667 -68.333 102.167 -123 136.5s-115 51.5 -181 51.5c-94.667 0 -174.667 -32.667 -240 -98s-98 -145.333 -98 -240s32.667 -174.667 98 -240s145.333 -98 240 -98zM445 1184l272 342h229l-279 -342h-222z" />
    <glyph glyph-name="epsilontonos" unicode="&#x3ad;" horiz-adv-x="954" 
d="M298 318c0 -41.333 18.668 -75.9971 56.001 -103.997s84 -42 140 -42c103.333 0 184.666 39.333 243.999 118l156 -128c-38.667 -58 -92.834 -103.5 -162.501 -136.5s-148.834 -49.5 -237.501 -49.5c-120 0 -220.667 31.333 -302 94s-122 140 -122 232
c0 60 19.333 114 58 162s86.667 80.667 144 98c-50 16.667 -89.167 44.667 -117.5 84s-42.5 82.666 -42.5 129.999c0 80 36 147.333 108 202s161.333 82 268 82c87.333 0 161.833 -16.333 223.5 -49s107.834 -78.334 138.501 -137.001l-182 -112
c-15.333 31.333 -38.666 56.166 -69.999 74.499s-68 27.5 -110 27.5c-42.667 0 -78 -10.167 -106 -30.5s-42 -45.5 -42 -75.5s14 -55.167 42 -75.5s63.333 -30.5 106 -30.5h154v-188h-148c-56 0 -102.667 -14 -140 -42s-56 -62.667 -56 -104zM285.001 1184l272 342h229
l-279 -342h-222z" />
    <glyph glyph-name="etatonos" unicode="&#x3ae;" horiz-adv-x="1220" 
d="M368 688l0.000976562 -688.001h-228v1036h228v-120c39.333 43.333 86.5 78.166 141.5 104.499s111.167 39.5 168.5 39.5c125.333 0 227 -39.667 305 -119s117 -183.666 117 -312.999v-1092h-228v1080c0 70.667 -22 128.334 -66 173.001s-101.333 67 -172 67
c-49.333 0 -98.333 -16.5 -147 -49.5s-88.334 -72.5 -119.001 -118.5zM453.001 1184l272 342h229l-279 -342h-222z" />
    <glyph glyph-name="iotatonos" unicode="&#x3af;" horiz-adv-x="552" 
d="M150 234v802h228v-740c0 -64 32 -96 96 -96h34v-196c-24 -2.66699 -50.667 -4 -80 -4c-92.667 0 -162.167 20 -208.5 60s-69.5 98 -69.5 174zM110 1184l272 342h229l-279 -342h-222z" />
    <glyph glyph-name="upsilondieresistonos" unicode="&#x3b0;" horiz-adv-x="1148" 
d="M574 -24c-128 0 -235.667 41.667 -323 125s-131 185.666 -131 306.999v628h228v-616c0 -68 21.667 -125 65 -171s97 -69 161 -69s117.667 23 161 69s65 103 65 171v616h228v-628c0 -121.333 -43.667 -223.666 -131 -306.999s-195 -125 -323 -125zM254 1274
c0 39.333 13.167 72.166 39.5 98.499s59.833 39.5 100.5 39.5s74.167 -13.167 100.5 -39.5s39.5 -59.166 39.5 -98.499s-13.167 -72.166 -39.5 -98.499s-59.833 -39.5 -100.5 -39.5s-74.167 13.167 -100.5 39.5s-39.5 59.166 -39.5 98.499zM622 1274
c0 39.333 13.167 72.166 39.5 98.499s59.833 39.5 100.5 39.5s74.167 -13.167 100.5 -39.5s39.5 -59.166 39.5 -98.499s-13.167 -72.166 -39.5 -98.499s-59.833 -39.5 -100.5 -39.5s-74.167 13.167 -100.5 39.5s-39.5 59.166 -39.5 98.499zM665 1448h-218l205 262h227z" />
    <glyph glyph-name="alpha" unicode="&#x3b1;" horiz-adv-x="1386" 
d="M1262 0c-94 0 -163.501 9.16699 -208.501 27.5s-75.5 53.833 -91.5 106.5c-90 -105.333 -210.667 -158 -362 -158c-100 0 -190.833 24.667 -272.5 74s-145 115.333 -190 198s-67.5 172.667 -67.5 270s22.5 187.333 67.5 270s108.333 148.667 190 198s172.5 74 272.5 74
c138.667 0 253.334 -45.333 344.001 -136v112h228v-720c0 -34 11 -61.833 33 -83.5s50.333 -32.5 85 -32.5h52v-196c-24 -2.66699 -50.667 -4 -80 -4zM639.999 180c66.667 0 127.168 16.832 181.501 50.499s95.166 78.834 122.499 135.501v302
c-27.333 56.667 -68.333 102.167 -123 136.5s-115 51.5 -181 51.5c-94.667 0 -174.667 -32.667 -240 -98s-98 -145.333 -98 -240s32.667 -174.667 98 -240s145.333 -98 240 -98z" />
    <glyph glyph-name="beta" unicode="&#x3b2;" horiz-adv-x="1210" 
d="M1010 1046c0 -59.333 -19.501 -113.834 -58.501 -163.501s-91.5 -86.5 -157.5 -110.5c92.667 -14.667 171.834 -56.667 237.501 -126s98.5 -154 98.5 -254c0 -118 -41.333 -216.833 -124 -296.5s-184 -119.5 -304 -119.5c-71.333 0 -136 15.333 -194 46
s-98.667 72 -122 124v-610h-236v1500c0 112.667 40.833 205.5 122.5 278.5s184.167 109.5 307.5 109.5c122.667 0 225 -36.167 307 -108.5s123 -162.166 123 -269.499zM769.999 1036c0 54 -18.499 98.833 -55.499 134.5s-82.5 53.5 -136.5 53.5
c-54.667 0 -100.334 -18.5 -137.001 -55.5s-55 -85.167 -55 -144.5v-572c0 -85.333 24.667 -152 74 -200s112 -72 188 -72c69.333 0 127 21.5 173 64.5s69 97.5 69 163.5c0 70.667 -27.667 128.667 -83 174s-127.666 68 -216.999 68h-48v198
c75.333 0 132.166 17.833 170.499 53.5s57.5 80.5 57.5 134.5z" />
    <glyph glyph-name="gamma" unicode="&#x3b3;" horiz-adv-x="1056" 
d="M414 -464v460l-394 1040h236l272 -748l272 748h236l-394 -1040v-460h-228z" />
    <glyph glyph-name="delta" unicode="&#x3b4;" horiz-adv-x="1136" 
d="M302 444c0 -75.333 26 -138.833 78 -190.5s114.667 -77.5 188 -77.5s136 25.833 188 77.5s78 115.167 78 190.5s-26 138.833 -78 190.5s-114.667 77.5 -188 77.5s-136 -25.833 -188 -77.5s-78 -115.167 -78 -190.5zM508 908l-298.002 300v192h726v-204h-434l444 -448
c38 -38 67.5 -84.333 88.5 -139s31.5 -109.667 31.5 -165c0 -89.333 -23.667 -170.166 -71 -242.499s-109.166 -128 -185.499 -167s-158.166 -58.5 -245.499 -58.5c-84.667 0 -164.667 19.5 -240 58.5s-136.5 94.667 -183.5 167s-70.5 153.166 -70.5 242.499
c0 62 12 120.667 36 176s56 102.833 96 142.5s86.5 72.167 139.5 97.5s108.5 41.333 166.5 48z" />
    <glyph glyph-name="epsilon" unicode="&#x3b5;" horiz-adv-x="954" 
d="M298 318c0 -41.333 18.668 -75.9971 56.001 -103.997s84 -42 140 -42c103.333 0 184.666 39.333 243.999 118l156 -128c-38.667 -58 -92.834 -103.5 -162.501 -136.5s-148.834 -49.5 -237.501 -49.5c-120 0 -220.667 31.333 -302 94s-122 140 -122 232
c0 60 19.333 114 58 162s86.667 80.667 144 98c-50 16.667 -89.167 44.667 -117.5 84s-42.5 82.666 -42.5 129.999c0 80 36 147.333 108 202s161.333 82 268 82c87.333 0 161.833 -16.333 223.5 -49s107.834 -78.334 138.501 -137.001l-182 -112
c-15.333 31.333 -38.666 56.166 -69.999 74.499s-68 27.5 -110 27.5c-42.667 0 -78 -10.167 -106 -30.5s-42 -45.5 -42 -75.5s14 -55.167 42 -75.5s63.333 -30.5 106 -30.5h154v-188h-148c-56 0 -102.667 -14 -140 -42s-56 -62.667 -56 -104z" />
    <glyph glyph-name="zeta" unicode="&#x3b6;" horiz-adv-x="944" 
d="M70 368c0 63.333 15.832 124.999 47.499 184.999s75.834 124.333 132.501 193l368 450h-446v204h712v-192l-456 -566c-41.333 -50.667 -73.666 -98 -96.999 -142s-35 -88 -35 -132c0 -89.333 56 -159.333 168 -210l242 -110c118.667 -53.333 178 -141.333 178 -264
c0 -80.667 -29.333 -163.334 -88 -248.001h-222c56 74.667 84 146 84 214c0 30.667 -8.83301 58.334 -26.5 83.001s-40.834 43 -69.501 55l-220 96c-87.333 38 -154.5 90.333 -201.5 157s-70.5 142.334 -70.5 227.001z" />
    <glyph glyph-name="eta" unicode="&#x3b7;" horiz-adv-x="1220" 
d="M368 688l0.000976562 -688.001h-228v1036h228v-120c39.333 43.333 86.5 78.166 141.5 104.499s111.167 39.5 168.5 39.5c125.333 0 227 -39.667 305 -119s117 -183.666 117 -312.999v-1092h-228v1080c0 70.667 -22 128.334 -66 173.001s-101.333 67 -172 67
c-49.333 0 -98.333 -16.5 -147 -49.5s-88.334 -72.5 -119.001 -118.5z" />
    <glyph glyph-name="theta" unicode="&#x3b8;" horiz-adv-x="1280" 
d="M70 700c0 131.333 23 251.666 69 360.999s112.833 197.166 200.5 263.499s187.834 99.5 300.501 99.5s212.834 -33.167 300.501 -99.5s154.5 -154.166 200.5 -263.499s69 -229.666 69 -360.999s-23 -251.666 -69 -360.999s-112.833 -197.166 -200.5 -263.499
s-187.834 -99.5 -300.501 -99.5s-212.834 33.167 -300.501 99.5s-154.5 154.166 -200.5 263.499s-69 229.666 -69 360.999zM640 180c88.667 0 162.666 40 221.999 120s96 180.667 110 302h-665c14 -121.333 50.833 -222 110.5 -302s133.834 -120 222.501 -120zM639.999 1220
c-88.667 0 -162.833 -40 -222.5 -120s-96.5 -180.667 -110.5 -302h665c-14 121.333 -50.667 222 -110 302s-133.333 120 -222 120z" />
    <glyph glyph-name="iota" unicode="&#x3b9;" horiz-adv-x="552" 
d="M150 234v802h228v-740c0 -64 32 -96 96 -96h34v-196c-24 -2.66699 -50.667 -4 -80 -4c-92.667 0 -162.167 20 -208.5 60s-69.5 98 -69.5 174z" />
    <glyph glyph-name="kappa" unicode="&#x3ba;" horiz-adv-x="1040" 
d="M780 0l-314 478h-98v-478h-228v1036h228v-362h101l249 362h268l-330 -460l384 -576h-260z" />
    <glyph glyph-name="lambda" unicode="&#x3bb;" horiz-adv-x="1056" 
d="M412 1020l-168 440h236l556 -1460h-236l-276 728l-268 -728h-236z" />
    <glyph glyph-name="uni03BC" unicode="&#x3bc;" horiz-adv-x="1240" 
d="M140 -464l-0.000976562 1500h228v-696c14.667 -47.333 44.334 -85.833 89.001 -115.5s94.334 -44.5 149.001 -44.5c49.333 0 98.333 16.5 147 49.5s88.334 72.5 119.001 118.5v688h228v-1036h-228v120c-36 -43.333 -79.667 -78.166 -131 -104.499
s-104.333 -39.5 -159 -39.5c-40.667 0 -79.834 8.83301 -117.501 26.5s-69.834 41.5 -96.501 71.5v-538h-228z" />
    <glyph glyph-name="nu" unicode="&#x3bd;" horiz-adv-x="1056" 
d="M1036 1036l-390 -1036h-236l-390 1036h236l272 -740l272 740h236z" />
    <glyph glyph-name="xi" unicode="&#x3be;" horiz-adv-x="954" 
d="M306 376c0 -116.667 66.002 -199.998 198.002 -249.998l186 -70c63.333 -24 113.166 -60 149.499 -108s54.5 -102.667 54.5 -164c0 -80.667 -29.333 -163.334 -88 -248.001h-222c56 74.667 84 146 84 214c0 32 -8.16699 60 -24.5 84s-40.166 42 -71.499 54l-176 64
c-96.667 35.333 -173.5 91.166 -230.5 167.499s-85.5 158.5 -85.5 246.5c0 86.667 27.833 165.667 83.5 237s125.5 123.666 209.5 156.999c-68.667 26.667 -124.334 68.834 -167.001 126.501s-64 120.167 -64 187.5c0 98.667 38.333 181.667 115 249s171 101 283 101
c138 0 248.667 -46 332 -138l-150 -160c-58 73.333 -118.667 110 -182 110c-48 0 -88.333 -17.833 -121 -53.5s-49 -80.5 -49 -134.5s16.333 -98.833 49 -134.5s73 -53.5 121 -53.5h226v-188h-184c-78.667 0 -144.334 -28.667 -197.001 -86s-79 -127.333 -79 -210z" />
    <glyph glyph-name="omicron" unicode="&#x3bf;" horiz-adv-x="1280" 
d="M640 180c94.667 0 174.667 32.667 240 98s98 145.333 98 240s-32.667 174.667 -98 240s-145.333 98 -240 98s-174.667 -32.667 -240 -98s-98 -145.333 -98 -240s32.667 -174.667 98 -240s145.333 -98 240 -98zM640 1060c107.333 0 204.666 -24 291.999 -72
s155.5 -113.5 204.5 -196.5s73.5 -174.167 73.5 -273.5s-24.5 -190.5 -73.5 -273.5s-117.167 -148.5 -204.5 -196.5s-184.666 -72 -291.999 -72s-204.666 24 -291.999 72s-155.5 113.5 -204.5 196.5s-73.5 174.167 -73.5 273.5s24.5 190.5 73.5 273.5
s117.167 148.5 204.5 196.5s184.666 72 291.999 72z" />
    <glyph glyph-name="pi" unicode="&#x3c0;" horiz-adv-x="1152" 
d="M420 832v-832h-228v832h-142v204h1052v-204h-142v-832h-228v832h-312z" />
    <glyph glyph-name="rho" unicode="&#x3c1;" horiz-adv-x="1292" 
d="M120 -464v982c0 100 23 191.167 69 273.5s111.333 147.666 196 195.999s180.334 72.5 287.001 72.5c106 0 201.167 -24.167 285.5 -72.5s149.5 -113.666 195.5 -195.999s69 -173.5 69 -273.5c0 -97.333 -22.5 -187.333 -67.5 -270s-108.333 -148.667 -190 -198
s-172.5 -74 -272.5 -74c-138.667 0 -253.334 45.333 -344.001 136v-576h-228zM348 518l0.000976562 -151.999c27.333 -56.667 68.166 -101.834 122.499 -135.501s114.833 -50.5 181.5 -50.5c94.667 0 174.667 32.667 240 98s98 145.333 98 240c0 96 -30.333 176.333 -91 241
s-137 97 -229 97c-93.333 0 -170.333 -32.333 -231 -97s-91 -145 -91 -241z" />
    <glyph glyph-name="sigma1" unicode="&#x3c2;" horiz-adv-x="1080" 
d="M70 518c0 99.333 24.502 190.498 73.502 273.498s117.167 148.5 204.5 196.5s184.666 72 291.999 72c146 0 272.667 -44 380 -132l-118 -178c-87.333 70.667 -174.666 106 -261.999 106c-94.667 0 -174.667 -32.667 -240 -98s-98 -145.333 -98 -240
c0 -73.333 19.333 -139.666 58 -198.999s94.667 -105.666 168 -138.999l290 -130c118.667 -53.333 178 -142 178 -266c0 -80.667 -29.333 -163.334 -88 -248.001h-222c56 74.667 84 146 84 214c0 30.667 -8.83301 58.334 -26.5 83.001s-40.834 43 -69.501 55l-268 118
c-102.667 44.667 -184.334 112.167 -245.001 202.5s-91 193.5 -91 309.5z" />
    <glyph glyph-name="sigma" unicode="&#x3c3;" horiz-adv-x="1330" 
d="M70 506c0 97.333 24.667 186.499 74 267.499s116.666 145 201.999 192s179.333 70.5 282 70.5h652v-204h-242c46 -45.333 82.167 -97.666 108.5 -156.999s39.5 -122.333 39.5 -189c0 -92 -24.667 -177.167 -74 -255.5s-116.833 -140.333 -202.5 -186
s-179.5 -68.5 -281.5 -68.5c-102.667 0 -196.667 23.5 -282 70.5s-152.666 111 -201.999 192s-74 170.167 -74 267.5zM954 505.999c0 92 -31.333 169.333 -94 232s-140 94 -232 94s-169.333 -31.333 -232 -94s-94 -140 -94 -232s31.333 -169.333 94 -232s140 -94 232 -94
s169.333 31.333 232 94s94 140 94 232z" />
    <glyph glyph-name="tau" unicode="&#x3c4;" horiz-adv-x="978" 
d="M364 356l-0.000976562 476h-320v204h890v-204h-342v-480c0 -57.333 10.833 -97.666 32.5 -120.999s56.834 -35 105.501 -35h52v-196c-24 -2.66699 -50.667 -4 -80 -4c-120 0 -206.333 27.667 -259 83s-79 147.666 -79 276.999z" />
    <glyph glyph-name="upsilon" unicode="&#x3c5;" horiz-adv-x="1148" 
d="M574 -24c-128 0 -235.667 41.667 -323 125s-131 185.666 -131 306.999v628h228v-616c0 -68 21.667 -125 65 -171s97 -69 161 -69s117.667 23 161 69s65 103 65 171v616h228v-628c0 -121.333 -43.667 -223.666 -131 -306.999s-195 -125 -323 -125z" />
    <glyph glyph-name="phi" unicode="&#x3c6;" horiz-adv-x="1400" 
d="M266 946l162.001 -143.998c-84 -82 -126 -176.667 -126 -284c0 -85.333 27 -159.333 81 -222s122.333 -100 205 -112v876h172c107.333 0 204.666 -24 291.999 -72s155.5 -113.5 204.5 -196.5s73.5 -174.167 73.5 -273.5c0 -142.667 -48.333 -265 -145 -367
s-219.667 -159.333 -369 -172v-443h-228v443c-150 11.333 -273.833 68.166 -371.5 170.499s-146.5 225.166 -146.5 368.499c0 87.333 18 168 54 242s83.333 136 142 186zM1098 518.002c0 84.667 -26.667 158.001 -80 220.001s-120.666 99.667 -201.999 113v-667
c81.333 13.333 148.666 51.166 201.999 113.499s80 135.833 80 220.5z" />
    <glyph glyph-name="chi" unicode="&#x3c7;" horiz-adv-x="1028" 
d="M1008 1036l-364 -730l384 -770h-244l-270 550l-270 -550h-244l384 770l-364 730h244l250 -512l250 512h244z" />
    <glyph glyph-name="psi" unicode="&#x3c8;" horiz-adv-x="1376" 
d="M804 1036v-838c66 21.333 119.167 58.833 159.5 112.5s60.5 115.5 60.5 185.5v540h232v-550c0 -124.667 -42.333 -233.334 -127 -326.001s-193 -150.667 -325 -174v-450h-232v450c-132 23.333 -240.333 81.333 -325 174s-127 201.334 -127 326.001v550h232v-540
c0 -70 20.167 -131.833 60.5 -185.5s93.5 -91.167 159.5 -112.5v838h232z" />
    <glyph glyph-name="omega" unicode="&#x3c9;" horiz-adv-x="1600" 
d="M914 818l-0.00195312 -310c0 -93.333 18.333 -171.333 55 -234s82.334 -94 137.001 -94s100.334 31.333 137.001 94s55 140.667 55 234c0 153.333 -58 329.333 -174 528h228c24 -39.333 44.333 -74.666 61 -105.999s35 -70.5 55 -117.5s35.333 -96.333 46 -148
s16 -103.834 16 -156.501c0 -98.667 -17.833 -188.667 -53.5 -270s-84.834 -145.333 -147.501 -192s-131.667 -70 -207 -70c-71.333 0 -135.333 20.833 -192 62.5s-100 94.834 -130 159.501c-30 -64.667 -73.333 -117.834 -130 -159.501s-120.667 -62.5 -192 -62.5
c-75.333 0 -144.333 23.333 -207 70s-111.834 110.667 -147.501 192s-53.5 171.333 -53.5 270c0 52.667 5.33301 104.834 16 156.501s26 101 46 148s38.333 86.167 55 117.5s37 66.666 61 105.999h228c-116 -198.667 -174 -374.667 -174 -528
c0 -93.333 18.333 -171.333 55 -234s82.334 -94 137.001 -94s100.334 31.333 137.001 94s55 140.667 55 234v310h228z" />
    <glyph glyph-name="iotadieresis" unicode="&#x3ca;" horiz-adv-x="552" 
d="M150 234v802h228v-740c0 -64 32 -96 96 -96h34v-196c-24 -2.66699 -50.667 -4 -80 -4c-92.667 0 -162.167 20 -208.5 60s-69.5 98 -69.5 174zM-52 1340c0 37.333 12.667 68.666 38 93.999s56.666 38 93.999 38s68.666 -12.667 93.999 -38s38 -56.666 38 -93.999
s-12.667 -68.666 -38 -93.999s-56.666 -38 -93.999 -38s-68.666 12.667 -93.999 38s-38 56.666 -38 93.999zM316 1340c0 37.333 12.667 68.666 38 93.999s56.666 38 93.999 38s68.666 -12.667 93.999 -38s38 -56.666 38 -93.999s-12.667 -68.666 -38 -93.999
s-56.666 -38 -93.999 -38s-68.666 12.667 -93.999 38s-38 56.666 -38 93.999z" />
    <glyph glyph-name="upsilondieresis" unicode="&#x3cb;" horiz-adv-x="1148" 
d="M258 1340c0 37.333 12.667 68.666 38 93.999s56.666 38 93.999 38s68.666 -12.667 93.999 -38s38 -56.666 38 -93.999s-12.667 -68.666 -38 -93.999s-56.666 -38 -93.999 -38s-68.666 12.667 -93.999 38s-38 56.666 -38 93.999zM626 1340
c0 37.333 12.667 68.666 38 93.999s56.666 38 93.999 38s68.666 -12.667 93.999 -38s38 -56.666 38 -93.999s-12.667 -68.666 -38 -93.999s-56.666 -38 -93.999 -38s-68.666 12.667 -93.999 38s-38 56.666 -38 93.999zM574 -24c-128 0 -235.667 41.667 -323 125
s-131 185.666 -131 306.999v628h228v-616c0 -68 21.667 -125 65 -171s97 -69 161 -69s117.667 23 161 69s65 103 65 171v616h228v-628c0 -121.333 -43.667 -223.666 -131 -306.999s-195 -125 -323 -125z" />
    <glyph glyph-name="omicrontonos" unicode="&#x3cc;" horiz-adv-x="1280" 
d="M640 180c94.667 0 174.667 32.667 240 98s98 145.333 98 240s-32.667 174.667 -98 240s-145.333 98 -240 98s-174.667 -32.667 -240 -98s-98 -145.333 -98 -240s32.667 -174.667 98 -240s145.333 -98 240 -98zM640 1060c107.333 0 204.666 -24 291.999 -72
s155.5 -113.5 204.5 -196.5s73.5 -174.167 73.5 -273.5s-24.5 -190.5 -73.5 -273.5s-117.167 -148.5 -204.5 -196.5s-184.666 -72 -291.999 -72s-204.666 24 -291.999 72s-155.5 113.5 -204.5 196.5s-73.5 174.167 -73.5 273.5s24.5 190.5 73.5 273.5
s117.167 148.5 204.5 196.5s184.666 72 291.999 72zM480 1184l272 342h229l-279 -342h-222z" />
    <glyph glyph-name="upsilontonos" unicode="&#x3cd;" horiz-adv-x="1148" 
d="M574 -24c-128 0 -235.667 41.667 -323 125s-131 185.666 -131 306.999v628h228v-616c0 -68 21.667 -125 65 -171s97 -69 161 -69s117.667 23 161 69s65 103 65 171v616h228v-628c0 -121.333 -43.667 -223.666 -131 -306.999s-195 -125 -323 -125zM403 1184l272 342h229
l-279 -342h-222z" />
    <glyph glyph-name="omegatonos" unicode="&#x3ce;" horiz-adv-x="1600" 
d="M914 818l-0.00195312 -310c0 -93.333 18.333 -171.333 55 -234s82.334 -94 137.001 -94s100.334 31.333 137.001 94s55 140.667 55 234c0 153.333 -58 329.333 -174 528h228c24 -39.333 44.333 -74.666 61 -105.999s35 -70.5 55 -117.5s35.333 -96.333 46 -148
s16 -103.834 16 -156.501c0 -98.667 -17.833 -188.667 -53.5 -270s-84.834 -145.333 -147.501 -192s-131.667 -70 -207 -70c-71.333 0 -135.333 20.833 -192 62.5s-100 94.834 -130 159.501c-30 -64.667 -73.333 -117.834 -130 -159.501s-120.667 -62.5 -192 -62.5
c-75.333 0 -144.333 23.333 -207 70s-111.834 110.667 -147.501 192s-53.5 171.333 -53.5 270c0 52.667 5.33301 104.834 16 156.501s26 101 46 148s38.333 86.167 55 117.5s37 66.666 61 105.999h228c-116 -198.667 -174 -374.667 -174 -528
c0 -93.333 18.333 -171.333 55 -234s82.334 -94 137.001 -94s100.334 31.333 137.001 94s55 140.667 55 234v310h228zM650.998 1184l272 342h229l-279 -342h-222z" />
    <glyph glyph-name="uni0400" unicode="&#x400;" horiz-adv-x="1140" 
d="M160 0v1400h852v-204h-616v-390h568v-204h-568v-398h634v-204h-870zM463 1850l272 -342h-222l-279 342h229z" />
    <glyph glyph-name="afii10023" unicode="&#x401;" horiz-adv-x="1140" 
d="M160 0v1400h852v-204h-616v-390h568v-204h-568v-398h634v-204h-870zM272 1664c0 37.333 12.667 68.666 38 93.999s56.666 38 93.999 38s68.666 -12.667 93.999 -38s38 -56.666 38 -93.999s-12.667 -68.666 -38 -93.999s-56.666 -38 -93.999 -38
s-68.666 12.667 -93.999 38s-38 56.666 -38 93.999zM640 1664c0 37.333 12.667 68.666 38 93.999s56.666 38 93.999 38s68.666 -12.667 93.999 -38s38 -56.666 38 -93.999s-12.667 -68.666 -38 -93.999s-56.666 -38 -93.999 -38s-68.666 12.667 -93.999 38
s-38 56.666 -38 93.999z" />
    <glyph glyph-name="afii10051" unicode="&#x402;" horiz-adv-x="1436" 
d="M1366 498l-0.000976562 -105.999c0 -111.333 -39.167 -205.166 -117.5 -281.499s-174.5 -114.5 -288.5 -114.5c-29.333 0 -56 1.33301 -80 4v196h52c56 0 103 19.5 141 58.5s57 87.5 57 145.5v86c0 59.333 -20 109.166 -60 149.499s-89.333 60.5 -148 60.5
c-115.333 0 -198.666 -49.333 -249.999 -148v-548h-236v1196h-376v204h988v-204h-376v-416c34 38 75.833 67.5 125.5 88.5s102.5 31.5 158.5 31.5c115.333 0 212.5 -38.833 291.5 -116.5s118.5 -172.834 118.5 -285.501z" />
    <glyph glyph-name="afii10052" unicode="&#x403;" horiz-adv-x="1032" 
d="M160 0v1400h832v-204h-596v-1196h-236zM361 1508l272 342h229l-279 -342h-222z" />
    <glyph glyph-name="afii10053" unicode="&#x404;" horiz-adv-x="1382" 
d="M1312 1256l-123.999 -176.001c-114 90.667 -234.667 136 -362 136c-123.333 0 -231.166 -38.833 -323.499 -116.5s-150.166 -176.834 -173.499 -297.501h687v-204h-687c23.333 -121.333 81.166 -220.666 173.499 -297.999s200.166 -116 323.499 -116
c65.333 0 124.666 10.667 177.999 32s111.333 52.666 174 93.999l118 -178c-137.333 -104 -294 -156 -470 -156c-138.667 0 -265 31.833 -379 95.5s-203.667 150.834 -269 261.501s-98 233 -98 367s32.667 256.333 98 367s155 197.834 269 261.501s240.333 95.5 379 95.5
c186.667 0 348.667 -56 486 -168z" />
    <glyph glyph-name="afii10054" unicode="&#x405;" horiz-adv-x="1188" 
d="M98 202l147.997 160.001c48.667 -53.333 103 -96.333 163 -129s121.667 -49 185 -49c82 0 148.167 18 198.5 54s75.5 84.667 75.5 146c0 57.333 -22.667 106.166 -68 146.499s-124.666 72.166 -237.999 95.499c-145.333 30.667 -254 80.834 -326 150.501
s-108 156.167 -108 259.5c0 115.333 42.333 208.833 127 280.5s194.334 107.5 329.001 107.5c184.667 0 335.334 -59.333 452.001 -178l-140 -168c-101.333 92 -202 138 -302 138c-66 0 -120.167 -15 -162.5 -45s-63.5 -69.667 -63.5 -119c0 -56.667 23 -103.5 69 -140.5
s121 -67.5 225 -91.5c159.333 -36.667 273.5 -90.5 342.5 -161.5s103.5 -162.5 103.5 -274.5c0 -122 -45 -220.5 -135 -295.5s-213 -112.5 -369 -112.5c-98.667 0 -193 20 -283 60s-164.333 95.333 -223 166z" />
    <glyph glyph-name="afii10055" unicode="&#x406;" horiz-adv-x="576" 
d="M170 1400h236v-1400h-236v1400z" />
    <glyph glyph-name="afii10056" unicode="&#x407;" horiz-adv-x="576" 
d="M170 1400h236v-1400h-236v1400zM-28 1664c0 37.333 12.667 68.666 38 93.999s56.666 38 93.999 38s68.666 -12.667 93.999 -38s38 -56.666 38 -93.999s-12.667 -68.666 -38 -93.999s-56.666 -38 -93.999 -38s-68.666 12.667 -93.999 38s-38 56.666 -38 93.999zM340 1664
c0 37.333 12.667 68.666 38 93.999s56.666 38 93.999 38s68.666 -12.667 93.999 -38s38 -56.666 38 -93.999s-12.667 -68.666 -38 -93.999s-56.666 -38 -93.999 -38s-68.666 12.667 -93.999 38s-38 56.666 -38 93.999z" />
    <glyph glyph-name="afii10057" unicode="&#x408;" horiz-adv-x="924" 
d="M538 446v954h236v-954c0 -162 -38 -280.833 -114 -356.5s-189.333 -113.5 -340 -113.5c-48.667 0 -98.667 6.16699 -150 18.5s-94.666 28.833 -129.999 49.5l76 198c65.333 -38.667 132 -58 200 -58c73.333 0 128.666 20.667 165.999 62s56 108 56 200z" />
    <glyph glyph-name="afii10058" unicode="&#x409;" horiz-adv-x="2004" 
d="M1214 1400l-0.000976562 -507.999h236c150 0 268.167 -40.333 354.5 -121s129.5 -189 129.5 -325s-43.167 -244.333 -129.5 -325s-204.5 -121 -354.5 -121h-472v1196h-508v-840c0 -128 -28.167 -220 -84.5 -276s-144.833 -84 -265.5 -84c-29.333 0 -56 1.33301 -80 4v200
h56c48.667 0 83.834 11.667 105.501 35s32.5 63.666 32.5 120.999v1044h980zM1694 446.001c0 75.333 -21.833 134.5 -65.5 177.5s-106.5 64.5 -188.5 64.5h-226v-484h226c82 0 144.833 21.5 188.5 64.5s65.5 102.167 65.5 177.5z" />
    <glyph glyph-name="afii10059" unicode="&#x40a;" horiz-adv-x="2018" 
d="M1228 1400v-508h236c150 0 268.167 -40.333 354.5 -121s129.5 -189 129.5 -325s-43.167 -244.333 -129.5 -325s-204.5 -121 -354.5 -121h-472v602h-596v-602h-236v1400h236v-594h596v594h236zM1708 446c0 75.333 -21.833 134.5 -65.5 177.5s-106.5 64.5 -188.5 64.5h-226
v-484h226c82 0 144.833 21.5 188.5 64.5s65.5 102.167 65.5 177.5z" />
    <glyph glyph-name="afii10060" unicode="&#x40b;" horiz-adv-x="1486" 
d="M1366 498l-0.000976562 -497.998h-236v486c0 59.333 -20 109.166 -60 149.499s-89.333 60.5 -148 60.5c-115.333 0 -198.666 -49.333 -249.999 -148v-548h-236v1196h-376v204h988v-204h-376v-416c34 38 75.833 67.5 125.5 88.5s102.5 31.5 158.5 31.5
c115.333 0 212.5 -38.833 291.5 -116.5s118.5 -172.834 118.5 -285.501z" />
    <glyph glyph-name="afii10061" unicode="&#x40c;" horiz-adv-x="1216" 
d="M396 1400v-594h85l397 594h268l-466 -692l546 -708h-276l-462 602h-92v-602h-236v1400h236zM421 1508l272 342h229l-279 -342h-222z" />
    <glyph glyph-name="uni040D" unicode="&#x40d;" horiz-adv-x="1408" 
d="M1248 1400v-1400h-228v992l-632 -992h-228v1400h228v-992l632 992h228zM593 1850l272 -342h-222l-279 342h229z" />
    <glyph glyph-name="afii10062" unicode="&#x40e;" horiz-adv-x="1292" 
d="M1252 1400l-580.001 -1198c-65.333 -134.667 -166.666 -202 -303.999 -202h-166v204h132c60 0 105.333 30.667 136 92l58 118l-488 986h246l364 -752l356 752h246zM649.999 1488c-89.333 0 -166.833 29.667 -232.5 89s-100.834 134.333 -105.501 225h200
c0.666992 -42 14.334 -76.833 41.001 -104.5s59 -41.5 97 -41.5s70.333 13.833 97 41.5s40.334 62.5 41.001 104.5h200c-4.66699 -90.667 -39.834 -165.667 -105.501 -225s-143.167 -89 -232.5 -89z" />
    <glyph glyph-name="afii10145" unicode="&#x40f;" horiz-adv-x="1356" 
d="M960 204v1196h236v-1400h-400v-280h-236v280h-400v1400h236v-1196h564z" />
    <glyph glyph-name="afii10017" unicode="&#x410;" horiz-adv-x="1376" 
d="M820 1400l516 -1400h-256l-116 338h-552l-116 -338h-256l516 1400h264zM688 1142l-206 -600h412z" />
    <glyph glyph-name="afii10018" unicode="&#x411;" horiz-adv-x="1196" 
d="M396 892h236c150 0 268.167 -40.333 354.5 -121s129.5 -189 129.5 -325s-43.167 -244.333 -129.5 -325s-204.5 -121 -354.5 -121h-472v1400h846v-204h-610v-304zM876 446c0 75.333 -21.833 134.5 -65.5 177.5s-106.5 64.5 -188.5 64.5h-226v-484h226
c82 0 144.833 21.5 188.5 64.5s65.5 102.167 65.5 177.5z" />
    </font>
</defs>
</svg>
